<svg id="Layer_1" data-name="Layer 1" xmlns="http://www.w3.org/2000/svg" viewBox="0 0 211.33 18.07">
  <defs>
    <style>
      .cls-1 {
        fill: #fff;
      }
    </style>
  </defs>
  <title>afterlife-wordmark</title>
  <path class="cls-1" d="M310.68,356.26a4.21,4.21,0,0,1-.89-0.53,5,5,0,0,1-.61-0.61L309,355a2.93,2.93,0,0,1-.29-0.4l-0.31-.5c-0.16-.26-0.32-0.52-0.49-0.77s-0.26-.35-0.39-0.53l-0.21-.27-0.43-.58-0.67-.9a1.34,1.34,0,0,1-.32-0.95,0.7,0.7,0,0,1,.31-0.48,4.56,4.56,0,0,0,1.56-1.7l0.14-.27a2.81,2.81,0,0,0,.38-1c0-.22,0-0.44.06-0.66l0-.26a3.7,3.7,0,0,0-1.21-3.51,0.68,0.68,0,0,0-.18-0.24l-0.27-.24a2.84,2.84,0,0,0-.89-0.62,7.88,7.88,0,0,0-1.45-.34l-0.48-.08-0.15,0a7,7,0,0,0-2-.18,5.06,5.06,0,0,1-.92,0l-0.61,0a5.76,5.76,0,0,0-.59,0l-0.33,0H297a1.1,1.1,0,0,0-.65.18,1.16,1.16,0,0,0-.5.68,1,1,0,0,0,.28.76,1,1,0,0,0,.4.3,1.3,1.3,0,0,1,.68,1,12.82,12.82,0,0,1,.18,2.39c0,0.22,0,.44,0,0.66a9.17,9.17,0,0,0,.08,2.31,0.79,0.79,0,0,1,0,.2,2.21,2.21,0,0,0,0,.23c0,0.12,0,.24,0,0.36a5,5,0,0,0,0,1l0,0.32a7.42,7.42,0,0,1,0,2.36,0.88,0.88,0,0,0,0,.38l0.37-.07-0.35.15a2.16,2.16,0,0,1-.17,1.8,1,1,0,0,0-.17.48,0.4,0.4,0,0,1-.28.36,2.21,2.21,0,0,0-.48.3,0.81,0.81,0,0,0-.37,1,1.12,1.12,0,0,0,1.11.71l2.11-.07,0.55,0a0.36,0.36,0,0,0,.22.06l0.26,0c0.18,0,.37,0,0.55,0l0.34,0a2.47,2.47,0,0,0,.72,0,1.17,1.17,0,0,0,.81-0.66,1,1,0,0,0-.32-1,2.79,2.79,0,0,0-.67-0.37l-0.23-.11-0.18-.07h0l-0.06-.1a1.56,1.56,0,0,1-.33-1.08,8.9,8.9,0,0,0,.1-1.23c0-.17,0-0.33,0-0.5a0.53,0.53,0,0,0-.06-0.27,1.56,1.56,0,0,1-.06-0.94c0-.13,0-0.26,0-0.39a0.7,0.7,0,0,1,.34-0.63,1.32,1.32,0,0,1,1,.29l0.09,0.12c0.37,0.49.74,1,1.09,1.48l0.46,0.64c0.49,0.68,1,1.38,1.43,2.09a7.06,7.06,0,0,0,2.07,2.24,2.15,2.15,0,0,0,1.26.4,2.18,2.18,0,0,1,1.29.22,0.91,0.91,0,0,0,.42.1,1.09,1.09,0,0,0,.39-0.08,1.39,1.39,0,0,0,.78-0.8,1,1,0,0,0-.7-1.27m-6.17-12.13a2.7,2.7,0,0,1,.31,1.6,1,1,0,0,0,0,.39,1.51,1.51,0,0,1-.7,1.62,4.59,4.59,0,0,1-1.32.68l-0.39.15a0.87,0.87,0,0,1-.29,0,0.83,0.83,0,0,0-.42,0h-0.39a0.33,0.33,0,0,1-.34-0.24l-0.05-.14a0.77,0.77,0,0,1-.06-0.18c0-.5,0-1,0-1.51v-0.69c0-.41,0-0.82,0-1.23,0-.26,0-0.52,0-0.78l0-.29a0.74,0.74,0,0,1,0-.08,1.21,1.21,0,0,0,0-.23,0.66,0.66,0,0,1,.72-0.66h0a4.55,4.55,0,0,1,2.15.74l0.24,0.13a1.62,1.62,0,0,1,.43.62Z" transform="translate(-191.98 -340.34)"/>
  <path class="cls-1" d="M402.86,353.44a0.85,0.85,0,0,0-.86.11,6.44,6.44,0,0,0-.91,1l-0.2.3a1.39,1.39,0,0,1-.72.69,4.63,4.63,0,0,0-.63.26,1.5,1.5,0,0,1-1.16.23,0.68,0.68,0,0,0-.37,0l-0.42,0c-0.34,0-.68,0-1,0a2.45,2.45,0,0,1-1.31-.38,1.92,1.92,0,0,1-.61-1.74,3.89,3.89,0,0,1,0-.57,4.21,4.21,0,0,0,0-.74c0-.13,0-0.26,0-0.4a2.89,2.89,0,0,1,.15-1.54,0.67,0.67,0,0,1,.81-0.47,1.84,1.84,0,0,0,.42,0l0.37,0,0.5,0h0.18a1.68,1.68,0,0,0,.38,0,0.84,0.84,0,0,1,.81.38c0.16,0.2.33,0.38,0.5,0.57l0.27,0.3a0.7,0.7,0,0,0,1,.12,1.35,1.35,0,0,0,.59-1.24c0-.18,0-0.37,0-0.55a2.24,2.24,0,0,1,0-.94,2.5,2.5,0,0,0-.14-1.45l0-.16a1.23,1.23,0,0,0-.72-0.71,0.81,0.81,0,0,0-1,.5l-0.08.16a1.29,1.29,0,0,1-.1.18,1.13,1.13,0,0,1-.67.63,8.51,8.51,0,0,1-2.45,0,0.54,0.54,0,0,1-.46-0.31l-0.13-.27a0.75,0.75,0,0,1-.14-0.72,0.57,0.57,0,0,0,0-.33v-0.87c0-.68,0-1.35,0-2a0.77,0.77,0,0,1,.24-0.59,1.22,1.22,0,0,1,.85-0.32c0.46,0,.92,0,1.37,0h0.57l0.34,0a1.66,1.66,0,0,1,.56,0,2.06,2.06,0,0,1,.55.32l0.25,0.17a4.13,4.13,0,0,1,1.34,1.4,1.09,1.09,0,0,0,.85.46,0.93,0.93,0,0,0,.75-0.31,1,1,0,0,0,.16-0.9,3.69,3.69,0,0,0-.11-0.38,2,2,0,0,1-.11-0.46,2.51,2.51,0,0,0-.74-1.93,1.61,1.61,0,0,0-.77-0.39,3.16,3.16,0,0,0-.64,0h-0.37l-0.62,0a8.89,8.89,0,0,0-.95-0.06c-0.56,0-1.11,0-1.67,0l-1.2,0-0.24,0a1.47,1.47,0,0,0-.54,0,8.51,8.51,0,0,1-1.74.06c-0.39,0-.78,0-1.17,0a2.53,2.53,0,0,1-.37,0l-0.2,0a0.34,0.34,0,0,0-.14,0h-0.29a0.9,0.9,0,0,0-.73.55,0.76,0.76,0,0,0,.1.78,5,5,0,0,0,.67.64l0.25,0.22,0.2,0.14,0.08,0c0,0.15.07,0.3,0.11,0.45a1.71,1.71,0,0,1,.05,1.11,1.83,1.83,0,0,0,0,1.42,1.27,1.27,0,0,1,0,1,4.09,4.09,0,0,0-.12,1.45c0,0.5,0,1,0,1.5v0.44c0,0.11,0,.23,0,0.34s0,0.38,0,.56,0,0.35.06,0.53l0.06,0.52a4.71,4.71,0,0,1,.05.59,3.8,3.8,0,0,1,0,.44,2.74,2.74,0,0,0,0,.89,1.91,1.91,0,0,1-.7,2,3.59,3.59,0,0,0-.63.6,0.79,0.79,0,0,0-.19.65,0.78,0.78,0,0,0,.41.54,1.67,1.67,0,0,0,.74.23c0.87,0,1.9.07,2.92,0.06,0.54,0,1.07,0,1.61-.05l0.92,0c0.29,0,.58,0,0.88,0l0.86,0,0.68,0h0.64c0.44,0,.89,0,1.33,0h0.21a1.67,1.67,0,0,0,1.16-.42,2.58,2.58,0,0,0,.81-1.63c0.1-.67.18-1.34,0.23-2a0.85,0.85,0,0,0-.44-0.75" transform="translate(-191.98 -340.34)"/>
  <path class="cls-1" d="M282.66,353.71a3.79,3.79,0,0,0-.56.65,4,4,0,0,1-2.23,1.63,3.65,3.65,0,0,1-.92.06h-0.36l-0.39,0a2.83,2.83,0,0,0-.81,0,1.91,1.91,0,0,1-1.6-.53,0.47,0.47,0,0,1-.16-0.2,8.91,8.91,0,0,1-.17-1.32c0-.28,0-0.57,0-0.85a10.9,10.9,0,0,0,0-1.3,2,2,0,0,1,.3-1.29,0.84,0.84,0,0,1,.82-0.4h0.35c0.36,0,.73,0,1.09,0h0.32a0.91,0.91,0,0,1,1,.4l0.23,0.48a1.07,1.07,0,0,0,.94.62h0a0.8,0.8,0,0,0,.73-0.48,3.59,3.59,0,0,0,.25-1.32,2.78,2.78,0,0,0-.05-0.63,3,3,0,0,1,0-.38c0-.26,0-0.51,0-0.77s0-.41,0-0.61a1,1,0,0,0-.67-1,0.86,0.86,0,0,0-1,.39l-0.16.19a8.85,8.85,0,0,1-.68.76,0.71,0.71,0,0,1-.37.19c-0.35,0-.7,0-1.07,0H276.5a1.17,1.17,0,0,1-1-.92c0-.58-0.09-1.15-0.12-1.73,0-.24,0-0.48,0-0.72v-0.19c0-.08,0-0.16,0-0.24a2.84,2.84,0,0,0,0-.53,1.2,1.2,0,0,1,1-1.19,6.55,6.55,0,0,1,1.48,0l0.51,0a3,3,0,0,1,3,1.63,1.43,1.43,0,0,0,.36.41,0.94,0.94,0,0,0,1.25,0,0.9,0.9,0,0,0,.33-1.12c-0.06-.16-0.1-0.33-0.15-0.5l-0.16-.61c-0.07-.28-0.15-0.57-0.24-0.85a1.51,1.51,0,0,0-1.49-1,6.47,6.47,0,0,1-1,0,4.51,4.51,0,0,0-1.82.1H278.4l-0.66-.06c-0.41,0-.83-0.08-1.24-0.09a3.06,3.06,0,0,0-.6.05,3,3,0,0,1-.42,0h-2.61l-0.67,0h-0.35a4.67,4.67,0,0,0-.58,0,0.73,0.73,0,0,0-.55.36,0.74,0.74,0,0,0,0,.65,1.5,1.5,0,0,0,.62.78,1.69,1.69,0,0,1,.93,1.72c0,0.66,0,1.33-.06,2,0,0.38,0,.76,0,1.14a1,1,0,0,0,0,.28,0.33,0.33,0,0,1,0,.08c0,0.47,0,.93,0,1.4a2.9,2.9,0,0,1,0,.31,2.5,2.5,0,0,0,0,.6,13.14,13.14,0,0,1,0,2.7l0,0.52a6.11,6.11,0,0,0,.05,1.6,1.07,1.07,0,0,1-.33,1.07,5.73,5.73,0,0,1-.64.52l-0.25.19a0.94,0.94,0,0,0-.34,1.22,0.9,0.9,0,0,0,1.12.48,1,1,0,0,1,.29,0l0.6,0,0.58,0h1.24l1.26,0,1.06,0a1.07,1.07,0,0,1,.21,0l0.14,0,0.24,0a3.48,3.48,0,0,0,.62,0l1.28-.08,0.76,0h0.11l0.38,0a7.34,7.34,0,0,0,.91.08h0a2.05,2.05,0,0,0,2.08-1.52,3.91,3.91,0,0,1,.16-0.43A2.15,2.15,0,0,0,284,355a1.3,1.3,0,0,1,.08-0.16,0.91,0.91,0,0,0-.25-1.2,0.84,0.84,0,0,0-1.15.1" transform="translate(-191.98 -340.34)"/>
  <path class="cls-1" d="M208.8,356.46l-0.12-.1a4.08,4.08,0,0,1-1.52-1.81,6.48,6.48,0,0,0-.43-1c-0.12-.23-0.23-0.45-0.32-0.68s-0.24-.69-0.35-1-0.16-.5-0.24-0.75a5.21,5.21,0,0,0-.28-0.62,2.45,2.45,0,0,1-.32-0.9,0.51,0.51,0,0,0-.12-0.28l-0.1-.2a3.82,3.82,0,0,1-.2-0.43,4.21,4.21,0,0,0-.27-0.57,1.78,1.78,0,0,1-.29-0.83,0.48,0.48,0,0,0-.11-0.3l-0.94-2.1,0-.13-0.22-.52-0.39-.94c-0.06-.15-0.13-0.3-0.2-0.45a4.47,4.47,0,0,1-.37-1,1.51,1.51,0,0,0-1.11-1.18,0.77,0.77,0,0,0-.71.1,1.93,1.93,0,0,0-.85,1.25,4.42,4.42,0,0,1-.35,1.07c-0.09.21-.2,0.41-0.31,0.61a5,5,0,0,0-.67,1.8,2.9,2.9,0,0,0-.61,1.24,3.29,3.29,0,0,1-.27.72,2.64,2.64,0,0,0-.23.65,1.94,1.94,0,0,1-.17.48,6.57,6.57,0,0,0-.74,1.5l-0.07.23c-0.07.22-.13,0.45-0.21,0.66-0.19.49-.39,1-0.59,1.45l-0.21.51,0,0.09-0.29.61c-0.2.42-.4,0.83-0.57,1.26a1.59,1.59,0,0,1-1,1.17,1.23,1.23,0,0,0-.92,1.31,1,1,0,0,0,1.2.78h2.9a0.31,0.31,0,0,0,.19-0.06,0.91,0.91,0,0,0,1-.69,0.84,0.84,0,0,0-.52-0.9l-0.15-.1a1.68,1.68,0,0,1-.39-0.47,1.13,1.13,0,0,1-.1-0.4,0.82,0.82,0,0,1,0-.36,2.56,2.56,0,0,1,.17-0.33,2,2,0,0,0,.29-0.76,2.4,2.4,0,0,1,.53-1.19,1.69,1.69,0,0,1,1.47-.88h1.3c0.43,0,.85,0,1.31,0a1,1,0,0,1,.34,0,2.32,2.32,0,0,1,1.17,1l0.15,0.39a6.6,6.6,0,0,0,.4.92,1.52,1.52,0,0,1-.17,2.13,1.59,1.59,0,0,0-.12.18,1,1,0,0,0-.07,1.06,1,1,0,0,0,.9.43c0.53,0,1.06,0,1.6-.08l0.82-.05a2,2,0,0,1,.38,0l0.63,0.1,0.69,0.1h0.1a1.32,1.32,0,0,0,1.12-.74,0.83,0.83,0,0,0-.38-1m-7.4-7.12c-0.05.39-.17,0.5-0.69,0.54a2.88,2.88,0,0,1-.44,0,2.44,2.44,0,0,0-.82,0,0.59,0.59,0,0,1-.58-0.17,0.5,0.5,0,0,1-.23-0.72q0.46-1.26.93-2.51a0.33,0.33,0,0,1,.27-0.19h0.07a0.45,0.45,0,0,1,.37.18,1.62,1.62,0,0,1,.41.89,3.37,3.37,0,0,0,.36,1.1c0.06,0.13.13,0.27,0.18,0.4Z" transform="translate(-191.98 -340.34)"/>
  <path class="cls-1" d="M377.88,342.1a1.89,1.89,0,0,0-1.15-1.53,4.59,4.59,0,0,0-1.41-.19c-0.41,0-.82,0-1.22.07l-0.61,0a0.89,0.89,0,0,0-.21,0,5.13,5.13,0,0,0-.54,0l-1,0-1.58,0-0.91,0-0.71,0c-0.49,0-1,0-1.47,0a5.41,5.41,0,0,0-1.08.12,0.74,0.74,0,0,0-.51.41,0.79,0.79,0,0,0,0,.68,1.72,1.72,0,0,0,.51.57,4.91,4.91,0,0,0,.49.32l0.23,0.14a3.93,3.93,0,0,1,.48,1.29l0,0.09c0,0.11-.05.21-0.08,0.32a3.44,3.44,0,0,0-.16.86c0,0.42,0,.84,0,1.24s0,0.51,0,.77l0,0.67c0,0.7.06,1.41,0,2.11a11.1,11.1,0,0,0,0,2.37s0,0.06,0,0a2.08,2.08,0,0,0,0,1.39c0,0.13.06,0.25,0.07,0.37a1.61,1.61,0,0,1-.21,1.31c-0.18.22-.38,0.43-0.57,0.63s-0.38.39-.55,0.6a0.92,0.92,0,0,0-.15.92,1,1,0,0,0,.79.47c0.31,0,.62,0,0.94,0H368l1.09,0c0.6,0,1.2,0,1.8,0h0.33a1.44,1.44,0,0,0,.87-0.47,0.51,0.51,0,0,0,.17-0.36,0.75,0.75,0,0,0-.15-0.53,2.21,2.21,0,0,0-.71-0.59,1.67,1.67,0,0,1-1-1.5c0-.23,0-0.46,0-0.68a5.85,5.85,0,0,0-.07-1.51,1.43,1.43,0,0,1,0-.51c0-.11,0-0.23.06-0.34a0.37,0.37,0,0,0,0-.23l0.26-.79a0.25,0.25,0,0,1,.25-0.21l0.55,0,1.12-.1a1.59,1.59,0,0,1,1.38.8,3.6,3.6,0,0,0,.77.73,0.76,0.76,0,0,0,.75,0,0.78,0.78,0,0,0,.42-0.65q0.08-1.13.11-2.26a10.92,10.92,0,0,0,0-1.34,0.88,0.88,0,0,0-1.48-.61,4.35,4.35,0,0,0-.66.72,0.81,0.81,0,0,1-.77.45,3.08,3.08,0,0,0-1.23.06,1.21,1.21,0,0,1-1-.15,1,1,0,0,1-.5-0.87c0-.59.06-1.17,0.08-1.76s0-.9,0-1.35c0-.12,0-0.24,0-0.36s0-.26,0-0.39v-0.11c0-.06,0-0.17,0-0.17a0.92,0.92,0,0,1,.8-0.5c0.35,0,.71,0,1.06,0l0.55,0H373a1.29,1.29,0,0,0,.53,0,1.87,1.87,0,0,1,1.76.45,4,4,0,0,1,.71.8c0.12,0.16.24,0.32,0.36,0.47l0.07,0.09a2.58,2.58,0,0,0,.47.48,0.87,0.87,0,0,0,.63.1,0.47,0.47,0,0,0,.33-0.26,1.71,1.71,0,0,0,.3-0.93,7.91,7.91,0,0,0-.32-1.55Z" transform="translate(-191.98 -340.34)"/>
  <path class="cls-1" d="M232,342.61a1.62,1.62,0,0,0-.54-1.6,2.17,2.17,0,0,0-1.52-.61h0l-0.66,0a6.27,6.27,0,0,1-1.37,0,1.35,1.35,0,0,0-.51,0l-0.13,0a0.42,0.42,0,0,0-.17.06,6.22,6.22,0,0,0-1.92-.09l-0.81,0-0.41,0-0.36,0-1.1,0-0.63,0H221a7.23,7.23,0,0,0-.87.07,0.73,0.73,0,0,0-.62.44,0.74,0.74,0,0,0,.16.75,2.14,2.14,0,0,0,.4.36l0.18,0.14,0.1,0.08a1.82,1.82,0,0,1,.74,1,6.12,6.12,0,0,1,0,2.46,1.52,1.52,0,0,0,0,.75,1.49,1.49,0,0,1,.06,1.06,0.85,0.85,0,0,0,0,.47,0.83,0.83,0,0,1,0,.1v3.43c0,0.51,0,1,0,1.54v0.43c0,0.5,0,1,.05,1.52a0.36,0.36,0,0,1-.11.38l-0.19.17c-0.33.3-.67,0.62-1,1a1.16,1.16,0,0,0-.31.88,0.87,0.87,0,0,0,.93.69h2.9c0.63,0,1.25,0,1.87,0a1,1,0,0,0,1.12-.64,0.89,0.89,0,0,0-.64-1.08l-0.07,0a5.09,5.09,0,0,1-.77-0.43,1.13,1.13,0,0,1-.61-1.26,2.5,2.5,0,0,0,0-.81c0-.08,0-0.16,0-0.25a1.12,1.12,0,0,1,.05-0.77,0.71,0.71,0,0,0,0-.53,2.51,2.51,0,0,1,.12-1.51c0.1-.31.18-0.32,0.27-0.33,0.74-.07,1.5-0.13,2.26-0.14a1,1,0,0,1,.84.48c0.08,0.14.18,0.27,0.28,0.4l0.21,0.31a0.88,0.88,0,0,0,.58.44,0.89,0.89,0,0,0,.7-0.21,1.46,1.46,0,0,0,.5-1.35v-0.15c0-.55,0-1.1-0.08-1.63,0-.2,0-0.41,0-0.61a0.89,0.89,0,0,0-.5-1.14,1,1,0,0,0-.86,0,1.13,1.13,0,0,0-.59.74,0.58,0.58,0,0,1-.49.48,15.9,15.9,0,0,1-1.79.13h-0.15a2.11,2.11,0,0,1-.65-0.08,1,1,0,0,1-.65-1.28,1.48,1.48,0,0,0,0-.48c0-.21,0-0.43-0.05-0.65s0-.54-0.06-0.81a0.9,0.9,0,0,1,0-.15,1.76,1.76,0,0,0,0-.25v-0.13a2.27,2.27,0,0,0,0-.63,1,1,0,0,1,.31-0.84,1,1,0,0,1,.71-0.35,7.1,7.1,0,0,0,1.61,0l0.61,0a2.33,2.33,0,0,1,2.22,1,6.51,6.51,0,0,0,1,1.09,0.86,0.86,0,0,0,.92.14,1,1,0,0,0,.41-0.8,3,3,0,0,1,0-.3,1.65,1.65,0,0,0-.18-1v-0.05" transform="translate(-191.98 -340.34)"/>
  <path class="cls-1" d="M259.8,343.46c-0.16-.49-0.33-1-0.44-1.51a1.91,1.91,0,0,0-2-1.55c-0.38,0-.77,0-1.15,0l-0.72,0-0.52,0c-0.27,0-.53,0-0.81,0s-0.46,0-.69,0a5.77,5.77,0,0,0-1.27,0,7.3,7.3,0,0,1-1.29,0,6.78,6.78,0,0,0-1.74.05,0.66,0.66,0,0,0-.18,0h-0.83l-1.41,0-0.22,0-0.22,0-0.37,0a2.47,2.47,0,0,0-1,0,2.39,2.39,0,0,0-1.66,2l0,0.12c0,0.2-.09.39-0.11,0.59a6.78,6.78,0,0,0-.07.78,1,1,0,0,0,.7.94,0.92,0.92,0,0,0,1.09-.41l0.27-.4a3.06,3.06,0,0,1,.6-0.75,3.26,3.26,0,0,1,2.46-.8h0.57a1.13,1.13,0,0,1,.85.31,1.18,1.18,0,0,1,.17.92,1.33,1.33,0,0,0,0,.57,3.75,3.75,0,0,1,.05,1.55,9.08,9.08,0,0,0-.05,1.22c0,0.34,0,.67,0,1s0,0.82,0,1.22,0,0.9,0,1.36,0,1,0,1.48c0,0.08,0,.17,0,0.26a1.47,1.47,0,0,1-.06.64,1,1,0,0,0,0,.57l0,0.1c0,0.08,0,.17.06,0.25a1,1,0,0,1,0,.25c0,0.23-.07.46-0.12,0.69s-0.06.3-.09,0.45a0.64,0.64,0,0,1-.31.47L249,356a8.4,8.4,0,0,0-.79.51,1,1,0,0,0-.44.91,1.07,1.07,0,0,0,.87.67c0.6,0,1.22.09,1.84,0.09,0.27,0,.54,0,0.81,0a12.56,12.56,0,0,1,1.82,0,3.88,3.88,0,0,0,1.3-.16,0.84,0.84,0,0,0,.6-0.63,0.89,0.89,0,0,0-.3-0.86,1.14,1.14,0,0,0-.45-0.22l-0.15-.05-0.21-.09a1.67,1.67,0,0,1-.24-0.1l-0.17-.27a2.25,2.25,0,0,1-.4-0.86,5.46,5.46,0,0,1,0-.8v-0.26c0-.49,0-1,0-1.47v-1.27c0-.33,0-0.67,0-1a0.88,0.88,0,0,1,0-.17,1.34,1.34,0,0,0,0-.39l0-.44a14.44,14.44,0,0,1-.07-2c0-.43,0-0.86,0-1.28s0-.57,0-0.85a12.36,12.36,0,0,1,.09-1.39,1.19,1.19,0,0,1,.93-1.05,5.82,5.82,0,0,1,2.21.19,2.55,2.55,0,0,1,1.5,1.34,1.31,1.31,0,0,0,.81.78,1.23,1.23,0,0,0,1-.25,0.81,0.81,0,0,0,.33-1Z" transform="translate(-191.98 -340.34)"/>
  <path class="cls-1" d="M335.47,353.65a1,1,0,0,0-1-.07,2.08,2.08,0,0,0-.74.86,2,2,0,0,1-.65.79l-0.19.14a2.37,2.37,0,0,0-.4.33,1,1,0,0,1-.77.3l-0.5,0c-0.49,0-1,0-1.47,0a5.62,5.62,0,0,1-1.36-.13,0.89,0.89,0,0,1-.78-1.19,2.15,2.15,0,0,0,0-.63c0-.09,0-0.17,0-0.26s0-.37,0-0.55a4.09,4.09,0,0,1,0-1.14,5.29,5.29,0,0,0,0-1.33,6,6,0,0,1,0-.86,7.68,7.68,0,0,0,0-.92c0-.21,0-0.42,0-0.64s0-.72.05-1.08,0-.75.05-1.12a7,7,0,0,0,0-.72c0-.13,0-0.26,0-0.39l0-.39c0-.42,0-0.86,0-1.28a0.57,0.57,0,0,1,.13-0.34,7.59,7.59,0,0,1,.78-0.57l0.43-.29a0.82,0.82,0,0,0,.34-0.37,1,1,0,0,0,.14-0.78,1,1,0,0,0-.77-0.62,5.56,5.56,0,0,0-.89,0l-0.4,0c-0.22,0-.44,0-0.65,0l-0.11,0a1.46,1.46,0,0,0-.27,0H324a0.33,0.33,0,0,0-.17,0,1.32,1.32,0,0,0-.31.05,1,1,0,0,0-.71.59,1,1,0,0,0,.26.87,3.32,3.32,0,0,0,.68.62,0.76,0.76,0,0,1,.38.59c0,0.48,0,1,0,1.43s0,0.76,0,1.13a5.75,5.75,0,0,1,0,.72,5,5,0,0,0,0,1.18,8.45,8.45,0,0,1,0,1.73l0,0.47a8.33,8.33,0,0,0,0,.84,4.31,4.31,0,0,1-.06,1.3,0.75,0.75,0,0,0,0,.36l0,0.24c0,0.21,0,.41,0,0.62s0,0.33,0,.5a5.22,5.22,0,0,0,0,1,1.58,1.58,0,0,1-.73,1.58,3.1,3.1,0,0,0-.56.61l-0.07.09a0.65,0.65,0,0,0-.14.51,0.71,0.71,0,0,0,.34.48,1.5,1.5,0,0,0,.84.26,1.56,1.56,0,0,0,.4-0.05,3.7,3.7,0,0,1,1.66,0,2.88,2.88,0,0,0,.81,0l0.32,0c0.21,0,.42,0,0.62,0l0.2,0,0.35,0,0.92,0c0.43,0,.86,0,1.29,0l2,0,1.66,0a0.85,0.85,0,0,0,.51-0.19,2.56,2.56,0,0,0,1-1.72c0.09-.5.19-1,0.29-1.51a1,1,0,0,0-.46-1.09" transform="translate(-191.98 -340.34)"/>
  <path class="cls-1" d="M352.48,342.32A1,1,0,0,0,353,342a0.81,0.81,0,0,0,.27-0.74,1.08,1.08,0,0,0-.65-0.64,2.08,2.08,0,0,0-1.08-.09,2.44,2.44,0,0,1-.86,0,6.15,6.15,0,0,0-.62,0h-2a1.26,1.26,0,0,0-.6.19,0.87,0.87,0,0,0-.49.78,0.82,0.82,0,0,0,.53.69,2.25,2.25,0,0,1,.93,2.22,1.91,1.91,0,0,0,0,.6c0,0.07,0,.14,0,0.21v2.29c0,0.32,0,.64,0,1,0,0.12,0,.24,0,0.37a4.27,4.27,0,0,1,0,.47c0,0.23,0,.46-0.05.69s-0.05.56-.06,0.85a6.22,6.22,0,0,0,.06.95,3.43,3.43,0,0,1,0,1.36,2.57,2.57,0,0,0,0,1.1c0,0.13,0,.26.05,0.39a1.58,1.58,0,0,1-.74,1.68,1.44,1.44,0,0,0-.46.44,0.85,0.85,0,0,0-.23.81,1.05,1.05,0,0,0,.82.54c1.05,0.08,1.93.12,2.75,0.12h0a8.29,8.29,0,0,0,1.08-.09l0.39,0a0.77,0.77,0,0,0,1-.43,0.92,0.92,0,0,0-.28-1.11l-0.36-.35-0.28-.28a0.83,0.83,0,0,1-.3-0.63v-2.45c0-.09,0-0.18,0-0.27s0-.27,0-0.4l0-1c0-.63,0-1.26,0-1.89,0-.29,0-0.58,0-0.87s0-.58,0-0.87,0-.52,0-0.77,0-.54,0-0.8c0-.8,0-1.72.1-2.59a0.92,0.92,0,0,1,.61-0.95" transform="translate(-191.98 -340.34)"/>
</svg>
