<svg id="Layer_1" data-name="Layer 1" xmlns="http://www.w3.org/2000/svg" viewBox="0 0 131.69 240.27">
  <defs>
    <style>
      .cls-1 {
        fill: #fff;
      }
    </style>
  </defs>
  <title>afterlife-logo</title>
  <path class="cls-1" d="M363.45,215.24a0.51,0.51,0,0,1-.13-0.49c0-.26,0-0.52,0-0.78a0.39,0.39,0,0,0-.33-0.35,0.58,0.58,0,0,0-.55.17,2.8,2.8,0,0,0-.6.77,1.32,1.32,0,0,0-.33.48c-0.09.1-.19,0.18-0.27,0.28a3,3,0,0,1-.17.31,2.44,2.44,0,0,0-.29.43,1.41,1.41,0,0,1-.26.45,1.31,1.31,0,0,0-.28.42c-0.06.12,0,.33-0.27,0.26a1.17,1.17,0,0,1-.22.38,2.26,2.26,0,0,0-.28.43,1.68,1.68,0,0,1-.61.75,0.16,0.16,0,0,1-.15,0,0.89,0.89,0,0,1-.21-0.22,0.87,0.87,0,0,0,.14-0.16,1.07,1.07,0,0,1,.32-0.49,1.21,1.21,0,0,1,.36-0.63c0.22-.16.24-0.44,0.44-0.6a1.93,1.93,0,0,0,.45-0.67,1.62,1.62,0,0,1,.38-0.62,0.32,0.32,0,0,0,.09-0.27,0.31,0.31,0,0,1,.07-0.2,1.28,1.28,0,0,0,.38-0.62,4.23,4.23,0,0,0,.31-0.41,1.51,1.51,0,0,0,.19-0.47,0.16,0.16,0,0,1,.05-0.05c0.11-.11.23-0.21,0.33-0.33a1.27,1.27,0,0,1,.22-0.38c0.28-.18.33-0.56,0.61-0.76a1.46,1.46,0,0,1,.16-0.4,0.47,0.47,0,0,1,.22-0.46,0.23,0.23,0,0,0,.09-0.12c0-.31,0-0.62,0-0.93a0.69,0.69,0,0,1-.14-0.64,3.67,3.67,0,0,1,0-.78,1.39,1.39,0,0,0-.2-0.78,0.56,0.56,0,0,1-.12-0.27c0-.26,0-0.52,0-0.78a1.62,1.62,0,0,0-.05-0.83,1.57,1.57,0,0,1-.1-0.74,0.37,0.37,0,0,0-.06-0.21,1.71,1.71,0,0,1-.16-0.48,0.8,0.8,0,0,1-.09-0.58,0.69,0.69,0,0,0,0-.3,0.67,0.67,0,0,1-.12-0.65,0.69,0.69,0,0,0-.25-0.53,0.53,0.53,0,0,0-.57-0.13,0.42,0.42,0,0,0-.29.31,7.26,7.26,0,0,0-.66,1.52,0.75,0.75,0,0,0-.12.41,0.61,0.61,0,0,0-.15.49,0.39,0.39,0,0,1-.12.42c0,0.23-.18.42-0.17,0.62a2.24,2.24,0,0,1-.21.7,2.14,2.14,0,0,0-.11.19,0.59,0.59,0,0,1-.16.56,0.79,0.79,0,0,1-.06.52,0.69,0.69,0,0,0-.09.51,0.52,0.52,0,0,1,0,.22,0.41,0.41,0,0,0-.14.41,0.59,0.59,0,0,1-.12.34,1.24,1.24,0,0,0,0,.45,0.08,0.08,0,0,1,0,.06,1.15,1.15,0,0,0-.21.54c-0.14.15-.17,0.4-0.3,0.57a0.84,0.84,0,0,1-.21.38,0.73,0.73,0,0,0-.27.43,2.94,2.94,0,0,1-.72,1,6.81,6.81,0,0,0-.55.55,1.13,1.13,0,0,0-.22.3,2.07,2.07,0,0,1-.81.76,0.24,0.24,0,0,0-.11.09,0.53,0.53,0,0,1-.23.38,1.32,1.32,0,0,0-.23.45,0.72,0.72,0,0,0-.17.4,1.09,1.09,0,0,1-.15.4,0.6,0.6,0,0,1-.15.25,0.9,0.9,0,0,1-.07.52,0.84,0.84,0,0,0-.09.59c0,0.2,0,.41,0,0.61a0.56,0.56,0,0,0-.13.57c0,0.29,0,.57,0,0.86a1,1,0,0,1-.2.46,0.44,0.44,0,0,1-.29,0,0.39,0.39,0,0,1-.39-0.6,0.61,0.61,0,0,0,.09-0.19c0-.47,0-0.93,0-1.4a0.15,0.15,0,0,0-.07-0.12,0.46,0.46,0,0,0-.3,0c-0.25.22-.49,0.46-0.72,0.7a0.23,0.23,0,0,0,0,.15,0.37,0.37,0,0,1-.11.27c-0.09.14-.13,0.31-0.21,0.46a1.57,1.57,0,0,1-.3.49c-0.15.13-.12,0.32-0.26,0.45s-0.05.2-.12,0.26-0.21.35-.34,0.48a2,2,0,0,0-.28.59,0.9,0.9,0,0,1-.26.44,0.31,0.31,0,0,0-.15.33,0.25,0.25,0,0,1-.07.2,1.24,1.24,0,0,0-.33.49c-0.05.11-.11,0.22-0.17,0.32a0.76,0.76,0,0,1-.22.38,0.54,0.54,0,0,0-.18.31c0,0.11-.21.17-0.26,0.28a0.77,0.77,0,0,1-.17.32,0.79,0.79,0,0,0-.3.33,1.25,1.25,0,0,0-.19.47,3.63,3.63,0,0,1-.66,1,0.55,0.55,0,0,0-.11.26,8,8,0,0,0-.46.9,0.78,0.78,0,0,0-.15.41,1.49,1.49,0,0,0-.16.4,1.3,1.3,0,0,0-.18.31,1,1,0,0,0-.14.42,1.59,1.59,0,0,1-.29.5c-0.28.35-.36,0.79-0.63,1.14a0.9,0.9,0,0,1-.14.48,1.37,1.37,0,0,0,0,.54c0,0.22-.22.33-0.17,0.56a0.57,0.57,0,0,1,0,.44,1.8,1.8,0,0,0-.11.42,2.16,2.16,0,0,0-.2.39,5.91,5.91,0,0,1-.34.64,1.32,1.32,0,0,1-.21.69,2,2,0,0,0,0,.46,1.4,1.4,0,0,1-.16.4,1.79,1.79,0,0,0,0,.39,1.68,1.68,0,0,1-.16.4,0.37,0.37,0,0,1-.12.34,0.74,0.74,0,0,0-.37.63,1.82,1.82,0,0,0-.3.49l-0.39.39a2,2,0,0,0-.66.46,2.18,2.18,0,0,0-.69.59,1.61,1.61,0,0,1-.4.34,0.31,0.31,0,0,0-.21.25c-0.09.17-.25,0.28-0.34,0.48a2,2,0,0,1-.48.5l-0.83.83a0.65,0.65,0,0,0-.21.22,2.31,2.31,0,0,1-.48.82,3.11,3.11,0,0,0-.32.57,0.31,0.31,0,0,1-.1.11,1.38,1.38,0,0,1-.22.22,1.13,1.13,0,0,0-.43.28,0.93,0.93,0,0,1-.48.33,0.71,0.71,0,0,0-.26.11c-0.06.06-.06,0.19-0.12,0.26a3.27,3.27,0,0,0-.45.59,3,3,0,0,1-.59.62,0.35,0.35,0,0,0-.13.18,2.85,2.85,0,0,1-.32.49,0.92,0.92,0,0,1-.38.46c-0.17.19-.37,0.37-0.55,0.55a0.62,0.62,0,0,0-.17.24,1.43,1.43,0,0,1-.49.73,0.35,0.35,0,0,0-.12.34,0.19,0.19,0,0,1,0,.14,0.59,0.59,0,0,0-.12.26,1.19,1.19,0,0,0-.16.32,0.89,0.89,0,0,1-.21.22c-0.07.1-.1,0.22-0.17,0.32a0.72,0.72,0,0,1-.22.22,3.26,3.26,0,0,0-.27.44,4.66,4.66,0,0,1-.45.75,1.14,1.14,0,0,0-.38.54l-0.55.55a2.2,2.2,0,0,1-.39.38,2,2,0,0,0-.48.34c-0.32.34-.66,0.66-1,1a0.61,0.61,0,0,0-.22.29c0,0.25-.3.11-0.31,0.25a0.65,0.65,0,0,1-.29.43,5,5,0,0,1-.45.43,2,2,0,0,1-.19.07,0.62,0.62,0,0,1-.28.43c-0.08.1-.06,0.23-0.15,0.33a1.15,1.15,0,0,1-.23.36,3.08,3.08,0,0,0-.22.38c-0.32.22-.4,0.65-0.72,0.87a0.27,0.27,0,0,0-.11.11,0.67,0.67,0,0,1-.69.57,0.28,0.28,0,0,0-.17.14,1,1,0,0,1-.38.22c-0.12.1-.22,0.22-0.34,0.32a0.32,0.32,0,0,1-.2.08,0.41,0.41,0,0,0-.34.14,1.93,1.93,0,0,1-.7.56,1.68,1.68,0,0,1-.37.25,1.13,1.13,0,0,0-.44.24,0.93,0.93,0,0,1-.44.06,0.36,0.36,0,0,0-.19.1,2.05,2.05,0,0,1-.56.35,1.09,1.09,0,0,0-.25.14,0.42,0.42,0,0,1-.39.19,5.62,5.62,0,0,0-.62,0h-0.7a0.72,0.72,0,0,1-.56.16,0.65,0.65,0,0,1-.71-0.34,1.78,1.78,0,0,0-.34-0.48,0.11,0.11,0,0,1,0-.06,2,2,0,0,0-.16-0.4,8.7,8.7,0,0,0-.46-0.82,1.57,1.57,0,0,0-.55-0.71,0.1,0.1,0,0,0-.07,0,0.39,0.39,0,0,1-.4-0.16,0.46,0.46,0,0,1-.37-0.22,0.41,0.41,0,0,0-.2-0.08h-1a0.32,0.32,0,0,0-.2.08,1.16,1.16,0,0,0-.54.22,1.77,1.77,0,0,0-.63.17,0.3,0.3,0,0,0-.21.05,0.66,0.66,0,0,1-.59.27,1.29,1.29,0,0,1-.38.22,1.26,1.26,0,0,0-.37.22,1.66,1.66,0,0,1-.37.23,5.76,5.76,0,0,1-.55.38c-0.29,0-.35.37-0.64,0.34-0.21.18-.49,0.22-0.69,0.39a2.07,2.07,0,0,1-.7.4,0.36,0.36,0,0,0-.12.09l-0.39.37a1.52,1.52,0,0,0-.49.3,1.8,1.8,0,0,0-.42.3,0.47,0.47,0,0,0-.31.18,0.66,0.66,0,0,1-.38.21,2.14,2.14,0,0,1-1,.41,7.23,7.23,0,0,0-.87.54c-0.17.2-.36,0.37-0.55,0.55-0.38,0-.43.51-0.81,0.5l-0.72.72-0.27.28a1.87,1.87,0,0,0-.27.28c-0.06.1-.1,0.22-0.16,0.33s-0.07.28-.28,0.27a1.64,1.64,0,0,0-.11.25,0.39,0.39,0,0,1-.69,0,1.31,1.31,0,0,1-.19-0.39c0-.14-0.16-0.2-0.17-0.32a0.59,0.59,0,0,1,.25-0.36,1.22,1.22,0,0,1,.22-0.38,0.72,0.72,0,0,0,.34-0.48,0.25,0.25,0,0,1,.16-0.16,3.84,3.84,0,0,0,.66-0.48,2.55,2.55,0,0,0,.64-0.51,0.41,0.41,0,0,1,.11-0.1,0.8,0.8,0,0,0,.53-0.4,5.68,5.68,0,0,1,.61-0.43,0.73,0.73,0,0,1,.42-0.31,0.94,0.94,0,0,0,.34-0.3c0.21,0.08.27-.24,0.48-0.16a1,1,0,0,1,.38-0.22,0.76,0.76,0,0,1,.29-0.23,0.81,0.81,0,0,0,.36-0.27,0.48,0.48,0,0,1,.38-0.22c0.2-.27.57-0.33,0.76-0.61a1.59,1.59,0,0,0,.76-0.61,2.58,2.58,0,0,1,.38-0.22c0.19-.12.38-0.23,0.56-0.36a2.26,2.26,0,0,1,.57-0.29,0.13,0.13,0,0,0,.06-0.05c0.1-.2.38-0.14,0.49-0.33a1.27,1.27,0,0,0,.56-0.15,1.23,1.23,0,0,0,.66-0.3,1.22,1.22,0,0,1,.72-0.33,0.82,0.82,0,0,1,.4-0.16,5,5,0,0,1,1.18-.72,0.85,0.85,0,0,0,.48-0.16,10.81,10.81,0,0,0,1-.52c0.14-.08.32-0.11,0.46-0.2s0.21-.23.34-0.32a0.49,0.49,0,0,0,.18-0.48,3.28,3.28,0,0,0,0-.47,2.88,2.88,0,0,1,.16-0.4,3.17,3.17,0,0,1,.17-0.56c0-.26,0-0.52,0-0.78a0.86,0.86,0,0,0,.15-0.72,0.11,0.11,0,0,1,0-.07,0.55,0.55,0,0,0,.13-0.57c0-.44,0-0.88,0-1.33a1.93,1.93,0,0,1,0-.39c0-.09.13-0.16,0.14-0.25a0.9,0.9,0,0,1,.14-0.42,1,1,0,0,1,.18-0.62,0.68,0.68,0,0,1,.16-0.64,1.3,1.3,0,0,1,.07-0.67,1.18,1.18,0,0,0,.08-0.74c0-.52,0-1,0-1.56a0.52,0.52,0,0,1,0-.3,0.74,0.74,0,0,0,.12-0.65c0-.11-0.14-0.22-0.14-0.33a1.89,1.89,0,0,1,.14-0.33,0.25,0.25,0,0,0-.1-0.19c-0.06-.05-0.06-0.07,0-0.12a0.21,0.21,0,0,0,0-.32,0.34,0.34,0,0,1,0-.47,0.13,0.13,0,0,0,0-.17,0.35,0.35,0,0,1-.07-0.2c0-.26,0-0.52,0-0.78V241a3.87,3.87,0,0,1,0-.78,6,6,0,0,0-.17-0.72,5,5,0,0,0,0-.62,4.8,4.8,0,0,1,0-.7,1.2,1.2,0,0,0-.16-0.56,2.23,2.23,0,0,0-.11-0.82,1.6,1.6,0,0,1-.05-0.83,0.64,0.64,0,0,0-.12-0.27,2.28,2.28,0,0,1,0-.37c0-.14-0.12-0.27-0.15-0.41a1.08,1.08,0,0,1,0-.46c0.06-.22-0.21-0.29-0.16-0.48a1.25,1.25,0,0,0-.21-0.69,0.75,0.75,0,0,1-.1-0.19,0.7,0.7,0,0,0-.17-0.48,1.77,1.77,0,0,0-.3-0.42,1.19,1.19,0,0,0-.15-0.56,0.81,0.81,0,0,1-.21-0.54c-0.17-.24-0.25-0.52-0.41-0.77s-0.23-.53-0.37-0.78a0.35,0.35,0,0,1-.1-0.27,0.73,0.73,0,0,0-.16-0.56,0.79,0.79,0,0,1-.16-0.56,0.18,0.18,0,0,0,0-.14c-0.25-.12,0-0.47-0.27-0.59a1.27,1.27,0,0,0-.17-0.55,1.73,1.73,0,0,0-.06-0.59,1.08,1.08,0,0,1-.1-0.66,0.28,0.28,0,0,0,0-.08,0.55,0.55,0,0,1-.15-0.56,2.25,2.25,0,0,1,0-.62,1.4,1.4,0,0,0,.15-0.56,6.06,6.06,0,0,1,0-.7v-0.62q0-2.73,0-5.45a0.46,0.46,0,0,1,.13-0.49q0-.34,0-0.68a0.48,0.48,0,0,1-.13-0.49,1,1,0,0,1,0-.31,2.65,2.65,0,0,0,.14-0.33c0-.23,0-0.47,0-0.7v-0.62a0.58,0.58,0,0,0,.15-0.64,1.06,1.06,0,0,1,.16-0.56,0.65,0.65,0,0,0,.15-0.48,3.87,3.87,0,0,1,.17-0.56,0.59,0.59,0,0,1,0-.44,0.58,0.58,0,0,0,.11-0.43c0-.16,0-0.31,0-0.47a0.8,0.8,0,0,1,.09-0.12,0.59,0.59,0,0,0,0-.63c-0.09-.11-0.07-0.12,0-0.26a0.42,0.42,0,0,0,.09-0.19,8.42,8.42,0,0,1,.18-0.86,1.23,1.23,0,0,0,.22-0.54,0.64,0.64,0,0,0,.06-0.59,4.1,4.1,0,0,0,.17-0.64,0.15,0.15,0,0,1,0-.13,0.35,0.35,0,0,0,.11-0.35,0.93,0.93,0,0,0,.16-0.4,0.55,0.55,0,0,1,.15-0.33c0-.13,0-0.26,0-0.39a0.37,0.37,0,0,1,.13-0.18,0.42,0.42,0,0,0,.18-0.4c0-.13,0-0.26,0-0.39a2.54,2.54,0,0,1,.15-0.4,2.66,2.66,0,0,1,.15-0.48,0.77,0.77,0,0,1,.18-0.48,1.08,1.08,0,0,0,.15-0.56,0.42,0.42,0,0,1,0-.29,1,1,0,0,0,.13-0.73,1.36,1.36,0,0,1-.15-0.95,0.79,0.79,0,0,0,0-.16s-0.08-.07-0.09-0.12a1.87,1.87,0,0,0-.61-0.75,0.23,0.23,0,0,0-.15,0,0.11,0.11,0,0,0-.05.05,0.13,0.13,0,0,0,0,.07q0,0.35,0,.7v0.78a0.67,0.67,0,0,0-.15.64,0.73,0.73,0,0,1-.15.33,1.85,1.85,0,0,0,0,.46,0.67,0.67,0,0,1-.1.11,0.8,0.8,0,0,1-.22.38,1,1,0,0,1-.37.24,0.37,0.37,0,0,0-.24.43,0.37,0.37,0,0,1,0,.29,0.66,0.66,0,0,0-.27.59,1.74,1.74,0,0,0-.22.37c-0.12.09,0,.4-0.32,0.32l-0.23.53a0.49,0.49,0,0,1-.05.21,0.68,0.68,0,0,1-.71.35,1.45,1.45,0,0,0-.31,0,0.19,0.19,0,0,1-.13,0A2,2,0,0,0,312,205a0.1,0.1,0,0,1,0-.17,1.11,1.11,0,0,1,.22-0.53,0.7,0.7,0,0,1,.16-0.63l-0.14-.16a0.58,0.58,0,0,0,.13-0.64,6.67,6.67,0,0,1,.2-0.94,1.36,1.36,0,0,0,.21-0.54,0.78,0.78,0,0,0,.06-0.59,6.3,6.3,0,0,0,0-.7,0.37,0.37,0,0,0-.05-0.21,0.39,0.39,0,0,1,0-.54,0.56,0.56,0,0,0-.12-0.3,1.17,1.17,0,0,0-.14-0.88c-0.07-.08.07-0.17,0.14-0.25a0.52,0.52,0,0,1-.15-0.48,3,3,0,0,1,0-.47c0-.19-0.2-0.25-0.16-0.4a2.68,2.68,0,0,0-.15-0.48c0.05-.23-0.21-0.34-0.17-0.56a0.62,0.62,0,0,0-.29-0.42,0.18,0.18,0,0,1,0-.15c0.09-.21-0.25-0.28-0.16-0.48a0.94,0.94,0,0,1-.22-0.37,1.43,1.43,0,0,0-.28-0.27c-0.15-.1-0.08-0.29-0.22-0.38a11.43,11.43,0,0,1-.82-1.15c-0.1-.08,0-0.27-0.11-0.42s-0.29-.61-0.46-0.9a0.41,0.41,0,0,1-.08-0.28,0.29,0.29,0,0,1,.08-0.19,0.22,0.22,0,0,1,.2,0c0.35,0.34.69,0.71,1.06,1a2.4,2.4,0,0,1,.32.5,2,2,0,0,0,.22.38,1.33,1.33,0,0,1,.51.65,0.25,0.25,0,0,0,.16.16,0.75,0.75,0,0,1,.48.34,0.42,0.42,0,0,0,.4.16,0.33,0.33,0,0,1,.24.17,0.37,0.37,0,0,0,.25.14l1.32,0,0.72-.72,0.11-.11a0.1,0.1,0,0,0,0-.07c-0.07-.27.25-0.43,0.17-0.72a0.39,0.39,0,0,1,.09-0.43,0.47,0.47,0,0,0,0-.36c0-.18.19-0.24,0.16-0.4a0.51,0.51,0,0,0,0-.22,0.44,0.44,0,0,1-.13-0.42c0-.93,0-1.87,0-2.8a0.46,0.46,0,0,0-.14-0.49,1,1,0,0,1,.07-0.58,1.17,1.17,0,0,0,0-.94,1.06,1.06,0,0,1-.05-0.21,0.29,0.29,0,0,1,.11-0.27c0.1-.11-0.14-0.16-0.08-0.21a0.47,0.47,0,0,0,.13-0.42,1.37,1.37,0,0,1,.15-0.88,0.33,0.33,0,0,0,0-.28,0.42,0.42,0,0,1-.11-0.27c0-.23,0-0.47,0-0.7a0.82,0.82,0,0,0-.1-0.19,0.4,0.4,0,0,1,0-.2,0.47,0.47,0,0,0,.14-0.49,1.19,1.19,0,0,0-.14-0.8,0.91,0.91,0,0,1,0-.45c-0.25-.13,0-0.23,0-0.35a0.39,0.39,0,0,0-.15-0.4,4.4,4.4,0,0,1,0-.7c0-.25-0.19-0.39-0.17-0.64a12.44,12.44,0,0,0,0-1.32,0.54,0.54,0,0,1,.16-0.48,0.66,0.66,0,0,1,.15-0.48,0.74,0.74,0,0,1,.08-0.35c0.17-.14-0.1-0.17-0.08-0.29a4,4,0,0,0,0-.54c-0.32-.19,0-0.62-0.31-0.8a1.28,1.28,0,0,0-.07-0.67,1,1,0,0,1-.08-0.67c0-1.09,0-2.18,0-3.27a0.75,0.75,0,0,1,.11-0.51,0.82,0.82,0,0,0-.09-0.78,1.71,1.71,0,0,0-.18-0.63,0.93,0.93,0,0,0-.15-0.79l0.15-.16a6.4,6.4,0,0,1-.27-0.59,1.92,1.92,0,0,1-.18-0.55,3.22,3.22,0,0,0-.17-0.64,0.48,0.48,0,0,0-.15-0.56,0.81,0.81,0,0,0-.06-0.52,0.86,0.86,0,0,1-.09-0.59,0.82,0.82,0,0,0,0-.3,0.44,0.44,0,0,1-.13-0.49,1.51,1.51,0,0,0-.16-0.56c0-.28,0-0.57,0-0.86a5.08,5.08,0,0,1,0-.85,7.55,7.55,0,0,0-.18-0.8c0-.41,0-0.83,0-1.25a0.29,0.29,0,0,1,0-.15c0.1-.12.19-0.21,0-0.35a0.3,0.3,0,0,1,0-.29,0.54,0.54,0,0,0,.15-0.49c0-1.14,0-2.29,0-3.43a1.19,1.19,0,0,0-.15-0.95,1.08,1.08,0,0,0-.15-0.8,0.3,0.3,0,0,1,.08-0.19,0.2,0.2,0,0,0,0-.27,0.41,0.41,0,0,1-.11-0.18,1.34,1.34,0,0,0-.27-0.83,1.06,1.06,0,0,0-.2-0.55,0.35,0.35,0,0,1,.07-0.19,0.2,0.2,0,0,0,0-.27A0.5,0.5,0,0,1,313,149a3.52,3.52,0,0,0,0-.69,2,2,0,0,1-.15-0.64,0.58,0.58,0,0,0-.09-0.51,1,1,0,0,1-.07-0.52s-0.1-.07-0.1-0.11a4,4,0,0,0-.2-0.62,1.29,1.29,0,0,0-.13-0.65,1.22,1.22,0,0,0-.18-0.62c0.15-.12.08-0.2,0-0.34a0.88,0.88,0,0,1,0-.54,2.82,2.82,0,0,0-.17-0.56,1,1,0,0,0-.14-0.8c-0.08-.1,0-0.34-0.05-0.44a0.58,0.58,0,0,1-.12-0.42c0-.16,0-0.31,0-0.47V139.4a0.6,0.6,0,0,0,0-.3,1.54,1.54,0,0,1-.14-1.11c0-1.61,0-3.22,0-4.83s0-3.43,0-5.14a0.83,0.83,0,0,0-.15-0.79c0-.18,0-0.36,0-0.55a1.11,1.11,0,0,1-.16-0.48,0.41,0.41,0,0,0-.1-0.35,1.28,1.28,0,0,0-.2-0.54,1.35,1.35,0,0,0-.14-0.8,0.7,0.7,0,0,1,0-.46,1.29,1.29,0,0,0-.15-0.48,5.63,5.63,0,0,1,0-.7,0.73,0.73,0,0,1-.15-0.69,0.5,0.5,0,0,0-.15-0.25,0.17,0.17,0,0,1,0-.15,0.54,0.54,0,0,0,0-.81q0-.31,0-0.62a0.7,0.7,0,0,1-.14-0.64,0.75,0.75,0,0,0-.12-0.42,1.2,1.2,0,0,1-.07-0.51,0.12,0.12,0,0,0-.05-0.05c-0.1-.07,0-0.11,0-0.17s0.11-.18,0-0.26a3.47,3.47,0,0,0-.21-0.55,0.38,0.38,0,0,1,0-.21,1.3,1.3,0,0,0-.07-0.67,1.3,1.3,0,0,1-.08-0.67,0.1,0.1,0,0,0,0-.07,0.52,0.52,0,0,1-.12-0.57,2.68,2.68,0,0,1-.17-0.56c0-.12,0-0.26,0-0.39a1.17,1.17,0,0,0-.16-0.4,0.35,0.35,0,0,0-.11-0.35,0.48,0.48,0,0,1-.21-0.46,0.78,0.78,0,0,0-.15-0.71l0-.61a0.55,0.55,0,0,1-.12-0.57,0.79,0.79,0,0,0-.14-0.34,0.65,0.65,0,0,0-.18-0.47c0-.13,0-0.26,0-0.39a0.56,0.56,0,0,0-.15-0.56,0.67,0.67,0,0,0-.12-0.57c0-.2,0-0.4,0-0.61,0-.36,0-0.73,0-1.09a0.37,0.37,0,0,0-.13-0.34,0.23,0.23,0,0,1,0-.14c0-.1.18-0.12,0.11-0.23a0.53,0.53,0,0,1-.12-0.27,0.89,0.89,0,0,0-.15-0.79c0-.18,0-0.36,0-0.54a4.4,4.4,0,0,1-.17-0.48,1.28,1.28,0,0,0-.14-1c0-.34,0-0.67,0-1a0.66,0.66,0,0,0,0-.37,0.55,0.55,0,0,1-.12-0.5,1.88,1.88,0,0,1-.17-0.48,1.75,1.75,0,0,0-.14-0.32,5.37,5.37,0,0,1,0-.62,4.5,4.5,0,0,1,0-.54,5.77,5.77,0,0,0-.17-0.56,0.93,0.93,0,0,0-.14-0.87,1.3,1.3,0,0,0-.07-0.67,1.37,1.37,0,0,1-.08-0.74c0-.15,0-0.31,0-0.46a1.46,1.46,0,0,1-.22-0.53,1.64,1.64,0,0,0-.22-0.54,0.6,0.6,0,0,1,0-.3,0.38,0.38,0,0,0,0-.15,2,2,0,0,1-.26-0.6,1.07,1.07,0,0,0-.17-0.47c0-.13,0-0.25,0-0.38s0-.41,0-0.61a0.57,0.57,0,0,1-.13-0.57c0-.21,0-0.42,0-0.62a1.87,1.87,0,0,1-.15-1.18,2.43,2.43,0,0,1,0-.47,0.56,0.56,0,0,1,.15-0.56A0.75,0.75,0,0,0,305,89a0.85,0.85,0,0,1-.1-0.58,0.36,0.36,0,0,0,.15-0.33c0-.21,0-0.41,0-0.62a2.86,2.86,0,0,0,0-.62,1.54,1.54,0,0,1,.16-0.56,3.58,3.58,0,0,0,0-.85,2.54,2.54,0,0,1,.17-0.79,2.21,2.21,0,0,1,.15-1.26c0-.41,0-0.83,0-1.25a0.54,0.54,0,0,0-.09-0.19,1.76,1.76,0,0,1-.06-0.68,1.75,1.75,0,0,0,.22-0.37,2.49,2.49,0,0,0,.4-0.62,0.69,0.69,0,0,1,.16-0.48,1,1,0,0,0,.16-0.56,3.58,3.58,0,0,1,0-.62,1.13,1.13,0,0,1-.15-0.95c0-.39,0-0.78,0-1.17a0.4,0.4,0,0,0,0-.22,0.85,0.85,0,0,1-.14-0.72c0-.23,0-0.47,0-0.7a1,1,0,0,0-.15-0.79c0-.29,0-0.57,0-0.86a0.09,0.09,0,0,0,0-.07,0.33,0.33,0,0,1-.12-0.41,2.6,2.6,0,0,0-.17-0.48,1.5,1.5,0,0,0-.26-0.59c-0.24-.24-0.49-0.46-0.71-0.72s-0.36-.16-0.5-0.32a0.23,0.23,0,0,0-.2,0,0.36,0.36,0,0,0-.1.58,0.21,0.21,0,0,1,0,.32c-0.06,0-.07.07,0,0.11a0.23,0.23,0,0,1,.1.11c0,0.47,0,.93,0,1.4a0.33,0.33,0,0,1-.19.07,0.14,0.14,0,0,1-.1-0.09c0-.29,0-0.57,0-0.86a1.53,1.53,0,0,1-.14-1.1c0-.21-0.19-0.29-0.17-0.48s0-.41,0-0.62a0.14,0.14,0,0,0,0-.07,1.24,1.24,0,0,1-.29-0.74,1.64,1.64,0,0,1-.24-0.12,1.26,1.26,0,0,0-.34-0.48,1.12,1.12,0,0,1-.34-0.71l-0.32-.57a0.33,0.33,0,0,1-.15-0.33,0.2,0.2,0,0,0,0-.15,0.91,0.91,0,0,1-.33-0.49,0.21,0.21,0,0,0-.11-0.11,0.4,0.4,0,0,0-.2-0.09c-0.15,0-.13.12-0.13,0.22s0,0.42,0,.62a0.31,0.31,0,0,0,.11.27,0.38,0.38,0,0,1,.21.38c0,0.19.22,0.27,0.16,0.48a1.16,1.16,0,0,0,0,.54,2,2,0,0,0,.24.45,0.53,0.53,0,0,1,.06.13,1.39,1.39,0,0,0,.09.66,1.5,1.5,0,0,1,.06.75,0.22,0.22,0,0,1,0,.08,0.46,0.46,0,0,1-.06.36,1,1,0,0,1-.26.11,0.38,0.38,0,0,1-.2.06,1.49,1.49,0,0,1-.26-0.27,0.15,0.15,0,0,1,0-.08c0-.29,0-0.57,0-0.86a1.17,1.17,0,0,1,.13-0.88,1.14,1.14,0,0,0-.07-0.11c-0.08-.15-0.1-0.18,0-0.26a0.5,0.5,0,0,0,.1-0.43c-0.25-.22-0.24-0.59-0.49-0.81a3.83,3.83,0,0,1-.39-0.69,0.91,0.91,0,0,1-.05-0.45A0.3,0.3,0,0,0,300,66.4c-0.2,0-.28-0.22-0.47-0.18a0.44,0.44,0,0,0-.21,0,0.39,0.39,0,0,1-.35.11,0.21,0.21,0,0,0-.13.05,2.2,2.2,0,0,0-.19.55,0.34,0.34,0,0,1,0,.29c-0.22.15,0,.49-0.27,0.6a2.9,2.9,0,0,0,0,.54,3.09,3.09,0,0,1-.18.55c-0.25.16-.27,0.48-0.5,0.65a0.31,0.31,0,0,0-.12.27,0.84,0.84,0,0,1,0,.52,0.4,0.4,0,0,0,0,.54,3.64,3.64,0,0,1-.11.38c0,0.17,0,.37,0,0.54s-0.23.33-.17,0.56a1.92,1.92,0,0,0-.15.48c-0.1.17-.16,0.35-0.26,0.52s-0.13.26-.2,0.39a1.38,1.38,0,0,1-.08.51,0.85,0.85,0,0,0-.08.59,0.42,0.42,0,0,1-.14.41,0.39,0.39,0,0,0,.07.11c0.06,0,.07.08,0,0.11s-0.09.13,0,.23a1,1,0,0,0,.21.53,3.79,3.79,0,0,1,0,.54,0.82,0.82,0,0,1-.15.32,0.7,0.7,0,0,0-.16.48,1.84,1.84,0,0,1,0,.62c0,0.13-.19.23,0,0.34a0.24,0.24,0,0,1,0,.08,0.48,0.48,0,0,1-.15.25,0.59,0.59,0,0,0,.15.33,1.5,1.5,0,0,1,0,.54,1.41,1.41,0,0,0,.17.48,1.59,1.59,0,0,0,.14,1,0.47,0.47,0,0,1,0,.23v0.62a4.61,4.61,0,0,0,0,.62,1.14,1.14,0,0,1-.15.56,1.72,1.72,0,0,1-.1.66,1.15,1.15,0,0,0-.06.67c0,0.23,0,.47,0,0.7s0,0.42,0,.62a0.78,0.78,0,0,0,.1.51,1.16,1.16,0,0,1,.07.51,0.8,0.8,0,0,1,.16.56,1,1,0,0,1,.14.57,0.18,0.18,0,0,0,0,.14,0.34,0.34,0,0,1,.11.42,3.88,3.88,0,0,0,.17.49,0.41,0.41,0,0,0,.09.43,1.76,1.76,0,0,0,.23.37,0.23,0.23,0,0,1,.14.25,3.62,3.62,0,0,0,.17.79c0,0.31,0,.62,0,0.93v1.4c0,0.16,0,.31,0,0.47s0.25,0.13.06,0.29a0.51,0.51,0,0,0-.06.44,0.58,0.58,0,0,0,.14.57,0.3,0.3,0,0,1,0,.29,1,1,0,0,0-.13.8,0.83,0.83,0,0,1,.13.72,0.75,0.75,0,0,1-.11.22,0.43,0.43,0,0,1,.11.43c0,0.21,0,.41,0,0.62a0.54,0.54,0,0,0,0,.81,0.15,0.15,0,0,1,0,.15,0.18,0.18,0,0,0,0,.29,1.08,1.08,0,0,1,.21.77,2.54,2.54,0,0,0,0,.62,0.67,0.67,0,0,0,.14.64l-0.15.16a0.59,0.59,0,0,1,.16.56,1,1,0,0,1-.15.41,1.88,1.88,0,0,0,0,.62,0.63,0.63,0,0,0,.07.51,1.42,1.42,0,0,1,.11.58l0.05,0.05c0.1,0.07,0,.12,0,0.17a0.19,0.19,0,0,0,0,.32c0.06,0,.07.07,0,0.11a0.32,0.32,0,0,0-.11.27,2.23,2.23,0,0,0,.13.31,0.51,0.51,0,0,0-.12.34,0.61,0.61,0,0,0,0,.29c0.18,0.17.14,0.3,0,.45a0.22,0.22,0,0,0,0,.2,0.32,0.32,0,0,1,0,.47c-0.1.12,0,.15,0,0.23a0.25,0.25,0,0,1,0,.2c0,0.08-.18.11,0,0.23s-0.07.14-.08,0.22,0,0.31,0,.46,0,0.31,0,.47c-0.17.11-.07,0.2,0,0.34a1.15,1.15,0,0,1,0,.61,1.42,1.42,0,0,0,.16.56c0,0.18,0,.36,0,0.55q0,3,0,6a0.5,0.5,0,0,0,.13.5,0.21,0.21,0,0,1,0,.2,0.56,0.56,0,0,0-.12.5,0.6,0.6,0,0,0,.14.25,0.72,0.72,0,0,0-.14.24,1.21,1.21,0,0,0,.15.87,0.15,0.15,0,0,1,0,.14c-0.18.15-.17,0.27,0,0.44a0.88,0.88,0,0,0,.17.47,0.67,0.67,0,0,1,0,.36,2.65,2.65,0,0,1-.21.39c-0.1.07,0,.23-0.16,0.33a0.81,0.81,0,0,0,0,.28,3.5,3.5,0,0,0-.15.33,1.94,1.94,0,0,0,0,.39c0,0.29,0,.57,0,0.86a0.34,0.34,0,0,1,0,.22,0.51,0.51,0,0,0-.12.5c0,0.21,0,.42,0,0.62a0.43,0.43,0,0,1-.14.41,0.23,0.23,0,0,0,0,.2,0.35,0.35,0,0,1,.11.27c0,0.67,0,1.35,0,2a0.5,0.5,0,0,1-.15.32,0.39,0.39,0,0,1,.15.41c0,0.31,0,.62,0,0.93a0.37,0.37,0,0,0,0,.22,1,1,0,0,1,.14.65,1.52,1.52,0,0,0,.29.58,0.57,0.57,0,0,1,0,.3c0,0.31,0,.62,0,0.93a1.26,1.26,0,0,1,.15.95,0.37,0.37,0,0,1,0,.21,0.65,0.65,0,0,0,0,.69,2.64,2.64,0,0,1,.19.62c0,0.75,0,1.51,0,2.26,0,0.11-.14.22-0.14,0.33a1.2,1.2,0,0,0,.14.33,0.15,0.15,0,0,1,0,.13c-0.12.08-.1,0.15,0,0.22a0.1,0.1,0,0,1,0,.06,0.74,0.74,0,0,0,.16.64c0,0.23,0,.47,0,0.7a0.51,0.51,0,0,0,.13.34,1.72,1.72,0,0,0,.16.48,2.89,2.89,0,0,0,.12.57,0.64,0.64,0,0,1,.06.52q0,5.84,0,11.68v0.47a0.55,0.55,0,0,1,.15.56c0,0.21,0,.42,0,0.62s0,0.36,0,.54a0.88,0.88,0,0,1,.15.79c0,0.41,0,.83,0,1.25a0.54,0.54,0,0,0,0,.3,0.78,0.78,0,0,1,.13.65,2,2,0,0,1,0,.47,1.41,1.41,0,0,1-.12.31,0.39,0.39,0,0,1,.12.42,0.33,0.33,0,0,1,0,.21c-0.09.09-.12,0.14,0,0.23a0.23,0.23,0,0,1,0,.2,0.42,0.42,0,0,0-.15.41c0,0.13,0,.26,0,0.38,0.24,0.13,0,.23,0,0.34a0.31,0.31,0,0,0,.09.19c0,0.05.07,0.08,0,.11s-0.1.12,0,.23a0.35,0.35,0,0,1,0,.42,0.33,0.33,0,0,0,0,.47,0.51,0.51,0,0,1,.08.28c0,0.29,0,.57,0,0.86a0.41,0.41,0,0,1-.13.34,0.21,0.21,0,0,0,0,.2,0.33,0.33,0,0,1,.12.27,0.69,0.69,0,0,1-.15.64q0,0.31,0,.62a0.68,0.68,0,0,0-.16.64,0.41,0.41,0,0,1-.07.36c-0.18.13,0.1,0.22,0,.27a0.39,0.39,0,0,0-.12.42,1.16,1.16,0,0,1-.16.4,1.69,1.69,0,0,0,0,.47,1.29,1.29,0,0,1-.16.48c0,0.23,0,.47,0,0.7a1.18,1.18,0,0,1-.1.74,1.25,1.25,0,0,0-.05.67,0.3,0.3,0,0,1,0,.15,1,1,0,0,0-.14.8,1.12,1.12,0,0,1,0,.45,1.5,1.5,0,0,0-.12.89c0,0.1.2,0.13,0.11,0.23a0.44,0.44,0,0,0-.11.35c0,0.21,0,.42,0,0.62a0.55,0.55,0,0,0,.15.56,0.33,0.33,0,0,0-.15.25,1.28,1.28,0,0,0,.15.88,0.46,0.46,0,0,1-.07.2,0.46,0.46,0,0,0-.07.2,2.09,2.09,0,0,1,.12.18c0,0.08-.12.16-0.12,0.24a7,7,0,0,0,0,.78,0.32,0.32,0,0,0,.1.19c0.05,0.05,0,.06,0,0.12-0.15.26-.15,0.28,0,0.47a0.24,0.24,0,0,1,.06.27c0,0.07-.18.11,0,0.22s-0.07.14-.08,0.22,0,0.36,0,.54a1.34,1.34,0,0,0-.16.48,2.74,2.74,0,0,1,0,.54c0,0.16,0,.31,0,0.47,0.29,0.14-.05.28,0,0.42a1,1,0,0,0,.08.28,0.32,0.32,0,0,1,0,.47,0.21,0.21,0,0,0,0,.32c0.06,0,.06.07,0,0.12s-0.16.08,0,.16a0.28,0.28,0,0,1,.09.27,2.43,2.43,0,0,0,0,.47c0,0.14.12,0.27,0.15,0.4a4,4,0,0,0,.41.92,1.4,1.4,0,0,1,.33.49c0.16,0.14.3,0.29,0.44,0.44a2,2,0,0,1,.61.76,0.32,0.32,0,0,1,.32.17,0.47,0.47,0,0,1,.24.37,0.28,0.28,0,0,0,.18.08,0.39,0.39,0,0,1,.34.14,0.52,0.52,0,0,0,.24.17,1.59,1.59,0,0,1,.38,0,0.57,0.57,0,0,0,.41.15,0.37,0.37,0,0,1,.4.16,0.33,0.33,0,0,0,.33.15c0.15,0,.31,0,0.47,0a0.28,0.28,0,0,1,.26.13,0.49,0.49,0,0,0,.68.13,0.28,0.28,0,0,1,.44.05c0.18,0.19.38,0.36,0.55,0.56a3.9,3.9,0,0,0,.5.65,0.55,0.55,0,0,1,.29.58,0.6,0.6,0,0,0,.1.11,0.21,0.21,0,0,1,0,.27c-0.12.19-.39,0.13-0.49,0.32a0.93,0.93,0,0,1-.58-0.1,2.32,2.32,0,0,0-.44-0.06,2.45,2.45,0,0,1-.42-0.3,0.11,0.11,0,0,0-.08,0,3.27,3.27,0,0,1-.56-0.17,1.49,1.49,0,0,0-.56-0.14,0.9,0.9,0,0,0-.53-0.22,0.8,0.8,0,0,0-.58-0.09,2.19,2.19,0,0,1-.52-0.25,0.67,0.67,0,0,1-.27-0.27,3.83,3.83,0,0,0-.39-0.21,0.34,0.34,0,0,0-.28,0,1,1,0,0,1-.55-0.19,3.81,3.81,0,0,1-.4-0.36,1.77,1.77,0,0,1-.48-0.34,2.19,2.19,0,0,0-.44-0.43,1.78,1.78,0,0,1-.48-0.34,0.17,0.17,0,0,0-.13-0.05,0.42,0.42,0,0,1-.4-0.17c-0.3-.32-0.62-0.62-0.93-0.94a0.45,0.45,0,0,0-.33-0.15,1.27,1.27,0,0,1-.95-0.15,0.66,0.66,0,0,0-.63.19c-0.17.23-.41,0.4-0.59,0.62s-0.28.09-.38,0.22a0.45,0.45,0,0,1-.36.07,0.43,0.43,0,0,0-.21,0c-0.09.08-.14,0.12-0.23,0A1.42,1.42,0,0,1,293,187a0.23,0.23,0,0,0-.2,0,1.59,1.59,0,0,1-.54.21,0.22,0.22,0,0,1-.1,0,1.73,1.73,0,0,0-.32-0.17c-0.07-.13-0.12-0.26-0.2-0.39a0.16,0.16,0,0,1,0-.14,2.41,2.41,0,0,1,.5-0.48,1.51,1.51,0,0,1,.53,0,0.27,0.27,0,0,0,.19-0.09,1.62,1.62,0,0,1,.49-0.33c0.15-.15.3-0.28,0.44-0.44a4.12,4.12,0,0,0,.64-0.74,3.49,3.49,0,0,1,.68-0.73,1.62,1.62,0,0,1,.21-0.38,0.23,0.23,0,0,0,0-.2,0.31,0.31,0,0,1-.11-0.27,2,2,0,0,1-.16-0.63,9.89,9.89,0,0,1-.55-1.17,0.25,0.25,0,0,1-.06-0.13,3.83,3.83,0,0,1,0-.47,1.93,1.93,0,0,1-.16-0.4,2.6,2.6,0,0,0,0-.54,0.55,0.55,0,0,0-.15-0.56c0-.18,0-0.36,0-0.55a0.17,0.17,0,0,0-.06-0.13,2,2,0,0,1-.16-0.48,0.75,0.75,0,0,1-.08-0.59c0-.23,0-0.47,0-0.7a0.58,0.58,0,0,0-.13-0.5,1.06,1.06,0,0,1,0-.37,3.2,3.2,0,0,1-.14-0.33,5.39,5.39,0,0,1,0-.62,4.48,4.48,0,0,1,0-.54c0-.22-0.21-0.33-0.17-0.56a0.54,0.54,0,0,0-.14-0.57,0.3,0.3,0,0,1,0-.29,0.47,0.47,0,0,0,.14-0.42,1.3,1.3,0,0,0,0-.39c-0.06-.16.25-0.21,0.08-0.37a0.47,0.47,0,0,1-.07-0.36,1,1,0,0,0-.15-0.8,0.14,0.14,0,0,1,0-.05,1.4,1.4,0,0,0,.17-0.48,0.58,0.58,0,0,0,.09-0.51c0-.18,0-0.36,0-0.54a0.62,0.62,0,0,1,.12-0.58,0.15,0.15,0,0,0,0-.1,0.32,0.32,0,0,1-.07-0.36c0-.12.22-0.23,0-0.34,0.06-.09.23-0.16,0-0.28a1.68,1.68,0,0,1,0-1c0.07-.14,0-0.15-0.05-0.23a0.25,0.25,0,0,1,0-.21c0.05-.08.15-0.13,0-0.23a0.46,0.46,0,0,1-.06-0.36,0.47,0.47,0,0,0-.05-0.36c-0.2-.15,0-0.19.05-0.29a0.85,0.85,0,0,1,.15-0.64,0.44,0.44,0,0,0,0-.3,1.06,1.06,0,0,1,.16-0.33,1.35,1.35,0,0,0,0-.45,1,1,0,0,1,0-.9,0.36,0.36,0,0,0-.09-0.43,0.24,0.24,0,0,1,0-.2c0.22-.13,0-0.23,0-0.35a0.24,0.24,0,0,1,.08-0.19c0.08-.08,0-0.12,0-0.17s-0.07-.07,0-0.11,0.14-.23,0-0.38a0.76,0.76,0,0,1,0-.52,0.71,0.71,0,0,0,.15-0.64,0.46,0.46,0,0,0-.12-0.26c0-.11.15-0.16,0.12-0.31a1.12,1.12,0,0,0-.15-0.8,0.29,0.29,0,0,1,0-.2,0.28,0.28,0,0,0,.11-0.19,1.22,1.22,0,0,0-.15-0.87,0.63,0.63,0,0,0,.11-0.11,0.19,0.19,0,0,0,0-.14,0.75,0.75,0,0,1-.12-0.18c0-.08.11-0.16,0.12-0.24,0-.57,0-1.14,0-1.71a0.33,0.33,0,0,0-.09-0.19,0.2,0.2,0,0,1,0-.32c0.06,0,.06-0.07,0-0.11a0.31,0.31,0,0,1-.1-0.27,2.13,2.13,0,0,0-.15-1.26q0-.9,0-1.79a0.1,0.1,0,0,1,0-.07,0.55,0.55,0,0,0,.13-0.57c0-1.82,0-3.63,0-5.45a0.61,0.61,0,0,1,0-.37,0.55,0.55,0,0,0,.11-0.5c0-.86,0-1.71,0-2.57a0.6,0.6,0,0,0,0-.31,1.48,1.48,0,0,1-.14-1c0-.49,0-1,0-1.48a0.63,0.63,0,0,0-.15-0.64,0.83,0.83,0,0,0-.06-0.52,0.85,0.85,0,0,1-.09-0.59,1.42,1.42,0,0,0-.16-0.95l0-.61a0.24,0.24,0,0,0,0-.43,0.18,0.18,0,0,0,0-.33,0.73,0.73,0,0,0-.16-0.64,0.93,0.93,0,0,1,.13-0.73,1,1,0,0,0-.05-0.73,0.1,0.1,0,0,1,0-.17,0.19,0.19,0,0,0,0-.32c-0.06,0-.07-0.07,0-0.11a0.22,0.22,0,0,0,.1-0.11c0-.26,0-0.52,0-0.78a1,1,0,0,0-.15-0.79,0.74,0.74,0,0,1,.12-0.58,0.35,0.35,0,0,0,0-.35,0.27,0.27,0,0,1,0-.45c0.1-.11-0.1-0.21-0.12-0.32a0.81,0.81,0,0,0-.17-0.63v-0.62a0.67,0.67,0,0,1-.14-0.64,1.06,1.06,0,0,0-.16-0.79c0.11-.34-0.24-0.61-0.16-0.95a0.43,0.43,0,0,0-.2-0.46,0.27,0.27,0,0,1-.11-0.27c0-.15,0-0.31,0-0.47,0.29-.14,0-0.28,0-0.42a0.79,0.79,0,0,0-.15-0.71,2.78,2.78,0,0,0,0-.47c0-.14-0.11-0.27-0.15-0.41a1.83,1.83,0,0,0-.05-0.37c0-.09-0.11-0.12,0-0.23a0.28,0.28,0,0,0,0-.41,1.69,1.69,0,0,0-.21-0.54c0-.12,0-0.25,0-0.37,0-.29,0-0.57,0-0.86a4.87,4.87,0,0,1,0-.85,3.9,3.9,0,0,0-.16-0.8,2.46,2.46,0,0,1-.16-0.87,1.1,1.1,0,0,1-.21-0.53,1.43,1.43,0,0,1-.11-0.42,0.59,0.59,0,0,1-.14-0.49q0-.86,0-1.71a0.54,0.54,0,0,1,0-.3,1,1,0,0,0,.13-0.73,0.8,0.8,0,0,1,0-.37,0.66,0.66,0,0,0,.12-0.58c0-.39,0-0.78,0-1.17a0.48,0.48,0,0,1,0-.29,2.08,2.08,0,0,0,.17-0.64,0.89,0.89,0,0,0,.1-0.66,0.61,0.61,0,0,1,.16-0.56,1.27,1.27,0,0,1,.07-0.67,1,1,0,0,0,.08-0.67c0-.52,0-1,0-1.56a0.65,0.65,0,0,1,0-.31,2.46,2.46,0,0,0,.15-1.26,0.43,0.43,0,0,1,0-.22,0.81,0.81,0,0,0,.11-0.73c0-.11-0.2-0.22,0-0.35a0.44,0.44,0,0,0,0-.22v-1a1.51,1.51,0,0,0,.15-1,0.19,0.19,0,0,1,0-.07,0.92,0.92,0,0,0,.14-0.8c0-.28,0-0.57,0-0.86a2.08,2.08,0,0,0,.16-1.18,0.27,0.27,0,0,1,0-.14c0.28-.09-0.13-0.27.06-0.4a0.62,0.62,0,0,0,.06-0.51c0-.18,0-0.36,0-0.54a0.19,0.19,0,0,1,.05-0.13,0.68,0.68,0,0,0,.1-0.51,1.08,1.08,0,0,0,.16-0.48,2.93,2.93,0,0,1,0-.54A0.59,0.59,0,0,0,293,92a2.09,2.09,0,0,1,.16-1.18v-0.7a0.85,0.85,0,0,0,.15-0.72,0.8,0.8,0,0,1,0-.38,0.6,0.6,0,0,0,.15-0.49,0.42,0.42,0,0,0,.15-0.48,1.32,1.32,0,0,0,.17-0.56,0.33,0.33,0,0,1,.06-0.28,1.11,1.11,0,0,0,.25-0.76,0.24,0.24,0,0,1,.09-0.19,2.13,2.13,0,0,0,.28-0.43,2.4,2.4,0,0,0,.11-0.42,0.58,0.58,0,0,0,.14-0.5,0.67,0.67,0,0,1,.12-0.42,1.17,1.17,0,0,0,.07-0.51,0.47,0.47,0,0,0,.12-0.49c0-.23,0-0.47,0-0.7a0.64,0.64,0,0,1,.15-0.64L295.07,82a1.14,1.14,0,0,0,.15-0.87,0.58,0.58,0,0,1,0-.22,0.71,0.71,0,0,0,.13-0.65c0-.36,0-0.73,0-1.09a0.5,0.5,0,0,1,0-.29,0.64,0.64,0,0,0,.12-0.58c0-.26,0-0.52,0-0.78s0-.52,0-0.78a1.33,1.33,0,0,1,.08-0.75,1.64,1.64,0,0,0,.08-0.75,1,1,0,0,1,.09-0.2,0.59,0.59,0,0,0,0-.57,0.6,0.6,0,0,1-.1-0.35,0.91,0.91,0,0,0-.15-0.72,0.29,0.29,0,0,1,0-.23,2.1,2.1,0,0,0,.14-0.33,0.82,0.82,0,0,1-.14-0.32,1.16,1.16,0,0,0-.17-0.48c0-.65,0-1.3,0-1.95a0.53,0.53,0,0,1,.09-0.19,0.2,0.2,0,0,0,0-.27,0.59,0.59,0,0,1-.1-0.19,3.49,3.49,0,0,1,0-.62,1.38,1.38,0,0,0,.16-0.48,1,1,0,0,1,.14-0.25,0.91,0.91,0,0,1,.08-0.36,1.05,1.05,0,0,0,.24-0.83,0.52,0.52,0,0,1,.15-0.33,1.28,1.28,0,0,1,.07-0.51,0.78,0.78,0,0,0,.09-0.59,6.08,6.08,0,0,0,0-.62,1.17,1.17,0,0,0,.15-0.87,0.83,0.83,0,0,1,.13-0.65,0.21,0.21,0,0,0-.05-0.1,0.19,0.19,0,0,1,0-.32c0.06,0,.07-0.08,0-0.11a0.33,0.33,0,0,1-.11-0.35,0.76,0.76,0,0,0-.27-0.82,0.08,0.08,0,0,1,0-.06c0.06-.4-0.38-0.64-0.31-1a0.47,0.47,0,0,0-.35-0.26,0.39,0.39,0,0,1-.22,0,1.25,1.25,0,0,0-.9-0.28,0.27,0.27,0,0,1-.06,0c-0.49-.18-0.5-0.17-0.8.1a0.66,0.66,0,0,1-.36.26,1.18,1.18,0,0,0-.28.4,0.62,0.62,0,0,0-.34.48,0.07,0.07,0,0,1-.06,0,2,2,0,0,0-.57.33c-0.15,0-.27.26-0.42,0.28a1.61,1.61,0,0,0-.3.38,1.22,1.22,0,0,1-.19.47,2.07,2.07,0,0,0-.31.49c0,0.1-.1,0-0.15,0-0.24-.12-0.29-0.09-0.45.13s-0.2.23-.3,0.35a0.34,0.34,0,0,0-.17.24,2.53,2.53,0,0,1-.18.4,2,2,0,0,0-.29.42,1.08,1.08,0,0,1-.35.23s-0.11.09-.1,0.11a2.35,2.35,0,0,1-.17.64c0,0.15,0,.25-0.2.24a0.15,0.15,0,0,0-.11.09,0.81,0.81,0,0,1-.07.51,0.6,0.6,0,0,0-.08.51,0.72,0.72,0,0,1-.16.56,2.93,2.93,0,0,1-.36.94,0.29,0.29,0,0,0-.1.34c0,0.09.15,0.21,0.13,0.24a0.44,0.44,0,0,0-.14.34,0.77,0.77,0,0,0,.16.64,0.74,0.74,0,0,0-.14.32,3.46,3.46,0,0,1-.15.48,2.42,2.42,0,0,1-.19.56,2.17,2.17,0,0,0-.14.33,3.63,3.63,0,0,1-.15,1.65c0,0.8,0,1.61,0,2.42a0.3,0.3,0,0,0,.08.2c0.24,0.21.37,0.42,0.08,0.71a0.44,0.44,0,0,0,0,.23,0.58,0.58,0,0,1-.15.56,0.15,0.15,0,0,0,0,.14,0.42,0.42,0,0,1,.15.41c0,0.26,0,.52,0,0.78a5.83,5.83,0,0,1,0,.7,2.85,2.85,0,0,0,.15.72c0,0.44,0,.88,0,1.32a0.42,0.42,0,0,1-.13.26,1.06,1.06,0,0,1-.11.42,0.59,0.59,0,0,0-.07.51c0,0.52,0,1,0,1.56a0.6,0.6,0,0,1,0,.3c-0.3.21,0,.63-0.31,0.82a1.26,1.26,0,0,1-.07.67,1.19,1.19,0,0,0-.09.67,3.36,3.36,0,0,0,0,.39v0.47c0,0.16,0,.31,0,0.47s0,0.31,0,.46c-0.24.13,0,.23,0,0.34a0.19,0.19,0,0,1,0,.14,0.3,0.3,0,0,0-.12.27,1.81,1.81,0,0,1,0,.23V90a2.9,2.9,0,0,0,0,.54,1.36,1.36,0,0,1-.16.4,0.55,0.55,0,0,1-.15.56v1.79a3.14,3.14,0,0,1,0,.62,1.76,1.76,0,0,0,.17.48c0,0.36,0,.73,0,1.09a1,1,0,0,1-.12.23c0.15,0.12,0,.18,0,0.29a0.88,0.88,0,0,1-.18.63l0.14,0.16a0.54,0.54,0,0,0-.14.56,1.6,1.6,0,0,1-.24.91,0.94,0.94,0,0,0-.07.2,0.71,0.71,0,0,1-.15.64,2.72,2.72,0,0,0,0,.54,5.06,5.06,0,0,1-.17.56,0.85,0.85,0,0,0,.15.65,0.29,0.29,0,0,1,0,.29,0.55,0.55,0,0,0-.14.49,0.24,0.24,0,0,1,0,.14,0.52,0.52,0,0,0-.12.57,3.39,3.39,0,0,0-.17.56,1.67,1.67,0,0,0,.15,1,0.15,0.15,0,0,1,0,.05c-0.12.08,0,.13,0,0.23a1.8,1.8,0,0,1,0,.52,0.54,0.54,0,0,0-.14.56c0,0.57,0,1.14,0,1.71a1.43,1.43,0,0,1-.13.39,1.42,1.42,0,0,1,.12.88,1.54,1.54,0,0,0-.15,1,1.66,1.66,0,0,0,0,.23v0.55c0,0.18,0,.36,0,0.55a0.76,0.76,0,0,1-.05.52,0.68,0.68,0,0,0-.1.51c0,0.16,0,.31,0,0.47a3,3,0,0,0,0,.54,1.67,1.67,0,0,1-.17.4,0.45,0.45,0,0,1-.12.49c0,0.18,0,.36,0,0.53s0,0.36,0,.54a0.36,0.36,0,0,1-.13.34s0,0.07.06,0.11a0.55,0.55,0,0,1,.06.2c-0.24.16-.06,0.51-0.31,0.66,0,0.29,0,.57,0,0.86a0.84,0.84,0,0,1-.15.71,1,1,0,0,1-.16.79,5.19,5.19,0,0,0,0,.86c0,0.3-.21.51-0.17,0.79a6.31,6.31,0,0,1,0,.78,0.62,0.62,0,0,0,.08.28,1.4,1.4,0,0,1,0,.89,0.57,0.57,0,0,0-.11.5,1.14,1.14,0,0,0-.16.48,2.57,2.57,0,0,1,0,.54,0.76,0.76,0,0,0-.14.72c0,0.67,0,1.35,0,2a0.42,0.42,0,0,1-.12.34c-0.06.06-.06,0.19-0.12,0.26a0.67,0.67,0,0,0-.07.36c0,0.09-.12.16-0.15,0.25a1.25,1.25,0,0,1-.06.6,0.82,0.82,0,0,0-.1.59c0,0.21,0,.41,0,0.62,0,0.6,0,1.2,0,1.79a0.45,0.45,0,0,1-.16.4,1.08,1.08,0,0,1-.16.4c0,0.57,0,1.14,0,1.71,0,0.08.14,0.2,0.11,0.23a1.7,1.7,0,0,0-.11,1,8.55,8.55,0,0,0,0,.93c-0.32.19,0,.62-0.31,0.81a0.81,0.81,0,0,1-.06.52,0.77,0.77,0,0,0-.09.59,6.8,6.8,0,0,0,0,.7,5.62,5.62,0,0,0,0,.62,3,3,0,0,1-.15.64,3.15,3.15,0,0,1-.16.79c0,0.14,0,.33,0,0.46a1,1,0,0,0-.15.49c0,0.05-.13.11-0.13,0.17s0,0.41,0,.62a0.58,0.58,0,0,0-.16.56,0.82,0.82,0,0,1-.1.51,1.32,1.32,0,0,0-.07.51s-0.1.07-.1,0.11a3.89,3.89,0,0,1-.19.62,3.08,3.08,0,0,0,0,.54,2.28,2.28,0,0,0,0,.54,1.89,1.89,0,0,1-.17.48c0,0.36,0,.73,0,1.09a0.37,0.37,0,0,0,.16.33,2.27,2.27,0,0,0,.15.4,1.33,1.33,0,0,0,.16.48q0,1,0,1.95a0.24,0.24,0,0,1,0,.15,0.5,0.5,0,0,0-.13.57c0,0.32-.22.55-0.2,0.86a0.91,0.91,0,0,0-.17.47,0.66,0.66,0,0,0-.1.58,0.63,0.63,0,0,0,.15.64,0.3,0.3,0,0,1,0,.15c0,0.23,0,.47,0,0.7a0.91,0.91,0,0,1-.06.6,1.23,1.23,0,0,0-.1.66,1.82,1.82,0,0,0-.12.18,5.05,5.05,0,0,0-.2.94,6.45,6.45,0,0,1,0,.93,1.51,1.51,0,0,0-.15,1c0,0.08,0,.16,0,0.23a0.22,0.22,0,0,1-.1.11c-0.07,0-.06.07,0,0.11a0.31,0.31,0,0,1,0,.47,0.34,0.34,0,0,0-.06.42,0.57,0.57,0,0,1,.13.42c0,0.54,0,1.09,0,1.64a0.55,0.55,0,0,0,.13.57c0,0.18,0,.36,0,0.54a1.56,1.56,0,0,1,.17.48,2.52,2.52,0,0,0,0,.54v0.47a2.81,2.81,0,0,1,0,.54,1.46,1.46,0,0,0,.16.48c0,0.28,0,.57,0,0.86a0.54,0.54,0,0,0-.17.4,2.79,2.79,0,0,0-.33.88,6.14,6.14,0,0,1-.27.59c0,0.18,0,.36,0,0.54s0,0.57,0,.86a0.3,0.3,0,0,1,0,.21,3.43,3.43,0,0,0-.21.55,1.53,1.53,0,0,1-.21.53,0.88,0.88,0,0,1-.15.48,1.1,1.1,0,0,1-.15.72c0,0.28,0,.57,0,0.85s0,0.57,0,.86a0.92,0.92,0,0,1-.15.8,0.47,0.47,0,0,1,.09.11,0.36,0.36,0,0,1,0,.2,0.43,0.43,0,0,0-.15.41,0.63,0.63,0,0,1,0,.37,0.45,0.45,0,0,0-.13.42,0.85,0.85,0,0,1-.15.4,1,1,0,0,1-.15.72c0,0.28,0,.57,0,0.85,0,1.56,0,3.12,0,4.67a1,1,0,0,1-.09.67,1.29,1.29,0,0,0-.07.67,0.11,0.11,0,0,1,0,.06,0.75,0.75,0,0,0-.11.5,1.2,1.2,0,0,0-.16.56,8.14,8.14,0,0,1,0,.86,1.09,1.09,0,0,0-.16.79,0.09,0.09,0,0,1,0,.07,0.35,0.35,0,0,0-.13.41,0.93,0.93,0,0,1-.16.4,0.84,0.84,0,0,1-.15.72l0.15,0.17c-0.22.12,0,.22,0,0.34a5.38,5.38,0,0,1,0,.93,1.19,1.19,0,0,1-.12.88,0.25,0.25,0,0,0,.07.11,0.18,0.18,0,0,1,0,.27,0.42,0.42,0,0,0-.11.11,1.41,1.41,0,0,1-.07.67,1.28,1.28,0,0,0-.09.74,4.49,4.49,0,0,0,0,.46,0.55,0.55,0,0,0-.15.56c0,0.21,0,.42,0,0.62a2.86,2.86,0,0,1,.15,1.49,5.39,5.39,0,0,1,0,.93,1.12,1.12,0,0,0,.15.48c0,0.11,0,.19.18,0.18a2.31,2.31,0,0,0,.69,0,1.59,1.59,0,0,0,.45-0.42c0.11-.11.23-0.22,0.33-0.33a1.23,1.23,0,0,1,.58-0.29,0.67,0.67,0,0,0,.33-0.14c0.21-.22.44-0.43,0.67-0.65a2.47,2.47,0,0,0,.66-0.47,0.89,0.89,0,0,0,.54-0.58c0.06-.15.3-0.24,0.36-0.4a4.38,4.38,0,0,0,.06-0.6,0.55,0.55,0,0,1,.23-0.29,0.22,0.22,0,0,1,.26.1,0.16,0.16,0,0,0,.26,0,0.77,0.77,0,0,0,.18-0.24,1.51,1.51,0,0,1,.42-0.68,0.35,0.35,0,0,1,.27-0.11h0.39a0.45,0.45,0,0,1,.31.29,1.32,1.32,0,0,1,0,.54,1.09,1.09,0,0,1-.2.38,3.85,3.85,0,0,1-.21.39,2.38,2.38,0,0,1-.17.32,0.31,0.31,0,0,0-.19.31c-0.25.39-.42,0.81-0.63,1.22a0.49,0.49,0,0,1-.24.27,0.7,0.7,0,0,0-.43.3c-0.15.14-.29,0.3-0.45,0.43a1.66,1.66,0,0,1-.46.39,2.24,2.24,0,0,0-.46.39c-0.05,0-.15,0-0.2.07-0.24.22-.58,0.25-0.82,0.48a2,2,0,0,1-.81.66,0.24,0.24,0,0,1-.27.27,0.31,0.31,0,0,0-.16.16c-0.05.08-.06,0.18-0.12,0.26a1.55,1.55,0,0,0-.25.29,2,2,0,0,0-.32,1.12,0.51,0.51,0,0,1-.13.42,0.8,0.8,0,0,1-.18.47c0,0.15,0,.31,0,0.47s0,0.52,0,.78a0.29,0.29,0,0,0,.05.21,5.33,5.33,0,0,1,.2.55,2.62,2.62,0,0,1,.24.51,0.53,0.53,0,0,1,.12.34,1.69,1.69,0,0,0,0,.69,2,2,0,0,0,.52.56c0.13,0.11,0,.15,0,0.22,0,0.28,0,.55,0,0.83a0.59,0.59,0,0,1,.13.57,0.49,0.49,0,0,0,.15.48,0.92,0.92,0,0,0,.16.56,0.76,0.76,0,0,0,.07.44,1.38,1.38,0,0,1,.11.42,1,1,0,0,1,.15.57,1.17,1.17,0,0,1,.15.57c0,0.47,0,.93,0,1.4a0.48,0.48,0,0,0,0,.29,0.47,0.47,0,0,1,.12.42,2.68,2.68,0,0,0,0,.47,0.52,0.52,0,0,1,.15.33,0.6,0.6,0,0,0,.17.4,1,1,0,0,1,.15.56,0.27,0.27,0,0,0,.12.26,0.66,0.66,0,0,1,.2.31,0.41,0.41,0,0,0,.48.28,0.53,0.53,0,0,0,.34-0.13,2,2,0,0,0,.41-0.69,3.49,3.49,0,0,0,.29-0.5,2.38,2.38,0,0,1,.24-0.52,2,2,0,0,1,.43-0.45c0.15-.14.16-0.36,0.33-0.49a4.62,4.62,0,0,0,.5-0.49s0-.14.09-0.2,0.3-.35.47-0.51a0.48,0.48,0,0,1,.37-0.24,0.28,0.28,0,0,0,.17-0.14c0.05-.08.07-0.18,0.12-0.26a0.71,0.71,0,0,1,.16-0.17,0.26,0.26,0,0,0,.12-0.26,3,3,0,0,1,.38-0.55,0.77,0.77,0,0,0,.17-0.16l0.86-.71a0.26,0.26,0,0,1,.38.07,1.09,1.09,0,0,0,.22.38,0.59,0.59,0,0,0-.13.32,0.73,0.73,0,0,1-.15.56c-0.08.15-.14,0.3-0.22,0.46l-0.25.52a2.5,2.5,0,0,1-.25.44,0.84,0.84,0,0,1-.22.54,3.39,3.39,0,0,1-.18.48,0.58,0.58,0,0,0-.14.25,1,1,0,0,1-.14.4,2,2,0,0,1-.16.48,1.16,1.16,0,0,1-.14.41,0.81,0.81,0,0,1-.18.47c0,0.16,0,.31,0,0.47s0,0.36,0,.55a1.9,1.9,0,0,0-.17.4,4.66,4.66,0,0,1,0,.7v0.62a2.9,2.9,0,0,0,0,.7,4.88,4.88,0,0,1-.17.64,1.78,1.78,0,0,1-.15.72,6.08,6.08,0,0,0,0,.78c0,0.06-.11.11-0.13,0.18a0.38,0.38,0,0,0,.07.42,0.16,0.16,0,0,1,0,.26,0.63,0.63,0,0,0-.27.59,0.31,0.31,0,0,0-.14.33,0.54,0.54,0,0,1-.16.33,0.93,0.93,0,0,0-.15.63,1.84,1.84,0,0,1-.16.56,0.38,0.38,0,0,0-.15.4,0.38,0.38,0,0,1-.17.4,0.34,0.34,0,0,0-.15.33,0.43,0.43,0,0,1,0,.29,0.44,0.44,0,0,0-.12.42,0.32,0.32,0,0,1-.14.33,0.77,0.77,0,0,0-.22.38,0.67,0.67,0,0,0-.1.11c0,0.13,0,.26,0,0.39a1.08,1.08,0,0,0-.16.4,0.66,0.66,0,0,1-.14.48,1,1,0,0,0-.17.71,0.12,0.12,0,0,1-.16.11,0.31,0.31,0,0,1-.12-0.06,4.38,4.38,0,0,1-.17-0.48,1.44,1.44,0,0,0-.17-0.64,1.79,1.79,0,0,0-.14-0.17,0.85,0.85,0,0,0-.08-0.51,0.52,0.52,0,0,1-.07-0.51,1.76,1.76,0,0,0-.2-0.7,1.91,1.91,0,0,1-.22-0.38,0.32,0.32,0,0,1-.05-0.36,2.61,2.61,0,0,0-.16-0.41,1.33,1.33,0,0,0-.22-0.77,1.06,1.06,0,0,1-.24-0.52,1.17,1.17,0,0,0-.18-0.63,0.84,0.84,0,0,1-.14-0.41,3.6,3.6,0,0,0,0-.39,1.16,1.16,0,0,0,0-.16,0.09,0.09,0,0,0-.05-0.05,0.17,0.17,0,0,0-.1.06c0,0.23,0,.47,0,0.7v2.88c0,0.23,0,.47,0,0.7a2.54,2.54,0,0,0,.15.64,0.94,0.94,0,0,0,.3.82c0.05,0,0,.25,0,0.28,0.3,0.21,0,.63.31,0.82,0,0.16,0,.31,0,0.47a0.66,0.66,0,0,1-.15.64,1.47,1.47,0,0,0,.12.89l0,0.83a0.55,0.55,0,0,0-.13.57c0,0.6,0,1.19,0,1.79a0.47,0.47,0,0,1,0,.29,0.53,0.53,0,0,0-.12.5c0,0.26,0,.52,0,0.78v0.78a4.68,4.68,0,0,0,0,.85c0.05,0.28-.21.46-0.17,0.72a0.36,0.36,0,0,1-.15.4c0,0.23-.2.38-0.17,0.64a8.45,8.45,0,0,1,0,1.32,0.46,0.46,0,0,0,.18.4,0.36,0.36,0,0,1,.06.53,0.54,0.54,0,0,0,0,.63,0.18,0.18,0,0,1,0,.26,1.31,1.31,0,0,0-.26.9c0,0.31,0,.62,0,0.93a0.75,0.75,0,0,1-.15.64,0.15,0.15,0,0,0,0,.14c0.14,0.1.12,0.19,0,.28a0.6,0.6,0,0,1,.13.16,0.55,0.55,0,0,0-.15.33c0,0.75,0,1.51,0,2.26a0.46,0.46,0,0,0,0,.22c0.31,0.18,0,.57.27,0.75,0,0.26,0,.51,0,0.77s0,0.57,0,.86a3.68,3.68,0,0,0,0,.62,1.19,1.19,0,0,1-.21.77,0.67,0.67,0,0,0-.11.34c0,0.26,0,.52,0,0.78a0.42,0.42,0,0,0,.15.41,0.16,0.16,0,0,1,0,.14,0.56,0.56,0,0,0-.15.56c0,0.88,0,1.77,0,2.65a0.71,0.71,0,0,1-.1.51,1.29,1.29,0,0,0-.07.51,0.56,0.56,0,0,1-.1.11,0.19,0.19,0,0,0,0,.27,0.17,0.17,0,0,1,0,.26,0.41,0.41,0,0,0-.12.34,0.51,0.51,0,0,1,0,.29,0.4,0.4,0,0,0,.05.59,0.58,0.58,0,0,0,.53.23,5.88,5.88,0,0,1,.62,0,0.51,0.51,0,0,1,.49.15,0.41,0.41,0,0,0,.2-0.05,0.51,0.51,0,0,0,.11-0.08c0.24,0.37.42-.07,0.64-0.06a1,1,0,0,1,.26-0.11,3.61,3.61,0,0,1,.47,0,1.24,1.24,0,0,0,.4-0.16h0.39c0.19-.32.62,0,0.81-0.31a2.42,2.42,0,0,1,.62,0,2.91,2.91,0,0,0,.64-0.17,2.18,2.18,0,0,1,1.11.15c0.11,0.07.34,0,.44,0.06a0.58,0.58,0,0,0,.43.11h0.93a2.26,2.26,0,0,0,.47,0,1.89,1.89,0,0,1,.4.16,1.52,1.52,0,0,1,.83.27,1,1,0,0,0,.7.21,0.53,0.53,0,0,1,.2.07,2.61,2.61,0,0,0,.6.24,1.16,1.16,0,0,1,.52.42,0.23,0.23,0,0,0,.14,0,0.62,0.62,0,0,1,.34.12,0.87,0.87,0,0,1,.37.24,2.49,2.49,0,0,1,.43.27c0.21-.08.27,0.24,0.48,0.17a0.79,0.79,0,0,0,.32.17,2.31,2.31,0,0,1,.39.38l0.53,0.22a0.27,0.27,0,0,1,.27.11,0.57,0.57,0,0,0,.23.19,2.14,2.14,0,0,1,.51.26,2.76,2.76,0,0,1,.45.43c0.27,0.28.54,0.56,0.83,0.82a1.74,1.74,0,0,1,.38.54,2.36,2.36,0,0,0,.27.44,7.45,7.45,0,0,0,.66.49,0.51,0.51,0,0,0,.25.15,0.42,0.42,0,0,1,.27.24,1.85,1.85,0,0,0,.26.52,0.91,0.91,0,0,0,.2.55,0.33,0.33,0,0,1,0,.22,3.12,3.12,0,0,1,.17.4,3,3,0,0,0,0,.54,2.14,2.14,0,0,1,0,.54c-0.06.22,0.24,0.27,0.18,0.49a0.36,0.36,0,0,0,.1.42,3.19,3.19,0,0,0,.11.42,0.25,0.25,0,0,1,.08.28,1,1,0,0,0,.16.33,0.36,0.36,0,0,1-.08.35,0.17,0.17,0,0,0,0,.27,0.44,0.44,0,0,1,.11.19,6.82,6.82,0,0,1,0,.7,0.65,0.65,0,0,1-.15.64c0,0.21,0,.42,0,0.62a0.75,0.75,0,0,0,.15.64,0.15,0.15,0,0,1,0,.14,0.47,0.47,0,0,0-.14.41,1,1,0,0,1-.13.81,0.28,0.28,0,0,0,.07.1,0.17,0.17,0,0,1,0,.27,0.32,0.32,0,0,0-.11.27c0,0.31,0,.62,0,0.93a1.17,1.17,0,0,0-.15.95,6.54,6.54,0,0,0,0,.7,0.6,0.6,0,0,1-.15.56,1.35,1.35,0,0,1-.15.56,2.13,2.13,0,0,1-.31,1,1.85,1.85,0,0,1-.39.46,0.22,0.22,0,0,1-.2,0c-0.14-.13-0.48-0.12-0.36-0.46,0-.09-0.18-0.12-0.11-0.23a0.41,0.41,0,0,0,.12-0.27c0-.23,0-0.47,0-0.7v-0.7a3.66,3.66,0,0,0,0-.78,2.9,2.9,0,0,1,.17-0.64c0-.18,0-0.36,0-0.54V275.7a2.53,2.53,0,0,0,0-.54,1.48,1.48,0,0,1,.16-0.48c0-.36,0-0.73,0-1.09a1.48,1.48,0,0,0-.12-0.23,1,1,0,0,0,.13-0.73,1.55,1.55,0,0,1-.16-1,0.6,0.6,0,0,1,.14-0.25,1.36,1.36,0,0,1-.14-0.24c0-.21,0-0.42,0-0.62s0-.47,0-0.7-0.2-.33-0.17-0.56a1,1,0,0,0-.14-0.87,0.15,0.15,0,0,1,0-.14,0.24,0.24,0,0,0,0-.44,0.1,0.1,0,0,1,0-.05,0.22,0.22,0,0,0,0-.38,0.68,0.68,0,0,1-.05-0.52,1.12,1.12,0,0,0-.29-0.74,0.49,0.49,0,0,1-.19-0.39,0.31,0.31,0,0,0-.08-0.2,1.39,1.39,0,0,0-.21-0.38c-0.34-.26-0.6-0.61-1-0.87a5.39,5.39,0,0,1-1.11-.72,0.17,0.17,0,0,0-.14,0,0.38,0.38,0,0,1-.39-0.18,0.34,0.34,0,0,0-.34-0.13,0.72,0.72,0,0,1-.42-0.12c-0.16-.09-0.35-0.16-0.52-0.25a2.32,2.32,0,0,1-1-.65l-0.53-.22a0.57,0.57,0,0,1-.21-0.06,1.83,1.83,0,0,1-.33-0.33,1.81,1.81,0,0,0-.49-0.15,5.6,5.6,0,0,0-.63-0.35,0.69,0.69,0,0,1-.33-0.15,0.54,0.54,0,0,0-.3-0.22,10.76,10.76,0,0,0-1-.46,1.33,1.33,0,0,0-.44-0.26,1.11,1.11,0,0,1-.53-0.21,0.51,0.51,0,0,1-.42-0.12,0.35,0.35,0,0,0-.35,0,1.07,1.07,0,0,1-.42.13,0.69,0.69,0,0,1-.49.14,0.45,0.45,0,0,1-.48.15,3.73,3.73,0,0,1-.56.17,1.69,1.69,0,0,0-.79.13,2,2,0,0,0-.59.27,0.6,0.6,0,0,1-.54.21,5.74,5.74,0,0,0-.72.17,0.16,0.16,0,0,0-.13.06,0.64,0.64,0,0,1-.68.25,0.41,0.41,0,0,0-.22,0,1.64,1.64,0,0,1-.43.26,1.54,1.54,0,0,0-.55.18c-0.15.08-.31,0.13-0.45,0.22a2.7,2.7,0,0,0-.81.49,1.21,1.21,0,0,0-.53.22h-0.07l-0.13-.05a1.89,1.89,0,0,1-.55-0.38c-0.19-.21-0.42-0.39-0.6-0.61s-0.51-.32-0.71-0.55l-0.51-.28a0.81,0.81,0,0,1-.48-0.16,1.06,1.06,0,0,1-.35-0.28,0.66,0.66,0,0,1-.48-0.17,1.65,1.65,0,0,1-.53-0.23,2,2,0,0,1-.55-0.37,1.27,1.27,0,0,1-.36-0.23,1.8,1.8,0,0,0-.38-0.22,2.64,2.64,0,0,1-.38-0.22,1.75,1.75,0,0,0-.38-0.38,0.78,0.78,0,0,1-.21-0.38,1.7,1.7,0,0,0-.39-0.54c-0.11-.1-0.22-0.22-0.33-0.33a2.78,2.78,0,0,1-.38-0.22,0.63,0.63,0,0,0-.64-0.33l-0.5-.3a1,1,0,0,1-.14,0l-1-1a0.65,0.65,0,0,0-.34-0.48,1.74,1.74,0,0,0-.5-0.49,1.46,1.46,0,0,1-.76-0.77,0.57,0.57,0,0,0-.23-0.2,1.48,1.48,0,0,1-.2-0.08c-0.35-.34-0.72-0.68-1-1.05a0.84,0.84,0,0,0-.33-0.32,0.56,0.56,0,0,1-.32-0.32,1.18,1.18,0,0,0-.4-0.54c-0.23-.25-0.48-0.48-0.71-0.72a0.31,0.31,0,0,1-.17-0.24c0-.21-0.19-0.1-0.27-0.19a0.22,0.22,0,0,1,0-.14,0.38,0.38,0,0,0-.12-0.34,1.72,1.72,0,0,0-.65-0.49,3.53,3.53,0,0,0-.54-0.39,0.67,0.67,0,0,0-.64-0.16,0.73,0.73,0,0,0-.38-0.22,0.93,0.93,0,0,0-.44-0.23,0.63,0.63,0,0,1-.52-0.27l-0.5-.5a7.53,7.53,0,0,0-.55-0.55,3,3,0,0,1-.54-0.39,0.26,0.26,0,0,0-.2,0,0.17,0.17,0,0,0-.06.13c0,0.13,0,.26,0,0.39a1,1,0,0,1,.22.53,1.77,1.77,0,0,0,.22.38,1.27,1.27,0,0,1,.23.36c0.11,0.12.08,0.28,0.2,0.39a2.11,2.11,0,0,0,.22.37,0.65,0.65,0,0,0,.17.4c0,0.2.25,0.38,0.28,0.58a0.63,0.63,0,0,0,.22.46,2.33,2.33,0,0,0,.27.43,1,1,0,0,1,.43.27,1.14,1.14,0,0,0,.48.34,2.69,2.69,0,0,0,.46.39,1.59,1.59,0,0,1,.52.43,0.63,0.63,0,0,0,.23.18,2.25,2.25,0,0,1,.42.3,1,1,0,0,1,.48.35,0.37,0.37,0,0,0,.25.15c0.2,0,.06.26,0.18,0.28a0.75,0.75,0,0,1,.43.28,3.68,3.68,0,0,1,.38.39c0.1,0.13.15,0.3,0.27,0.44a1.12,1.12,0,0,1,.41.28,1.09,1.09,0,0,0,.36.47,2.29,2.29,0,0,1,.13.26c0.15,0.22.22,0.49,0.37,0.7a2.53,2.53,0,0,1,.45.6c0.07,0.2.33,0.29,0.42,0.53a2.74,2.74,0,0,0,.32.64,4.8,4.8,0,0,1,.44.68,0.28,0.28,0,0,0,.22.23,1.36,1.36,0,0,1,.28.41c0.13,0.1.17,0.31,0.29,0.41a1,1,0,0,1,.18.47,1.2,1.2,0,0,1,.14.41,1.13,1.13,0,0,1,.15.48,0.16,0.16,0,0,0,.07.12c0.25,0.16.24,0.5,0.49,0.66a1,1,0,0,1,.12.26,3.73,3.73,0,0,1,.25.29c0.08,0.15.1,0.33,0.19,0.46a4.79,4.79,0,0,0,.43.45,0.37,0.37,0,0,1,.16.25,1.37,1.37,0,0,0,.27.35,0.88,0.88,0,0,0,.23.37c0.54,0.53,1.07,1.06,1.59,1.6,0.12,0.12.29,0.1,0.37,0.22s0,0.22.2,0.25a1.37,1.37,0,0,1,.35.28c0.07,0.05.23,0,.24,0.12a1.61,1.61,0,0,0,.52.65,1.31,1.31,0,0,1,.75.84,1.36,1.36,0,0,1,.14.8,0.45,0.45,0,0,1-.42.26,0.87,0.87,0,0,1-.52-0.4,1.25,1.25,0,0,0-.43-0.28,3.44,3.44,0,0,1-.45-0.41,3.19,3.19,0,0,1-.57-0.33,2.34,2.34,0,0,0-.49-0.31,0.3,0.3,0,0,1-.21-0.21,0.62,0.62,0,0,0-.29-0.43c-0.21-.23-0.44-0.44-0.66-0.66a1.61,1.61,0,0,0-.55-0.71,0.21,0.21,0,0,1-.05-0.06,0.76,0.76,0,0,0-.39-0.53c-0.22-.16-0.23-0.45-0.43-0.61a5.38,5.38,0,0,1-.44-0.44,1.14,1.14,0,0,0-.38-0.54,1.64,1.64,0,0,0-.39-0.54,1,1,0,0,0-.17-0.4,3,3,0,0,0-.18-0.4c0-.15-0.25-0.21-0.3-0.42a1,1,0,0,0-.35-0.4,4.09,4.09,0,0,0-.27-0.44,0.54,0.54,0,0,1-.31-0.57,0.25,0.25,0,0,0-.08-0.12,0.7,0.7,0,0,1-.24-0.37c0-.16-0.26-0.22-0.31-0.42s-0.25-.23-0.26-0.35a0.42,0.42,0,0,0-.34-0.32,2,2,0,0,0-.43-0.6,2.21,2.21,0,0,0-.51-0.64,0.21,0.21,0,0,0-.12-0.09,1.06,1.06,0,0,1-.43-0.29,0.76,0.76,0,0,1-.37-0.23l-0.39-.39-0.39-.39c-0.11-.11-0.23-0.21-0.33-0.33a3,3,0,0,1-.44-0.27,2,2,0,0,0-.38-0.39,1.16,1.16,0,0,0-.2-0.07,2.81,2.81,0,0,0-.41-0.32,1.62,1.62,0,0,1-.46-0.39,3.1,3.1,0,0,1-.44-0.44c-0.17-.24-0.5-0.24-0.66-0.49a1.6,1.6,0,0,0-.26-0.12,0.34,0.34,0,0,0-.27-0.11h-0.47a2,2,0,0,0-.44-0.27,0.21,0.21,0,0,0-.2,0c-0.11.12-.18,0.13-0.29,0a2.35,2.35,0,0,0-.64-0.33,0.27,0.27,0,0,1-.21-0.05,9.63,9.63,0,0,1-.7-0.73,1.09,1.09,0,0,1-.25-0.52,0.49,0.49,0,0,0-.15-0.48,1.43,1.43,0,0,0,.13-0.16,1.78,1.78,0,0,1-.14-1.11,0.42,0.42,0,0,1,0-.15,1.22,1.22,0,0,0-.23-0.84,0.52,0.52,0,0,1-.08-0.2,0.93,0.93,0,0,0-.16-0.71,0.87,0.87,0,0,1,.15-0.72c0-.15,0-0.31,0-0.46a0.75,0.75,0,0,1-.15-0.71c0-.44,0-0.88,0-1.32v-0.78a2.65,2.65,0,0,1-.27-0.43,0.16,0.16,0,0,1,0-.14,2,2,0,0,0-.15-0.64,3,3,0,0,0-.16-0.4c0-.15,0-0.31,0-0.47a0.34,0.34,0,0,0-.09-0.19,0.78,0.78,0,0,1-.07-0.36,0.42,0.42,0,0,1-.15-0.33,0.75,0.75,0,0,0-.16-0.56,1,1,0,0,1-.15-0.56,1.47,1.47,0,0,0,0-.61,4.15,4.15,0,0,1-.27-0.59,0.79,0.79,0,0,0-.31-0.17c-0.08-.1-0.19-0.18-0.27-0.28a2.12,2.12,0,0,0-.12-0.26,0.76,0.76,0,0,1-.09-0.35,2.66,2.66,0,0,0-.29-0.35,0.19,0.19,0,0,1,0-.15,0.92,0.92,0,0,0-.16-0.4,4,4,0,0,1,0-.55,1,1,0,0,0-.15-0.33,1.25,1.25,0,0,0-.28-0.43,2.25,2.25,0,0,1-.07-0.52,0.33,0.33,0,0,0-.05-0.06l-0.23-.45a2.1,2.1,0,0,0-.21-0.45,1.5,1.5,0,0,0-.25-0.44c0-.19-0.22-0.27-0.16-0.48a0.59,0.59,0,0,0-.29-0.42,0.23,0.23,0,0,1,0-.15,0.43,0.43,0,0,0-.15-0.33c-0.06-.1,0-0.24-0.06-0.37-0.19-.3-0.33-0.64-0.5-1a2.26,2.26,0,0,1-.22-0.45,0.71,0.71,0,0,1-.16-0.48,0.17,0.17,0,0,0-.11-0.19,0.54,0.54,0,0,1-.21-0.46c0-.14-0.16-0.23-0.16-0.4a1.32,1.32,0,0,0-.18-0.46,0.56,0.56,0,0,1-.11-0.18,4,4,0,0,0-.16-0.56,1,1,0,0,1-.22-0.53,1.41,1.41,0,0,0-.22-0.38,0.66,0.66,0,0,0-.27-0.43,1.25,1.25,0,0,0-.22-0.38,3.8,3.8,0,0,0-.39-0.54,0.11,0.11,0,0,1-.05-0.05,1.44,1.44,0,0,0-.16-0.33l-0.44-.91c-0.17-.34-0.34-0.69-0.52-1a1,1,0,0,0-.15-0.48,0.79,0.79,0,0,1-.16-0.4,3.52,3.52,0,0,0-.18-0.48s-0.13-.12-0.12-0.17a0.9,0.9,0,0,0-.27-0.67,2.57,2.57,0,0,0-.43-0.61,0.75,0.75,0,0,0-.49-0.33,1.48,1.48,0,0,0-.45-0.42c-0.3-.09-0.41-0.42-0.65-0.49a2.06,2.06,0,0,1-.64-0.52,0.44,0.44,0,0,1-.22-0.37c-0.26-.12,0-0.47-0.28-0.59a2.33,2.33,0,0,1,0-.38,0.48,0.48,0,0,0-.21-0.46,1.63,1.63,0,0,1-.22-0.22,0.23,0.23,0,0,1,0-.14,0.62,0.62,0,0,0-.16-0.56c0-.21,0-0.42,0-0.62a0.34,0.34,0,0,0-.13-0.26,0.19,0.19,0,0,1,.06-0.1c0.09-.08.12-0.2,0-0.26s0-.49-0.27-0.59a4.54,4.54,0,0,1,0-.47,0.82,0.82,0,0,0-.24-0.67,3.66,3.66,0,0,0-.38-0.55c-0.19-.12-0.14-0.37-0.32-0.49s-0.17-.41-0.38-0.54a1.12,1.12,0,0,1-.12-0.26,2.74,2.74,0,0,0-.27-0.28,0.87,0.87,0,0,0-.44-0.75c0-.32-0.47-0.43-0.35-0.8a0.16,0.16,0,0,0-.1-0.09c-0.18,0-.22-0.08-0.2-0.24A0.82,0.82,0,0,1,238,208a0.91,0.91,0,0,1-.26-0.36,1.15,1.15,0,0,0-.29-0.35,0.33,0.33,0,0,1-.17-0.24,1.12,1.12,0,0,1-.17-0.4,1.07,1.07,0,0,1-.29-0.35,1,1,0,0,0-.26-0.36,0.79,0.79,0,0,0-.22-0.38,1,1,0,0,1-.22-0.37,1.35,1.35,0,0,1-.37-0.39,1.68,1.68,0,0,0-.51-0.65c-0.21-.23-0.44-0.44-0.66-0.66a1.08,1.08,0,0,1-.54-0.38,2,2,0,0,1-.59-0.44,0.33,0.33,0,0,0-.33-0.14h-0.31a0.41,0.41,0,0,0-.35.33,1.7,1.7,0,0,1-.35.87,0.38,0.38,0,0,0-.1.11,1.91,1.91,0,0,0,0,.39,1.12,1.12,0,0,0-.16.4,0.9,0.9,0,0,0,0,.15c0.26,0.16.07,0.57,0.38,0.7a4.68,4.68,0,0,1,.24.52,1.9,1.9,0,0,0,.31.65,2,2,0,0,1,.3.51,0.87,0.87,0,0,0,.08.35,1.51,1.51,0,0,0,.22.38,1.83,1.83,0,0,1,.17.55,0.12,0.12,0,0,0,.11.16,0.2,0.2,0,0,1,.21.16,1.65,1.65,0,0,0,.3.58,0.85,0.85,0,0,0,.31.65,0.86,0.86,0,0,1,.16.56,0.23,0.23,0,0,0,0,.21,1.59,1.59,0,0,1,.16.48,0.69,0.69,0,0,1,.09.58,7.6,7.6,0,0,1,0,1,0.94,0.94,0,0,0,.17.63c0.13,0.17.08,0.41,0.19,0.54a0.85,0.85,0,0,1,.11.58,3.56,3.56,0,0,0,0,.39c0,0.11.12,0.21,0.14,0.33a0.56,0.56,0,0,0,.1.35c0.09,0.1.09,0.27,0.2,0.37-0.13.09-.08,0.15,0,0.28a1,1,0,0,1,.21.62,3.32,3.32,0,0,0,.16.32c0,0.16.24,0.22,0.31,0.41a2.25,2.25,0,0,0,.38.46,2,2,0,0,0,.27.43c0.24,0.2.44,0.44,0.67,0.66a0.55,0.55,0,0,0,.74,0,0.61,0.61,0,0,0,.26-0.6,0.19,0.19,0,0,1,0-.14c0.18-.18.37-0.36,0.56-0.52a0.26,0.26,0,0,1,.18.08,1,1,0,0,1,0,.52c-0.1.16-.16,0.35-0.26,0.51a1.75,1.75,0,0,1-.35.56,2,2,0,0,1-.33.49,0.23,0.23,0,0,0-.09.19,1.62,1.62,0,0,1-.24.6,0.93,0.93,0,0,1-.17.32,1.32,1.32,0,0,0-.07.36,0.56,0.56,0,0,0-.15.41,2.52,2.52,0,0,1,0,.39,0.74,0.74,0,0,0,.14.49,2.22,2.22,0,0,0,.12.58,1.09,1.09,0,0,1,.05.44,0.86,0.86,0,0,1,.16.4,1,1,0,0,1-.13.73,0.28,0.28,0,0,0,.07.11,0.19,0.19,0,0,1,0,.32c-0.06,0-.06.06,0,0.12a0.27,0.27,0,0,1,.1.19c0,0.24.11,0.27,0.27,0.36a0.68,0.68,0,0,0,.35.1,0.23,0.23,0,0,1,.13,0,2.59,2.59,0,0,1,.2.55,0.34,0.34,0,0,0,.14.4,1.15,1.15,0,0,0,.16.4,0.41,0.41,0,0,0,.16.4,1.12,1.12,0,0,0,.17.64,1.94,1.94,0,0,1,.15.71,0.52,0.52,0,0,1,.15.56,1.82,1.82,0,0,0,.17.56c0,0.15,0,.32,0,0.47a2.2,2.2,0,0,0,.16.4,0.4,0.4,0,0,0,.17.4,0.9,0.9,0,0,1,.29.58,0.44,0.44,0,0,0,.21.38c0.17,0.08,0,.41.3,0.36a1.54,1.54,0,0,1,.74,1.07,1.58,1.58,0,0,1,.17.48,0.64,0.64,0,0,0,.32.41c0.06,0.08.15,0.15,0.22,0.22a0.21,0.21,0,0,1,.07.12,0.8,0.8,0,0,0,.36.63,2.56,2.56,0,0,0,.39.54,0.39,0.39,0,0,1,0,.22,1,1,0,0,1,.16.56,0.23,0.23,0,0,0,.08.12,1,1,0,0,0,.22.53,0.34,0.34,0,0,1,0,.07,0.65,0.65,0,0,0,.06.44,0.66,0.66,0,0,1,.1.51,0.14,0.14,0,0,0,0,.07,0.5,0.5,0,0,1,.16.41,2.21,2.21,0,0,0,.23.45,5.24,5.24,0,0,1,.37.78,0.53,0.53,0,0,0,.18.39,1.32,1.32,0,0,1,.22.38c0.11,0.11.23,0.21,0.33,0.33a0.53,0.53,0,0,1,.07.21,0.46,0.46,0,0,0,.05.21c0.26,0.18.29,0.53,0.54,0.72a0.72,0.72,0,0,1,.18.23,0.81,0.81,0,0,1,.15.32c0,0.2.18,0.13,0.26,0.19a1.21,1.21,0,0,1,.07.35c0.13,0.11.11,0.28,0.21,0.38s0.08,0.28.21,0.39,0,0.28.11,0.42a3.33,3.33,0,0,0,.5.8s0,0.07,0,.11a0.17,0.17,0,0,0-.06.26,0.53,0.53,0,0,1,.13.34,3.18,3.18,0,0,0,.14.33,0.42,0.42,0,0,0,.1.35,1.68,1.68,0,0,0,.61.76,0.94,0.94,0,0,1,.38.53,0.42,0.42,0,0,0,0,.21,6.68,6.68,0,0,1,.49.66,0.73,0.73,0,0,1,.41.69,0.3,0.3,0,0,0,.2.21,0.35,0.35,0,0,1,.32.33,1.62,1.62,0,0,0,.39.54,1,1,0,0,1,.32.34c0,0.13,0,.23.22,0.23a0.27,0.27,0,0,1,.17.14,1.28,1.28,0,0,0,.33.49,0.33,0.33,0,0,1,.07.12,2.19,2.19,0,0,1,.15.33,1.36,1.36,0,0,0,.44.83,1.23,1.23,0,0,1,.33.41,0.56,0.56,0,0,1,.17.4l0.38,0.39a3.29,3.29,0,0,0,.27.44,0.47,0.47,0,0,1,.29.42l0.77,0.77a1.56,1.56,0,0,0,.42.29,0.72,0.72,0,0,1,.38.45,0.4,0.4,0,0,0,.48.28c0.2,0,.08.27,0.18,0.27,0.29,0,.35.38,0.64,0.35a4.45,4.45,0,0,0,.72.53,1.82,1.82,0,0,0,.75.62,0.54,0.54,0,0,1,.18.23,0.49,0.49,0,0,0,.1.17,1,1,0,0,1,.48.35,1.44,1.44,0,0,0,.5.65,0.49,0.49,0,0,1,.16.17,1,1,0,0,0,.27.43,1.27,1.27,0,0,0,.34.48c0.13,0.13.25,0.26,0.39,0.38a0.82,0.82,0,0,1,.12.26,1.73,1.73,0,0,1,.17.32,1.68,1.68,0,0,0,.26.28,0.69,0.69,0,0,1,.33.48,2.62,2.62,0,0,1,.43.45,3.71,3.71,0,0,1,.24.68,1.94,1.94,0,0,1,.42.6,2.62,2.62,0,0,1,.22.37,6,6,0,0,1,.38.54,3.44,3.44,0,0,0,.38.55,0.25,0.25,0,0,1,.09.19,0.35,0.35,0,0,0,.14.34c0,0.29.36,0.35,0.34,0.64a0.36,0.36,0,0,0,.15.17,0.55,0.55,0,0,1,.17.32,1,1,0,0,0,.21.22c0.07,0.1.11,0.22,0.17,0.32a1,1,0,0,0,.27.43,8.17,8.17,0,0,1,.42.84,0.38,0.38,0,0,0,.13.34,1.66,1.66,0,0,1,.55.7c0.38,0.31.53,0.81,0.94,1.09a0.52,0.52,0,0,1,.11.26,1.14,1.14,0,0,1,.31.42,0.62,0.62,0,0,0,.3.33c0.17,0.11.11,0.34,0.27,0.44a2.73,2.73,0,0,0,.35.28,1.34,1.34,0,0,1,.63.63,2,2,0,0,1,.27.35,0.75,0.75,0,0,0,.29.42c0.13,0.11.29,0.18,0.42,0.28a1.21,1.21,0,0,0,.34.31,1,1,0,0,1,.43.29,1.59,1.59,0,0,0,.26.11c-0.05.23,0.18,0.18,0.25,0.27a2.57,2.57,0,0,1,.6.26,0.23,0.23,0,0,0,.15,0,1.14,1.14,0,0,1,.53.22,0.33,0.33,0,0,1,.19.3,0.64,0.64,0,0,1,.15.33l0.44,0.44a0.52,0.52,0,0,0,.51.26,0.94,0.94,0,0,0,.81.32,0.22,0.22,0,0,1,.12.08,3.39,3.39,0,0,1,.27.28,0.32,0.32,0,0,0,.27.11,1.27,1.27,0,0,1,.72.15,0.93,0.93,0,0,0,.4.17,0.72,0.72,0,0,1,.46.18,1.15,1.15,0,0,0,.42.13,2.17,2.17,0,0,1,.38.2c0.13,0.12.31,0.13,0.45,0.24a2.06,2.06,0,0,1,.41.13,4.14,4.14,0,0,1,.63.34h0.85a0.8,0.8,0,0,1,.38,0,3.55,3.55,0,0,0,.39.2,0.6,0.6,0,0,0,.19.1c0.15,0,.31,0,0.47,0a0.13,0.13,0,0,0,.14-0.14,2.93,2.93,0,0,0,0-.31,0.49,0.49,0,0,0,0-.28l-0.38-.2a0.67,0.67,0,0,0-.31,0,0.42,0.42,0,0,1-.52-0.33,1,1,0,0,0-.23-0.29c-0.21.09-.27-0.24-0.48-0.16a1.23,1.23,0,0,1-.39,0,1.19,1.19,0,0,1-.53,0,1,1,0,0,0-.42-0.14,0.79,0.79,0,0,1-.32-0.15,0.61,0.61,0,0,0-.48-0.15,4.56,4.56,0,0,1-.5-0.31,0.1,0.1,0,0,0-.07,0,1.19,1.19,0,0,1-.61-0.23,1.17,1.17,0,0,1-.32-0.16,0.52,0.52,0,0,0-.37-0.24A1.11,1.11,0,0,0,276,278a2,2,0,0,0-.52-0.24,1.25,1.25,0,0,1-.43-0.27,3.28,3.28,0,0,0-.7-0.56,2.93,2.93,0,0,1-.51-0.48,0.8,0.8,0,0,0-.54-0.39c-0.16-.17-0.32-0.34-0.5-0.49a3.93,3.93,0,0,1-.51-1c0-.26,0-0.52,0-0.78a0.19,0.19,0,0,1,0-.14,5.31,5.31,0,0,0,.44-0.6c0.09-.07.22-0.1,0.32-0.17a0.53,0.53,0,0,1,.38-0.22,0.18,0.18,0,0,0,.06-0.12,0.15,0.15,0,0,1,.19-0.18,0.87,0.87,0,0,1,.31,0,4.57,4.57,0,0,0,.65.31,0.35,0.35,0,0,1,.12.24c0.23,0.24.48,0.46,0.72,0.69a1.4,1.4,0,0,1,.42.29,0.7,0.7,0,0,1,.43.29,0.9,0.9,0,0,0,.46.21,1.17,1.17,0,0,1,.57.33,0.49,0.49,0,0,0,.43.28l0.17,0.31a0.33,0.33,0,0,1,.31.18,1.14,1.14,0,0,0,.51.28,2.4,2.4,0,0,1,1.26.71,0.59,0.59,0,0,0,.22.21,1.4,1.4,0,0,1,.4.18,1.36,1.36,0,0,1,.42.31,2.44,2.44,0,0,1,.4.16,2.09,2.09,0,0,1,.67.46,0.84,0.84,0,0,1,.25.37,0.77,0.77,0,0,0,.3.34,1.88,1.88,0,0,0,.3.17,0.42,0.42,0,0,0,.24.36s0.19,0,.2.06a0.85,0.85,0,0,0,.34.49,7.49,7.49,0,0,1,.6.61c0.18,0.23.5,0.24,0.67,0.49a1,1,0,0,0,.26.12,6.38,6.38,0,0,0,.84.42,0.67,0.67,0,0,0,.39.18,0.92,0.92,0,0,0,.47.17c0.11,0.13.29,0.08,0.39,0.21a0.35,0.35,0,0,0,.2.06,0.54,0.54,0,0,1,.43.1,0.67,0.67,0,0,0,.44.05,0.38,0.38,0,0,1,.13.06,0.47,0.47,0,0,0,.36.24,2.63,2.63,0,0,1,.48.17,0.31,0.31,0,0,1,.28.08,1.48,1.48,0,0,1,.31.17,2.93,2.93,0,0,0,.5.33,2.77,2.77,0,0,0,.95.35,4.75,4.75,0,0,1,.61.42,1.31,1.31,0,0,0,.7.36,2.18,2.18,0,0,1,.76,0,2.28,2.28,0,0,1,.56.53l1.1,1.1,0.27,0.51a1.22,1.22,0,0,0,.39.77,1.41,1.41,0,0,1,.39.77,1.44,1.44,0,0,0,.11.19,1.55,1.55,0,0,1,.19.46,4.07,4.07,0,0,1,0,.85,0.38,0.38,0,0,1-.22.21,0.22,0.22,0,0,1-.26-0.11,7.22,7.22,0,0,1-.43-0.83,0.42,0.42,0,0,0-.17-0.4,0.54,0.54,0,0,1-.29-0.42,0.6,0.6,0,0,1-.17-0.4,1,1,0,0,0-.21-0.45c-0.12-.16-0.3-0.28-0.43-0.45a4,4,0,0,1-.48-0.33,0.83,0.83,0,0,0-.54-0.22,6.28,6.28,0,0,0-.84-0.42,2.18,2.18,0,0,0-.55-0.36,1,1,0,0,1-.33-0.32l-0.51-.26a1.62,1.62,0,0,1-.48-0.15,2.32,2.32,0,0,1-.55-0.2,1.24,1.24,0,0,1-.18-0.11,0.82,0.82,0,0,1-.51-0.1,0.88,0.88,0,0,0-.59-0.06c-0.13,0-.16,0-0.16.19s0,0.36,0,.54a1.18,1.18,0,0,1-.15.8,0.33,0.33,0,0,0,0,.29,0.16,0.16,0,0,1,0,.23,0.52,0.52,0,0,0,0,.57,0.51,0.51,0,0,1,.09.28c0,0.26,0,.52,0,0.78a0.72,0.72,0,0,0,.14.32,0.41,0.41,0,0,0-.14.41,1.6,1.6,0,0,1-.15,1,0.57,0.57,0,0,0,.15.56,1.59,1.59,0,0,1,0,.46c-0.07.22,0.24,0.27,0.17,0.48a0.61,0.61,0,0,0,.13.49,1.31,1.31,0,0,1,0,.54,0.29,0.29,0,0,0,.07.13,0.45,0.45,0,0,1,.24.36c-0.06.21,0.22,0.29,0.16,0.48a0.63,0.63,0,0,0,.16.4,0.87,0.87,0,0,0,.22.45,1.54,1.54,0,0,1,.36.56,0.72,0.72,0,0,1,.2.62c0.13,0.1.11,0.29,0.21,0.37s0.25,0.5.49,0.66,0.28,0.53.55,0.71a0.38,0.38,0,0,1,.16.24,0.36,0.36,0,0,0,.38.29,3.42,3.42,0,0,1,.48.33,2.46,2.46,0,0,0,.67.81,0.28,0.28,0,0,0,.19.09,4,4,0,0,1,.87.35c0.06,0,.08.16,0.16,0.07s0-.17,0-0.27a4.69,4.69,0,0,0-.33-0.49,2.55,2.55,0,0,0-.34-0.48c-0.17-.16-0.33-0.33-0.5-0.49a0.5,0.5,0,0,0-.52-0.25,1.14,1.14,0,0,0-.39-0.2c-0.05,0,0-.06,0-0.11a0.35,0.35,0,0,0,.07-0.11,1.4,1.4,0,0,1-.22-0.38c-0.13-.11-0.06-0.2,0-0.32a1.42,1.42,0,0,0,.07-0.67,0.43,0.43,0,0,1,.05-0.21,3.82,3.82,0,0,1,.33-0.33,0.64,0.64,0,0,1,.36,0c0.35,0.35.7,0.69,1,1,0.06,0.06.06,0.19,0.12,0.26a1,1,0,0,0,.26.12,0.91,0.91,0,0,1,.22.37,5.08,5.08,0,0,1,.48.51l0.33,0.49a2.3,2.3,0,0,0,.34.48,0.16,0.16,0,0,1,0,.14c-0.07.26,0.16,0.24,0.28,0.34a4.84,4.84,0,0,1,.55.55,1.07,1.07,0,0,1,.44.59,1.09,1.09,0,0,1,.38.21,2.06,2.06,0,0,0,.43.28l0.07,0a0.23,0.23,0,0,0,.14,0,0.4,0.4,0,0,1,.42-0.11,0.34,0.34,0,0,0,.27-0.1c0.27-.28.56-0.54,0.82-0.83a2.74,2.74,0,0,0,.77-0.92c0.31-.31.61-0.65,0.94-0.93a5,5,0,0,1,.49-0.66,0.17,0.17,0,0,0,.06-0.13,0.31,0.31,0,0,1,.22-0.29,2,2,0,0,0,.7-0.56,2.91,2.91,0,0,1,.83-1,0.42,0.42,0,0,1,.29,0c0.15,0,.22.17,0.39,0.18a0.85,0.85,0,0,1,.16.32,0.73,0.73,0,0,1,.05.51,4,4,0,0,1-.73.84,0.86,0.86,0,0,0-.31.2c-0.17.16-.32,0.34-0.5,0.49a1.13,1.13,0,0,1-.59.45,0.16,0.16,0,0,0,0,.13,0.4,0.4,0,0,1-.17.4,0.53,0.53,0,0,0-.14.18,0.15,0.15,0,0,0,0,.14,0.29,0.29,0,0,0,.2,0,0.91,0.91,0,0,1,.65-0.34,0.89,0.89,0,0,0,.43-0.27,0.47,0.47,0,0,1,.4-0.17,0.27,0.27,0,0,0,.19-0.1,3.86,3.86,0,0,0,.84-1,1,1,0,0,1,.38-0.38c0.17-.11.12-0.33,0.27-0.44,0.33-.25.43-0.69,0.77-0.93a1.22,1.22,0,0,0,.06-0.2,4.12,4.12,0,0,1,.71-1,1.72,1.72,0,0,0,.22-0.45,4.91,4.91,0,0,1,.45-0.83,0.43,0.43,0,0,0,.17-0.4c0-.16.19-0.22,0.16-0.4a5,5,0,0,1,0-.78,0.3,0.3,0,0,1,.05-0.21,2.67,2.67,0,0,1,.25-0.61,0.31,0.31,0,0,0,0-.22,1,1,0,0,1-.11-0.18c0-.08.11-0.16,0.11-0.24,0-.39,0-0.78,0-1.17a0.09,0.09,0,0,0,0-.06c-0.08-.07-0.1-0.11,0-0.23a0.54,0.54,0,0,0,0-.62,0.79,0.79,0,0,0-.2-0.55,0.23,0.23,0,0,1,0-.15,0.62,0.62,0,0,0-.15-0.48,1,1,0,0,1-.15-0.32,1.22,1.22,0,0,0-.05-0.44,0.74,0.74,0,0,1-.11-0.51,0.47,0.47,0,0,0-.28-0.32,0.66,0.66,0,0,0-.38,0,0.89,0.89,0,0,1-.65.15,0.09,0.09,0,0,0-.06,0,0.33,0.33,0,0,1-.42.1,3,3,0,0,0-.49.18,0.82,0.82,0,0,0-.79.14,2.8,2.8,0,0,0-.47,0c-0.14,0-.27.11-0.4,0.15a0.64,0.64,0,0,0-.43.08c-0.1.11-.27,0.1-0.39,0.21a0.88,0.88,0,0,0-.41.12,1.39,1.39,0,0,0-.82.82,1.47,1.47,0,0,1-.17.32,2.39,2.39,0,0,1-.27.28,0.61,0.61,0,0,1-.36,0,0.54,0.54,0,0,1-.07-0.2,3.36,3.36,0,0,1,0-.39,0.29,0.29,0,0,1,0-.14,0.81,0.81,0,0,0,.27-0.36,1.33,1.33,0,0,1,.27-0.35,0.91,0.91,0,0,1,.23-0.37c0.28-.27.56-0.55,0.83-0.83a0.61,0.61,0,0,1,.32-0.17A1.07,1.07,0,0,0,303,284c0.1-.07.22-0.1,0.32-0.17s0.07-.06.11,0a0.66,0.66,0,0,0,.82,0c0.35-.16.7-0.33,1-0.52a3.46,3.46,0,0,0,.67-0.65,1.41,1.41,0,0,1,.43-0.29,2,2,0,0,0,.45-0.42,1.92,1.92,0,0,0,.6-0.43A1.35,1.35,0,0,0,308,281c0.17-.19.44-0.22,0.61-0.43a1.16,1.16,0,0,1,.77-0.39,2.45,2.45,0,0,1,.88-0.33,0.19,0.19,0,0,0,.05-0.05,1.4,1.4,0,0,1,.36-0.25,1,1,0,0,1,.49-0.14c0.11-.18.37-0.14,0.49-0.31,0.19,0,.27-0.22.47-0.18a0.85,0.85,0,0,1,.54-0.21,7.87,7.87,0,0,1,.9-0.45,2.6,2.6,0,0,0,1-.66,1.6,1.6,0,0,1,.2-0.07,0.75,0.75,0,0,1,.32-0.17,0.83,0.83,0,0,0,.28-0.26,0.94,0.94,0,0,1,.33-0.31,1.54,1.54,0,0,0,.43-0.28,1,1,0,0,0,.48-0.34c0.11-.16.33-0.13,0.43-0.27a1.37,1.37,0,0,1,.43-0.28,2,2,0,0,1,.39-0.37,5.3,5.3,0,0,0,.76-0.6,1.27,1.27,0,0,0,.65-0.66,6.1,6.1,0,0,1,.76-0.61,0.2,0.2,0,0,1,.14,0h0.62a0.2,0.2,0,0,1,.12.07,1.24,1.24,0,0,0,.16.41c0,0.13,0,.26,0,0.38a0.66,0.66,0,0,0-.17.47,2.38,2.38,0,0,0-.25.28,0.54,0.54,0,0,1-.24.37,1.16,1.16,0,0,0-.16.33l-0.61.6a1.45,1.45,0,0,0-.65.49s-0.11,0-.15,0a1.58,1.58,0,0,1-.58.3,1.31,1.31,0,0,0-.45.57,1.06,1.06,0,0,0-.35.47c-0.07.2-.35,0.29-0.43,0.52a1.68,1.68,0,0,1-.5.57,3.1,3.1,0,0,1-.38.55,3.17,3.17,0,0,1-.65.5,0.37,0.37,0,0,0-.15.52,0.45,0.45,0,0,0,.53.17,1.06,1.06,0,0,1,.54-0.21c0.15-.14.42-0.16,0.57-0.3a3.7,3.7,0,0,0,.55-0.38c0.11-.16.33-0.14,0.43-0.27a1,1,0,0,1,.43-0.28,1.63,1.63,0,0,0,.54-0.38c0.17-.2.39-0.35,0.54-0.56s0.47-.21.6-0.44a2.12,2.12,0,0,1,.38-0.22c0.13-.16.3-0.29,0.43-0.44a0.66,0.66,0,0,0,.33-0.49,1.79,1.79,0,0,1,1-.73,1.39,1.39,0,0,0,.43-0.26,0.76,0.76,0,0,0,.42-0.11,4.23,4.23,0,0,1,.38-0.39,0.78,0.78,0,0,1,.17-0.14,1.76,1.76,0,0,0,.58-0.3c0.16-.17.33-0.33,0.49-0.5a1.35,1.35,0,0,1,.54-0.39,0.94,0.94,0,0,0,.26-0.11,3.75,3.75,0,0,0,.28-0.27,4.5,4.5,0,0,1,.51-0.46c0.16-.1.36-0.15,0.51-0.27a4.69,4.69,0,0,0,.44-0.44,3,3,0,0,1,.39-0.38c0.07,0,.18-0.05.26-0.11a0.59,0.59,0,0,0,.45-0.43,1.5,1.5,0,0,0,.31-0.49,0.11,0.11,0,0,1,.05-0.06c0.38-.31.53-0.81,0.94-1.09a1.33,1.33,0,0,1,.38-0.54,0.07,0.07,0,0,0,0-.05c-0.09-.07-0.14-0.12,0-0.22s0.41-.4.61-0.6l0.66-.66a6.4,6.4,0,0,1,.61-0.6,8.69,8.69,0,0,0,.54-0.71,1.86,1.86,0,0,0,.33-0.33,2.16,2.16,0,0,1,.44-0.27,5.91,5.91,0,0,0,.81-0.84,5.84,5.84,0,0,1,.73-0.86,0.88,0.88,0,0,1,.31-0.49,2.62,2.62,0,0,1,.19-0.46c0.1-.15.27-0.25,0.37-0.39a0.41,0.41,0,0,1,.33-0.32,1,1,0,0,1,.33-0.49,0.51,0.51,0,0,0,.17-0.24,3.47,3.47,0,0,1,.3-0.42,0.6,0.6,0,0,1,.24-0.37,0.93,0.93,0,0,1,.28-0.43c0.2-.06,0-0.37.3-0.37s0.15-.27.28-0.4a5.1,5.1,0,0,0,.47-0.66c0.1-.13.11-0.32,0.21-0.46a3.5,3.5,0,0,1,.44-0.44,1.45,1.45,0,0,0,.39-0.54c0.06-.16.15-0.3,0.22-0.46a0.57,0.57,0,0,1,0-.08c0.16-.17.32-0.34,0.49-0.5a0.61,0.61,0,0,0,.14-0.34,3.51,3.51,0,0,1,.37-0.78,3.42,3.42,0,0,1,.54-0.56,1.14,1.14,0,0,1,.44-0.6,1.58,1.58,0,0,0,.34-0.4,2.22,2.22,0,0,0,.33-0.8,0.34,0.34,0,0,1,.1-0.19,0.48,0.48,0,0,0,.22-0.38,3.16,3.16,0,0,0,.34-0.64,3.21,3.21,0,0,1,.55-0.55c0.16-.14.16-0.37,0.33-0.49a0.94,0.94,0,0,0,.22-0.37,1.55,1.55,0,0,1,.26-0.28,1.31,1.31,0,0,1,.16-0.4,0.17,0.17,0,0,1,.07-0.12,2.41,2.41,0,0,0,.34-0.48,0.6,0.6,0,0,0,.22-0.54,0.15,0.15,0,0,1,0-.05,0.87,0.87,0,0,0,.29-0.43,0.77,0.77,0,0,1,.27-0.42,1.07,1.07,0,0,0,.26-0.45,10,10,0,0,0,.53-1.1,7.58,7.58,0,0,1,.47-0.82,0.12,0.12,0,0,1,.05-0.05,1.86,1.86,0,0,0,.61-0.92c0.15-.1.09-0.41,0.38-0.38a0.42,0.42,0,0,0,.05-0.13,5.21,5.21,0,0,1,.35-0.71,0.78,0.78,0,0,0,.12-0.42,0.31,0.31,0,0,1,.08-0.28,1.88,1.88,0,0,1,.39-0.37,3.83,3.83,0,0,0,1-.84,0.29,0.29,0,0,0,.1-0.19,1.35,1.35,0,0,1,.28-0.66,1.13,1.13,0,0,0,.18-0.47,2.84,2.84,0,0,1,.15-0.56,0.72,0.72,0,0,1,.22-0.46A0.27,0.27,0,0,0,351,239a1.59,1.59,0,0,1,.24-0.61,1.16,1.16,0,0,0,.08-0.12c0-.21,0-0.41,0-0.62a1.48,1.48,0,0,0,.16-0.56,0.39,0.39,0,0,1,.14-0.48c0-.21,0-0.41,0-0.62,0,0,.08-0.07.09-0.12a1.44,1.44,0,0,0,.21-0.53,0.52,0.52,0,0,1,.16-0.48,2.18,2.18,0,0,1,.15-0.64,0.27,0.27,0,0,1,.14-0.25,0.45,0.45,0,0,0,.18-0.4,1.55,1.55,0,0,1,.26-1,1.33,1.33,0,0,0,0-.21,0.76,0.76,0,0,1,.07-0.2,2.35,2.35,0,0,0,.4-0.69,1.48,1.48,0,0,1,.15-0.4,3,3,0,0,1,.15-0.48,0.79,0.79,0,0,1,.18-0.48,1.13,1.13,0,0,1,.28-0.51,0.68,0.68,0,0,1,.27-0.59,0.19,0.19,0,0,0,.06-0.13,2,2,0,0,1,0-.31,1.12,1.12,0,0,0,.14-0.32,3.48,3.48,0,0,1,.16-0.48c-0.06-.34.26-0.61,0.16-1a0.09,0.09,0,0,1,0-.07,3.87,3.87,0,0,0,.43-0.84c0.06-.13.17-0.18,0.23-0.3a1.49,1.49,0,0,1,.39-0.54,6.33,6.33,0,0,1,.18-0.71l0.26-.51,0.66-.66a0.66,0.66,0,0,1,.33-0.48,2.45,2.45,0,0,1,.5-0.49,1.12,1.12,0,0,0,.42-0.29,2.06,2.06,0,0,1,.49-0.33c0.32-.3.62-0.62,0.94-0.93a1.13,1.13,0,0,0,.27-0.51,0.58,0.58,0,0,0,.17-0.4l0.33-.33a1.59,1.59,0,0,1,.33-0.32,1.4,1.4,0,0,0,.43-0.28,3.57,3.57,0,0,1,.55-0.55c0.22-.16.23-0.45,0.43-0.61s0.29-.3.45-0.43a2.66,2.66,0,0,1,.38-0.55,1.27,1.27,0,0,0,.16-0.33,1.82,1.82,0,0,1,.21-0.69,0.41,0.41,0,0,0,0-.23,0.39,0.39,0,0,0,0-.22M302.51,96.56a2.29,2.29,0,0,1,0-.37,3,3,0,0,1,.18-0.47,0.37,0.37,0,0,1,.41,0,2.13,2.13,0,0,0,.16.33,0.65,0.65,0,0,0,.18.47v3a2.52,2.52,0,0,0,0,.54,1.49,1.49,0,0,1-.16.48c0,0.65,0,1.3,0,1.95a1.55,1.55,0,0,1,.17.48,0.33,0.33,0,0,0,.12.41,5.21,5.21,0,0,1,.19.86c0,0.17.2,0.22,0.16,0.4a1.45,1.45,0,0,0,0,.46c0,0.06.14,0.11,0.14,0.17a0.72,0.72,0,0,1-.14.17,0.84,0.84,0,0,0,0,.15c-0.06.2,0.22,0.27,0.17,0.48a2.24,2.24,0,0,0,0,.54,2.81,2.81,0,0,1,.16,1.41,0.38,0.38,0,0,1-.13.34,0.21,0.21,0,0,0,0,.2c0.07,0.08.14,0.14,0,.23a0.18,0.18,0,0,0-.05.13c0,0.26,0,.52,0,0.78a0.46,0.46,0,0,0,.1.35,0.69,0.69,0,0,1,0,.52,0.18,0.18,0,0,1-.12.07,0.25,0.25,0,0,1-.33-0.18,0.7,0.7,0,0,1-.16-0.48,0.28,0.28,0,0,0-.14-0.33,1.65,1.65,0,0,1-.27-0.44,0.5,0.5,0,0,1-.05-0.44,0.74,0.74,0,0,1,.15-0.71v-1.24a0.67,0.67,0,0,1-.14-0.64,3.9,3.9,0,0,0,0-.54,0.91,0.91,0,0,1-.15-0.48,0.71,0.71,0,0,1-.15-0.64c0-.42,0-0.83,0-1.25a1,1,0,0,0-.15-0.56,1,1,0,0,1-.17-0.56,3.09,3.09,0,0,0,0-.93,3.58,3.58,0,0,1,.17-0.64c0-.23,0-0.47,0-0.7s0-.47,0-0.7c0.31-.17-0.1-0.31,0-0.5a0.45,0.45,0,0,0-.12-0.56l0.12-.16a0.53,0.53,0,0,1-.14-0.48,4.08,4.08,0,0,1,0-.54c0-.13-0.3-0.21,0-0.36m2.64,36.16s-0.11.08-.1,0.11a0.67,0.67,0,0,1-.34.64c-0.4.41-.81,0.8-1.21,1.21a0.73,0.73,0,0,0-.33.41,1,1,0,0,0-.18.4s-0.12.11-.13,0.17,0,0.41,0,.61a0.47,0.47,0,0,0-.14.49c0,0.21,0,.42,0,0.62a1.9,1.9,0,0,1,.17.48,0.57,0.57,0,0,0,0,.44c0.13,0.15,0,.19,0,0.29a0.22,0.22,0,0,0,0,.2,0.62,0.62,0,0,1,.26.6,0.41,0.41,0,0,0,0,.29,2.07,2.07,0,0,1,.21.54,0.13,0.13,0,0,1,.05.05,2.73,2.73,0,0,0,0,.61,2.59,2.59,0,0,0,.29.5,0.23,0.23,0,0,1,0,.15,1,1,0,0,0,.22.69c0.13,0.28.13,0.36,0,.53a2,2,0,0,1-.22.22,0.44,0.44,0,0,0-.13.34,1.25,1.25,0,0,0-.16.56,0.51,0.51,0,0,1-.2.22c-0.07.06-.25,0-0.25-0.07a0.86,0.86,0,0,0-.15-0.49,2.17,2.17,0,0,0-.13-0.42,1.14,1.14,0,0,1,0-.52,0.79,0.79,0,0,1,.11-0.68c0.09-.13,0-0.12-0.08-0.13s-0.19,0-.19-0.18,0-.26,0-0.39a0.65,0.65,0,0,0-.15-0.48,0.84,0.84,0,0,1-.15-0.4,0.41,0.41,0,0,0-.15-0.33,2.88,2.88,0,0,0-.39-1,1.23,1.23,0,0,1-.09-0.12,1.07,1.07,0,0,0,0-.45,0.51,0.51,0,0,1-.13-0.42,1,1,0,0,0-.16-0.63,0.71,0.71,0,0,1-.15-0.48,0.92,0.92,0,0,0-.14-0.56c0-.1-0.13-0.16-0.15-0.25s0.13-.11.14-0.16c0-.41,0-0.83,0-1.24,0-.08-0.22-0.1-0.08-0.22s0-.15,0-0.22a0.66,0.66,0,0,1,.06-0.58,0.28,0.28,0,0,0,.07-0.13,0.58,0.58,0,0,1,.15-0.56,0.47,0.47,0,0,1,.16-0.48,0.59,0.59,0,0,1,.28-0.59,1.92,1.92,0,0,0,.56-0.7,0.48,0.48,0,0,1,.27-0.27,1.15,1.15,0,0,1,.61-0.24,0.26,0.26,0,0,0,.29,0c0.13-.16.25-0.13,0.38,0a0.13,0.13,0,0,0,.1,0,0.18,0.18,0,0,1,.26-0.05,0.31,0.31,0,0,0,.34.12,0.84,0.84,0,0,1,.56.18,0.42,0.42,0,0,1,.28.4,1.07,1.07,0,0,1,.15.76,1.39,1.39,0,0,1-.23.66M293.48,64.45a0.16,0.16,0,0,1-.25,0,0.31,0.31,0,0,1,.1-0.11l0.15,0.07a0.06,0.06,0,0,1,0,0m-0.68-1.66c0.18-.31.33-0.64,0.5-1,0.07-.13.07-0.35,0.32-0.32a0.56,0.56,0,0,0,.22-0.37,0.36,0.36,0,0,1,.44-0.38c0.15,0,.26.16,0.15,0.24a3.88,3.88,0,0,1-.26.6,1.3,1.3,0,0,0-.18.62,1.08,1.08,0,0,0-.24.44,0.85,0.85,0,0,0-.22.68,1.29,1.29,0,0,1-.16.4,2,2,0,0,1,0,.38,0.19,0.19,0,0,1-.12.07,0.66,0.66,0,0,1-.15,0c-0.14,0-.18,0-0.18-0.17,0-.28,0-0.57,0-0.85a0.48,0.48,0,0,0-.06-0.2c0-.06-0.08-0.07,0-0.17M283.5,160a3.22,3.22,0,0,1-.49.81,0.21,0.21,0,0,0-.09.11,1.55,1.55,0,0,1-.15.56,1.31,1.31,0,0,1-.26.75,1.2,1.2,0,0,0-.22.77v1.71c0,0.21,0,.42,0,0.62a1.5,1.5,0,0,0-.16.48,1.5,1.5,0,0,1,0,.62,1.24,1.24,0,0,0-.16.55,0.44,0.44,0,0,0-.15.41c0,0.09-.12.16-0.14,0.25a2.37,2.37,0,0,0,0,.39,1.23,1.23,0,0,1-.15.87c0,0.23,0,.47,0,0.7s0,0.46,0,.69a0.65,0.65,0,0,0-.12.57,0.69,0.69,0,0,0-.16.64,0.65,0.65,0,0,0-.15.63,0.76,0.76,0,0,1-.16.64v0.7a2.62,2.62,0,0,0-.16,1.34,0.37,0.37,0,0,1-.08.2c-0.07.07,0,.1,0,0.17a0.62,0.62,0,0,1,0,.63,0.51,0.51,0,0,0,0,.63,0.55,0.55,0,0,1,0,.37,0.46,0.46,0,0,0-.15.48c0,0.28,0,.57,0,0.86a1.72,1.72,0,0,0-.16,1,1.88,1.88,0,0,0-.16.64,2.08,2.08,0,0,1,0,.62,1.74,1.74,0,0,1-.15.4,0.16,0.16,0,0,1-.17.11h-0.31a0.13,0.13,0,0,1-.14-0.14v-0.49a0.79,0.79,0,0,1,.15-0.7,1.08,1.08,0,0,0-.1-0.74,0.21,0.21,0,0,1,0-.13c0-.28,0-0.57,0-0.86a2.36,2.36,0,0,0,.17-0.64,3.32,3.32,0,0,1,0-.7,2.5,2.5,0,0,0,.15-1.34,0.42,0.42,0,0,1,.13-0.41,0.64,0.64,0,0,0-.11-0.63,0.15,0.15,0,0,1,0-.14,1.13,1.13,0,0,0,.15-0.87,0.64,0.64,0,0,1,.15-0.41,0.62,0.62,0,0,0,0-.38,0.78,0.78,0,0,0-.15-0.71c0-.16,0-0.31,0-0.46a0.54,0.54,0,0,0,.14-0.56c0-.26,0-0.52,0-0.78a0.82,0.82,0,0,1,.07-0.59,0.77,0.77,0,0,0,.08-0.51,2.44,2.44,0,0,1,.17-0.32,0.72,0.72,0,0,0,.13-0.48,3.06,3.06,0,0,1,.17-0.48,0.36,0.36,0,0,1,.1-0.42,0.32,0.32,0,0,0,.05-0.29A1.54,1.54,0,0,1,281,166c0.17-.24,0-0.55.12-0.73a1.74,1.74,0,0,0,.14-0.57,0.94,0.94,0,0,0,.14-0.56,0.61,0.61,0,0,1,.13-0.26,1.7,1.7,0,0,0,.19-0.55c0-.17.17-0.28,0.17-0.48a1.55,1.55,0,0,0,.14-0.56,3.67,3.67,0,0,0,.16-0.48,0.48,0.48,0,0,1,.11-0.26,1.57,1.57,0,0,0,.2-0.55,0.29,0.29,0,0,1,.09-0.19,0.73,0.73,0,0,0,.21-0.22,0.92,0.92,0,0,1,.16-0.33A2.62,2.62,0,0,1,283,160a2,2,0,0,0,0-.45,0.17,0.17,0,0,1,.07-0.12,0.33,0.33,0,0,1,.21,0,0.37,0.37,0,0,1,.14.52m7.2-26a0.6,0.6,0,0,0,.07.36,0.47,0.47,0,0,1,.1.35c0,0.11.12,0.21,0.15,0.33a1.68,1.68,0,0,1,0,.31,0.52,0.52,0,0,0,.13.49,0.43,0.43,0,0,1,0,.22,2.28,2.28,0,0,0,.16,1.26v0.85a1.75,1.75,0,0,0,0,.46,8,8,0,0,1-.17.79,4.26,4.26,0,0,1,0,.78,0.83,0.83,0,0,0-.18.47,1.21,1.21,0,0,0-.14.41,1.76,1.76,0,0,0-.16.48,2.68,2.68,0,0,0-.17.39,1.21,1.21,0,0,0-.21.38,0.24,0.24,0,0,0-.07.2,2.51,2.51,0,0,1-.17.48,0.35,0.35,0,0,1,0,.36,1,1,0,0,1-.26.11l-0.11,0a0.39,0.39,0,0,1,0-.2,0.18,0.18,0,0,0,0-.29,0.92,0.92,0,0,1,0-.45,1.14,1.14,0,0,0,.15-0.87c0-.18,0-0.36,0-0.54a1.62,1.62,0,0,0,.16-1c0.06-.27-0.24-0.43-0.17-0.72a3.57,3.57,0,0,0,0-.77,0.82,0.82,0,0,1-.16-0.71,0.2,0.2,0,0,0-.06-0.13,2.81,2.81,0,0,0-.22-0.53,0.94,0.94,0,0,0-.19-0.39,1,1,0,0,0-.16-0.56,1.78,1.78,0,0,0-.31-0.65,0.37,0.37,0,0,1-.15-0.4,1,1,0,0,0-.14-0.41,3.52,3.52,0,0,0-.16-0.48c-0.06-.19,0-0.42,0-0.62a5.06,5.06,0,0,1,.2-0.93,0.35,0.35,0,0,0,.12-0.41,0.37,0.37,0,0,1,.21-0.37,6.73,6.73,0,0,0,.65-0.32,0.31,0.31,0,0,1,.41.07s0.29,0.32.29,0.33a0.28,0.28,0,0,0,0,.14,0.69,0.69,0,0,1,.28.74,0.61,0.61,0,0,1,.15.63,0.62,0.62,0,0,0,.16.33m-2.49-21.72a1.91,1.91,0,0,1,0-.54c0-.13.18-0.21,0-0.35a0.58,0.58,0,0,1,0-.3c0-1,0-2,0-3a0.72,0.72,0,0,1,.15-0.71c0-.26,0-0.52,0-0.78,0.22-.12,0-0.22,0-0.34a0.9,0.9,0,0,1,.15-0.32,1.5,1.5,0,0,0-.14-1v-1.24c0.13-.11.17-0.22,0-0.35a0.25,0.25,0,0,1,.06-0.2,0.38,0.38,0,0,0,.07-0.42,0.63,0.63,0,0,1-.14-0.26c0-.28,0-0.56,0-0.85,0.15-.1.07-0.16,0-0.28a0.31,0.31,0,0,1,.07-0.41c0.06,0,.06-0.06,0-0.11a0.33,0.33,0,0,1-.1-0.19c0-.31,0-0.62,0-0.93a1.29,1.29,0,0,0,.16-0.4,2.32,2.32,0,0,1,0-.47c0-.16,0-0.31,0-0.47a1,1,0,0,0-.15-0.79,1,1,0,0,1,0-.45c0.09-.13.11-0.2,0-0.28a0.4,0.4,0,0,1,.08-0.11c0.06,0,.07-0.07,0-0.11a0.21,0.21,0,0,1,0-.37s0-.07,0-0.11-0.1-.09,0-0.17a0.19,0.19,0,0,0,0-.32,0.26,0.26,0,0,1-.07-0.2,1.57,1.57,0,0,0,.15-1,0.67,0.67,0,0,1,.15-0.57,0.3,0.3,0,0,0,0-.29c-0.2-.14-0.08-0.24,0-0.35a0.21,0.21,0,0,0,0-.08,1.67,1.67,0,0,1,.15-1,0.72,0.72,0,0,0,0-.3,0.58,0.58,0,0,1,.14-0.57c0-.15,0-0.31,0-0.46a1.1,1.1,0,0,1,.05-0.52,3.73,3.73,0,0,0,.12-0.42,0.62,0.62,0,0,0,.14-0.49,3.5,3.5,0,0,0,.27-0.43,0.94,0.94,0,0,1,.33-0.49c0.1-.12.14,0,0.23,0a0.62,0.62,0,0,1,.32.17,0.39,0.39,0,0,1,.09.19,1.28,1.28,0,0,0,.16.48c0,0.16,0,.31,0,0.48a0.85,0.85,0,0,1-.16.7c0,0.16,0,.31,0,0.47a0.58,0.58,0,0,1-.13.57c0,0.15,0,.31,0,0.46a1,1,0,0,1-.14.8l0.14,0.16a0.8,0.8,0,0,0-.14.79,1.58,1.58,0,0,0-.18.48,1.72,1.72,0,0,1,0,.46v0.55a1.73,1.73,0,0,0-.14,1.18,2.64,2.64,0,0,1,.14.71,0.79,0.79,0,0,1-.14.64,3.52,3.52,0,0,1,0,.46,1.31,1.31,0,0,1-.14,1l0.14,0.16a1.24,1.24,0,0,0-.17.71,2.44,2.44,0,0,0-.13,1.27,1.66,1.66,0,0,1-.14.39c0.2,0.16.14,0.29,0,.44a0.28,0.28,0,0,0,0,.22,0.92,0.92,0,0,1-.16.48,0.57,0.57,0,0,1-.11.5c-0.05,0,0,.06,0,0.11a2.18,2.18,0,0,1,0,1.25s-0.06.08-.08,0.12a0.83,0.83,0,0,0,.12.46,0.36,0.36,0,0,0-.11.42,0.46,0.46,0,0,0,.14.16,1.34,1.34,0,0,0-.14,1c0,0.39,0,.78,0,1.17s0,0.73,0,1.09c0,0.18-.19.24-0.17,0.4a1.1,1.1,0,0,1,0,.39,3.78,3.78,0,0,0,.19.94,0.39,0.39,0,0,1,.13.41c0,0.52,0,1,0,1.56a0.7,0.7,0,0,0,.13.65,0.38,0.38,0,0,1,0,.22q0,1.17,0,2.33c0,0.14,0,.17-0.18.18H289a0.13,0.13,0,0,1-.13-0.14c0-.18,0-0.36,0-0.55a0.48,0.48,0,0,1-.16-0.48c0-.18,0-0.36,0-0.54a0.2,0.2,0,0,0-.05-0.13c-0.25,0-.21-0.23-0.32-0.32a2,2,0,0,0-.21-0.55,0.48,0.48,0,0,1,0-.29,1.23,1.23,0,0,1,.15-0.87m-1.55,20.61a0.58,0.58,0,0,1-.15.33,0.62,0.62,0,0,0,0,.38,3.22,3.22,0,0,1-.17.56,1.56,1.56,0,0,0-.46.74,1.72,1.72,0,0,0-.31.42,4.5,4.5,0,0,0,0,.55,0.28,0.28,0,0,1-.11.27,0.5,0.5,0,0,0-.2.46c0,0.47,0,.93,0,1.4,0,0.16,0,.32-0.23.29a0.32,0.32,0,0,0-.08.19c0,0.42,0,.83,0,1.25s0,0.27-.24.27h-0.16a2.1,2.1,0,0,1-.31,0,0.17,0.17,0,0,1-.07-0.12,0.5,0.5,0,0,1,0-.23,1.13,1.13,0,0,0,.13-0.17,0.87,0.87,0,0,1-.14-0.24,1.18,1.18,0,0,1-.16-0.4,0.62,0.62,0,0,1-.12-0.63,0.4,0.4,0,0,0,.13-0.41,0.46,0.46,0,0,1,.14-0.49c0-.15,0-0.31,0-0.46v-0.42a1,1,0,0,0,.16-0.4c-0.05-.19.22-0.27,0.18-0.47a0.44,0.44,0,0,0,.14-0.41c0-.06.13-0.12,0.13-0.17a2.58,2.58,0,0,0,.18-0.55,1.67,1.67,0,0,0,.15-0.48c0-.09,0-0.12.13-0.15a0.36,0.36,0,0,0,.17-0.1c-0.06-.29.26-0.5,0.17-0.8a0.23,0.23,0,0,1,.08-0.19c0.24-.17.25-0.49,0.49-0.66s0.12-.11.28,0a0.31,0.31,0,0,0,.24.16,0.12,0.12,0,0,1,.15.13,0.55,0.55,0,0,1-.14.56m0.85,114.47c-0.18.29-.17,0.3-0.41,0.3h-0.15a0.51,0.51,0,0,1-.49-0.12,4,4,0,0,1-.45,0,0.29,0.29,0,0,1-.18-0.13,1.79,1.79,0,0,0-.43-0.27A0.53,0.53,0,0,0,285,247a0.52,0.52,0,0,1-.41-0.15,0.56,0.56,0,0,0-.3,0c-0.11.28-.45,0-0.59,0.27,0,0.06-.06,0-0.11,0s-0.44-.08-0.33-0.4a0.77,0.77,0,0,0,0-.23,0.39,0.39,0,0,1,.36-0.4,0.52,0.52,0,0,0,.49-0.14,0.21,0.21,0,0,1,.2,0,0.45,0.45,0,0,0,.42.11,0.44,0.44,0,0,1,.48-0.15,0.89,0.89,0,0,1,.58.09,1.67,1.67,0,0,1,.42.28,0.44,0.44,0,0,0,.35.09,1.41,1.41,0,0,0,.25.14,0.53,0.53,0,0,1,.46.2,3,3,0,0,0,.27.28,0.22,0.22,0,0,1,0,.32m2.54-1.14a0.22,0.22,0,0,1-.14,0,2.25,2.25,0,0,0-.51.17,0.76,0.76,0,0,1-.34,0,4.89,4.89,0,0,0-.51-0.28,1.47,1.47,0,0,1-.56-0.16c-0.1-.27-0.37-0.08-0.54-0.21a4,4,0,0,0-.44-0.26,0.55,0.55,0,0,1-.58-0.3,0.4,0.4,0,0,0-.4-0.17,0.26,0.26,0,0,1-.24-0.16c-0.21-.23-0.55-0.22-0.75-0.44a4.08,4.08,0,0,0-.76,0,0.66,0.66,0,0,0-.34.29,0.62,0.62,0,0,1-.64.15,0.41,0.41,0,0,1-.23-0.44,3,3,0,0,1,.48-0.89c0.08-.08.23-0.09,0.31-0.17s0.39-.33.65-0.09a0.29,0.29,0,0,0,.21,0,1.24,1.24,0,0,1,.83.24,0.32,0.32,0,0,0,.06.05,0.83,0.83,0,0,1,.8.33,0.47,0.47,0,0,1,.48.16,0.81,0.81,0,0,1,.4.17,0.8,0.8,0,0,1,.39.18,0.51,0.51,0,0,1,.22.29c0,0.16.15,0.2,0.26,0.09a0.39,0.39,0,0,1,.42-0.1,1,1,0,0,0,.42.29,1.37,1.37,0,0,1,.55.2,1.14,1.14,0,0,0,.43.28,0.31,0.31,0,0,1,.09.17c0,0.07,0,.15,0,0.22s0,0.28-.06.33m6,2.27a0.44,0.44,0,0,1-.14.33c-0.25.25-.24,0.25-0.5,0a4.66,4.66,0,0,0-.33-0.33,0.37,0.37,0,0,1-.12-0.34,3,3,0,0,0-.31-0.57,2.33,2.33,0,0,0-.33-0.33,1.34,1.34,0,0,1-.43-0.28,3.1,3.1,0,0,0-.33-0.33,3.72,3.72,0,0,0-.45-0.43,1,1,0,0,1-.26-0.44,1,1,0,0,1-.23-0.53,1.21,1.21,0,0,1-.22-0.37,0.43,0.43,0,0,1-.08-0.35,0.12,0.12,0,0,0,0-.07,2.8,2.8,0,0,1-.39-0.54c-0.19-.25-0.44-0.44-0.65-0.67s-0.29-.07-0.39-0.21a0.53,0.53,0,0,0-.29,0,0.3,0.3,0,0,1-.28-0.07,0.28,0.28,0,0,0-.28-0.08h-0.08a2.07,2.07,0,0,1-1.18-.15h-1.17a1.08,1.08,0,0,1-.52,0,3.72,3.72,0,0,0-.42-0.12,0.76,0.76,0,0,0-.49-0.15,0.63,0.63,0,0,1-.64-0.15H284a1.94,1.94,0,0,0-.4-0.18,0.39,0.39,0,0,1,.29-0.6,1.28,1.28,0,0,0,.31,0,0.72,0.72,0,0,0,.64-0.14,1.18,1.18,0,0,1,.94.14h0.62a2.56,2.56,0,0,0,.62,0c0.22-.05.27,0.23,0.48,0.18a2.78,2.78,0,0,1,.62,0c0.16,0.32.56,0,.74,0.27a0.09,0.09,0,0,0,.06,0l0.61,0a0.59,0.59,0,0,0,.57.14,1.94,1.94,0,0,0,.79.17,0.43,0.43,0,0,1,.17.14l0.57,0.32a3.21,3.21,0,0,1,.66.28,0.59,0.59,0,0,0,.24.17,1,1,0,0,0,.4.17,2.67,2.67,0,0,0,.23.36c0.15,0.18.33,0.33,0.49,0.5a1.34,1.34,0,0,1,.35.48,4.65,4.65,0,0,0,.33.48,0.81,0.81,0,0,0,.31.5,0.26,0.26,0,0,1,.1.27,0.42,0.42,0,0,0,.06.36,2.33,2.33,0,0,0,.27.43,0.57,0.57,0,0,1,.26.27,1.92,1.92,0,0,0,.16.32,0.39,0.39,0,0,0,.13.26,0.9,0.9,0,0,1,.36.94m-6.9,15.79a0.66,0.66,0,0,0-.11.42,0.39,0.39,0,0,1-.42.41h-0.23a1.27,1.27,0,0,1-.31,0c-0.14,0-.23-0.15-0.39-0.19s0-.18-0.05-0.28c0-.31,0-0.62,0-0.93a0.46,0.46,0,0,1,.28-0.31,3.78,3.78,0,0,1,.46,0,0.29,0.29,0,0,1,.19.09,1.21,1.21,0,0,0,.43.28,0.35,0.35,0,0,1,.14.51m10.48,27.51a0.19,0.19,0,0,1-.08.12h-1.32a0.47,0.47,0,0,1-.31-0.29,0.43,0.43,0,0,1,.27-0.33,0.61,0.61,0,0,0,.57-0.14l0.54,0a0.17,0.17,0,0,1,.19.17,0.83,0.83,0,0,1,.15.48m14.74-49.9a1,1,0,0,0,.39-0.54,0.44,0.44,0,0,1,.58-0.18l0.28,0.27c0.09,0.08.12,0.2,0,.26a1.28,1.28,0,0,0-.16.33,8.29,8.29,0,0,1-.67.65,4.29,4.29,0,0,0-1.2,1.21,2.51,2.51,0,0,0-.33.49,2.22,2.22,0,0,1-.26.28,1,1,0,0,1-.43.27,0.74,0.74,0,0,1-.33.48c-0.12.13-.26,0.26-0.38,0.39a0.43,0.43,0,0,1-.17.15,0.75,0.75,0,0,0-.43.28,0.9,0.9,0,0,1-.29.05,0.38,0.38,0,0,1-.34-0.14,0.39,0.39,0,0,1,0-.48l0.88-.88a1,1,0,0,0,.37-0.22,9.29,9.29,0,0,1,.92-1.1,8.06,8.06,0,0,1,1.12-1.24,0.61,0.61,0,0,1,.48-0.33m-2.49-1.73a2.26,2.26,0,0,1,.22-0.37,1.76,1.76,0,0,0,.33-0.33,2.8,2.8,0,0,1,1.08-.77,0.34,0.34,0,0,1,.2-0.06,0.59,0.59,0,0,1,.24.27,3.47,3.47,0,0,1,0,.54,0.39,0.39,0,0,1-.14.33,3.22,3.22,0,0,0-.57.69,3.68,3.68,0,0,1-.64.67c-0.22.22-.43,0.45-0.66,0.66a1.81,1.81,0,0,1-.76.61,1.72,1.72,0,0,0-.52.64,0.76,0.76,0,0,1-.25.28l-1,1a1.33,1.33,0,0,0-.35.48,1.83,1.83,0,0,1-.42.45s0,0.13,0,.15c-0.25.17-.06,0.57-0.37,0.7l-0.33.64a1.72,1.72,0,0,1-.11.26,1.58,1.58,0,0,1-.27.28,0.26,0.26,0,0,1-.19.07,0.63,0.63,0,0,1-.26-0.26,1.53,1.53,0,0,1,0-.47,0.47,0.47,0,0,1,0-.29c0.13-.15.17-0.35,0.31-0.5a0.91,0.91,0,0,0,.29-0.73l0.21-.53a1.28,1.28,0,0,0,.37-0.39c0.07-.21.29-0.32,0.33-0.49a1.39,1.39,0,0,1,.29-0.43c0.08-.14.13-0.31,0.21-0.46a1,1,0,0,1,.18-0.23l1-1a0.55,0.55,0,0,0,.25-0.37,0.64,0.64,0,0,1,.26-0.25s0.06,0,.07,0l0.51-.47a0.64,0.64,0,0,0,.48-0.34m-1.25-81.62a2,2,0,0,1,.24.77,1.4,1.4,0,0,1,.14.56,0.79,0.79,0,0,1,.18.47,2.41,2.41,0,0,0,.2.39,0.29,0.29,0,0,1,.08.12,0.75,0.75,0,0,0,.08.51,0.56,0.56,0,0,1,.06.51,3.54,3.54,0,0,1,.17.56,2.5,2.5,0,0,1,.15.48,2,2,0,0,0,0,.47c0,0.18,0,.36,0,0.54a1.22,1.22,0,0,1,.15.89c0,0.19,0,.32,0,0.45a0.59,0.59,0,0,0,.11.51c0.05,0-.18.22,0,0.32l0.06,0.68a0.72,0.72,0,0,1,.11.65c0,0.39,0,.78,0,1.17a0.31,0.31,0,0,0,.1.27,0.48,0.48,0,0,1,.05.36,0.46,0.46,0,0,0-.15.48c0,1.2,0,2.39,0,3.58a1.07,1.07,0,0,0,.14.8,0.86,0.86,0,0,1,0,.38,1.28,1.28,0,0,0,.15.88,0.36,0.36,0,0,1,0,.3,1.26,1.26,0,0,0,.16.56,1.45,1.45,0,0,0,0,.61,0.87,0.87,0,0,1,.14.49c0.29,0.1,0,.44.26,0.6a0.79,0.79,0,0,1,.05.36,0.91,0.91,0,0,0,.12.73l0.05,0.68a0.46,0.46,0,0,1,.13.49,1.4,1.4,0,0,1,.17.48,0.65,0.65,0,0,1-.16.56c0,0.13,0,.26,0,0.39s-0.09.16-.2,0.16-0.27,0-.27-0.24a1,1,0,0,0-.15-0.49,0.77,0.77,0,0,1-.17-0.63,1.19,1.19,0,0,0-.16-0.56c0-.21,0-0.42,0-0.62a0.73,0.73,0,0,1-.16-0.64,3,3,0,0,1-.26-0.59,0.09,0.09,0,0,1,0-.06,1.45,1.45,0,0,0,0-.46,0.52,0.52,0,0,1-.14-0.33,4.33,4.33,0,0,1-.17-0.48,1.62,1.62,0,0,0,0-.54,0.72,0.72,0,0,0-.13-0.65c0-.15,0-0.31,0-0.46,0-.31,0-0.62,0-0.93a1.28,1.28,0,0,1-.14-1,4.21,4.21,0,0,0-.17-0.48c0-.18,0-0.36,0-0.54a0.35,0.35,0,0,0-.1-0.11,0.17,0.17,0,0,1,0-.27c0.05,0,.11-0.1,0-0.16a0.12,0.12,0,0,1-.05-0.05,1.6,1.6,0,0,0,0-.6,1.13,1.13,0,0,1-.14-0.57c0-.7,0-1.4,0-2.1,0-.3.21-0.49,0.18-0.79a12.41,12.41,0,0,1,0-1.32c0-.23,0-0.47,0-0.7a1.14,1.14,0,0,0-.05-0.67,1.54,1.54,0,0,1-.11-0.58c0-.1-0.2-0.16,0-0.29a2,2,0,0,1-.11-0.22,1.05,1.05,0,0,1,0-.39c0.05-.22-0.22-0.33-0.17-0.56a2.46,2.46,0,0,0,0-.54c-0.32-.17,0-0.55-0.26-0.75a0.19,0.19,0,0,1-.05-0.13c0-.18,0-0.36,0-0.54a3.28,3.28,0,0,1-.27-0.59,0.16,0.16,0,0,1,0-.14,7.7,7.7,0,0,1-.16-0.95c-0.26-.17-0.08-0.53-0.35-0.72a2.25,2.25,0,0,1-.39-0.69,1,1,0,0,1,0-.45,1.1,1.1,0,0,0-.3-1,0.28,0.28,0,0,1,0-.15,0.1,0.1,0,0,1,0-.06l0.05,0a2,2,0,0,1,.48.5,2.37,2.37,0,0,0,.34.48,0.47,0.47,0,0,1,0,.22l0.32,0.57a0.32,0.32,0,0,1,.15.25,1.22,1.22,0,0,0,.24.6M306.5,131a2.56,2.56,0,0,0-.12-0.26,4.28,4.28,0,0,0-.26-0.45,1,1,0,0,1-.28-0.42,1.18,1.18,0,0,1-.18-0.7,0.59,0.59,0,0,0-.14-0.25,0.32,0.32,0,0,1,.2-0.21,0.8,0.8,0,0,0,.6-0.6,0.06,0.06,0,0,1,.05,0,0.09,0.09,0,0,1,.05.05c0,0.23,0,.46,0,0.69a0.16,0.16,0,0,0,.18.18c0.15,0,.09.17,0.14,0.22a3.66,3.66,0,0,0,1,.9,1.68,1.68,0,0,1,.45.43,0.38,0.38,0,0,0,.32.17,0.61,0.61,0,0,1,.17.15c0.17,0.12-.09.52,0.32,0.48a1.41,1.41,0,0,1,.22.61,0.65,0.65,0,0,0,.1.19,2.59,2.59,0,0,1,.18.39,2,2,0,0,0,.16.48,1.43,1.43,0,0,1,0,.46,1.7,1.7,0,0,0,0,.54,0.86,0.86,0,0,1,.14.48,2.07,2.07,0,0,1,.25.6,0.3,0.3,0,0,1,.05.21c0,0.26,0,.52,0,0.78a1.14,1.14,0,0,1,.17.71,3.65,3.65,0,0,1,.14,1.43c0,0.4,0,.74,0,1.08a0.43,0.43,0,0,1-.18.39,1.11,1.11,0,0,0-.28.51,0.69,0.69,0,0,0-.17.48,2.53,2.53,0,0,0-.15.4c0,0.09,0,.22-0.12.22a0.34,0.34,0,0,1-.19-0.09,0.27,0.27,0,0,1-.15-0.25,0.74,0.74,0,0,0-.15-0.56,0.36,0.36,0,0,1,0-.29c0-.08.16-0.12,0-0.22a0.47,0.47,0,0,1-.21-0.22A1.15,1.15,0,0,1,309,139a0.38,0.38,0,0,0,0-.54s0-.16-0.06-0.2-0.12-.19,0-0.28a1.73,1.73,0,0,1,.16-0.55,4.49,4.49,0,0,0,0-.85,0.48,0.48,0,0,1-.16-0.48c0-.15,0-0.31,0-0.47a0.48,0.48,0,0,1-.16-0.48c-0.19-.1-0.08-0.22,0-0.33a0.33,0.33,0,0,1-.13-0.34,0.37,0.37,0,0,0-.14-0.41c0.07-.2-0.24-0.27-0.17-0.48a0.83,0.83,0,0,0-.16-0.4,1.06,1.06,0,0,0-.33-0.71,8.21,8.21,0,0,0-.61-0.6c-0.16-.14-0.14-0.37-0.32-0.49a2.15,2.15,0,0,1-.39-0.38m-7.38,88.08v4.52a4.48,4.48,0,0,0,0,.54,1.27,1.27,0,0,0-.16.48v1c0,0.21,0,.41,0,0.62a0.52,0.52,0,0,1-.15.49,0.58,0.58,0,0,0,0,.3c0,0.91,0,1.82,0,2.73a0.3,0.3,0,0,1-.05.29c-0.16.13-.12,0.25,0,0.38s0,0.16.06,0.2,0.11,0.17,0,.29a0.53,0.53,0,0,0,0,.3c0,0.57,0,1.14,0,1.71a0.46,0.46,0,0,1-.15.48,0.44,0.44,0,0,0,.09.43,0.47,0.47,0,0,1,.06.36,0.43,0.43,0,0,0-.16.4,0.77,0.77,0,0,1-.07.59,1.74,1.74,0,0,1-.21.55c-0.08,0,0,.17,0,0.26a0.72,0.72,0,0,1,0,.78c-0.08.11,0,.13,0,0.17s0,0.06,0,.12a0.55,0.55,0,0,0,0,.68,0.21,0.21,0,0,1,0,.27,0.23,0.23,0,0,0,0,.1,0.54,0.54,0,0,1,.12.5,1.14,1.14,0,0,0,.15.87v0.78c-0.25.15-.07,0.5-0.32,0.65a0.2,0.2,0,0,1-.27,0,0.65,0.65,0,0,1-.35-0.64,0.51,0.51,0,0,1-.16-0.48,3.91,3.91,0,0,1,0-.54,1.49,1.49,0,0,0-.16-0.48c0-.36,0-0.73,0-1.09s0-.68,0-1a0.43,0.43,0,0,0-.11-0.27,0.32,0.32,0,0,1,0-.28,1.32,1.32,0,0,0,.15-0.8,1.09,1.09,0,0,1,.11-0.22,0.51,0.51,0,0,1-.11-0.5,7.54,7.54,0,0,0,0-1c0-.28.21-0.45,0.18-0.72a3.81,3.81,0,0,1,0-.7,0.51,0.51,0,0,1,.1-0.11c0.07-.12.07-0.12,0-0.27l-0.08-.11a1.28,1.28,0,0,0,.14-0.88,2,2,0,0,1-.16-1.1c0-.22.21-0.33,0.17-0.56a4.08,4.08,0,0,1,0-.7v-2.57a3.68,3.68,0,0,0,0-.62c0-.25.21-0.39,0.17-0.64a3.56,3.56,0,0,1,0-.7,0.84,0.84,0,0,1,.1-0.11,0.67,0.67,0,0,0,.05-0.21c0-.23-0.31-0.42-0.09-0.69a1.18,1.18,0,0,0,.08-0.74,0.42,0.42,0,0,0-.13-0.42s0.21-.13,0-0.27a0.54,0.54,0,0,1-.06-0.44,0.59,0.59,0,0,1,.09-0.35,0.86,0.86,0,0,0,0-.73,1.3,1.3,0,0,1,0-.94S298,219,298,219a0.59,0.59,0,0,1-.12-0.57c0-.21,0-0.41,0-0.62s0-.25,0-0.37a0.91,0.91,0,0,1-.17-0.47,0.38,0.38,0,0,1-.11-0.27,0.71,0.71,0,0,0-.1-0.58,1,1,0,0,0-.17-0.47,5,5,0,0,1-.2-0.86,0.35,0.35,0,0,0-.13-0.41,1.19,1.19,0,0,1-.17-0.63,0.61,0.61,0,0,1-.15-0.64,2.23,2.23,0,0,1-.17-0.56,2.34,2.34,0,0,0,0-.54c0-.21,0-0.42,0-0.62a1.13,1.13,0,0,1,.14-0.49,2,2,0,0,0,.33-0.88,0.3,0.3,0,0,1,.14-0.17,0.53,0.53,0,0,0,.17-0.4,1.07,1.07,0,0,0,.15-0.56c-0.05-.19.21-0.27,0.16-0.48a1.69,1.69,0,0,0,.15-0.56,1.11,1.11,0,0,0,.17-0.71,1.77,1.77,0,0,0,.15-0.64c0-.21,0-0.42,0-0.62s0-.47,0-0.7a0.38,0.38,0,0,0-.1-0.27c-0.09-.11-0.07-0.12,0-0.26a1.2,1.2,0,0,0,.26-0.75,0.38,0.38,0,0,1,.25-0.35,0.27,0.27,0,0,1,.2.06s0,0.11,0,.14a1.42,1.42,0,0,1,.3.35,1.88,1.88,0,0,1,0,.54c0,0.23,0,.47,0,0.7a0.5,0.5,0,0,0,.11.27,0.66,0.66,0,0,1,0,.57s-0.07.1-.06,0.11a0.8,0.8,0,0,1,.12.73,1.55,1.55,0,0,0,.15.56,1,1,0,0,0,.15.57,1.09,1.09,0,0,0,.12.42,1.15,1.15,0,0,0,.17.47,3.21,3.21,0,0,0,0,.45c0,0.11.12,0.21,0.14,0.33a1.36,1.36,0,0,1,0,.39,0.68,0.68,0,0,0,.13.26,0.58,0.58,0,0,1-.11.63,0.15,0.15,0,0,0,0,.14,0.91,0.91,0,0,1,.16.64c0.06,0.22-.24.27-0.17,0.49a1,1,0,0,1,0,.46,0.42,0.42,0,0,0-.14.25,4,4,0,0,1-.17.56,2.73,2.73,0,0,1,0,.54v0.62a0.86,0.86,0,0,0-.16.72,3.59,3.59,0,0,0-.15,1.65,0.63,0.63,0,0,1-.15.33,0.48,0.48,0,0,1,.14.24,1.74,1.74,0,0,1-.15,1,0.75,0.75,0,0,0,0,.38M299.73,250c-0.07-.07-0.14-0.15-0.22-0.22a0.76,0.76,0,0,1,0-1.06,0.28,0.28,0,0,0,.1-0.34,2.46,2.46,0,0,1,.17-0.55,3.78,3.78,0,0,0,.7-0.72,4,4,0,0,1,.57-0.7,5.7,5.7,0,0,1,.54-0.21,1.19,1.19,0,0,0,1-.57,0.36,0.36,0,0,1,.19-0.31l0.66-.66,0.55-.55a0.89,0.89,0,0,1,.39-0.54,0.42,0.42,0,0,0,.08-0.12,1.65,1.65,0,0,1,.25-0.52,4.72,4.72,0,0,1,.43-0.45,2.3,2.3,0,0,1,.33-0.49,5.37,5.37,0,0,0,.5-0.49l0.44-.44,0.44-.44,0.49-.49,0.44-.44a0.44,0.44,0,0,1,.16-0.16,2.83,2.83,0,0,0,.56-0.34,0.68,0.68,0,0,0,.3-0.22,0.9,0.9,0,0,0,.31-0.17,3.64,3.64,0,0,1,.55-0.38c0.14-.15.3-0.28,0.43-0.44a1.63,1.63,0,0,1,.73-0.49,1.45,1.45,0,0,0,.35-0.27,0.41,0.41,0,0,1,.48.07c0.15,0.14.14,0.14,0,.38a1,1,0,0,1-.27.43,2.44,2.44,0,0,0-.28.27c-0.27.27-.55,0.55-0.82,0.83a0.43,0.43,0,0,0-.24.37,2.52,2.52,0,0,1-.8.67,1.21,1.21,0,0,0-.43.27,4.43,4.43,0,0,1-.49.5,2.31,2.31,0,0,1-.38.55,0.26,0.26,0,0,0-.07.12,2,2,0,0,1-.21.45,5.74,5.74,0,0,1-.6.61,0.89,0.89,0,0,1-.26.11,0.59,0.59,0,0,1-.18.39,1.56,1.56,0,0,1-.42.68,2.84,2.84,0,0,0-.38.38,0.71,0.71,0,0,0-.28.35,1,1,0,0,1-.33.41,1.75,1.75,0,0,0-.27.43,1,1,0,0,1-.6.61,1.16,1.16,0,0,0-.55.37,1.44,1.44,0,0,1-.72.51,0.86,0.86,0,0,0-.3.21,0.31,0.31,0,0,1-.27.11,1.29,1.29,0,0,0-.31,0s-0.07.08-.11,0.1a2.44,2.44,0,0,1-.53.22,12.2,12.2,0,0,1-.66,1,1.68,1.68,0,0,0-.34.79,4,4,0,0,1-.26.59,0.37,0.37,0,0,1-.53,0m1.85,46.21,0.19,0.08a0.76,0.76,0,0,1-.19.07,0.28,0.28,0,0,1-.12-0.07l0.12-.08M313.46,263a0.51,0.51,0,0,1-.13.41,0.55,0.55,0,0,1-.51.25,0.42,0.42,0,0,1-.46-0.46c0-.23.2-0.34,0.17-0.55,0.15-.08.29-0.16,0.45-0.23a0.31,0.31,0,0,1,.23,0,0.32,0.32,0,0,1,.1.17,0.7,0.7,0,0,1,.16.4m28.35-19.79a0.33,0.33,0,0,1-.08.2,2.86,2.86,0,0,0-.43.61,5.58,5.58,0,0,1-.45.59,5.29,5.29,0,0,0-.55.55,0.37,0.37,0,0,1-.34.13,0.14,0.14,0,0,0-.18.17c0,0.12-.25.15-0.08,0.29s-0.07.15-.06,0.22a0.66,0.66,0,0,1-.28.59,1.74,1.74,0,0,0-.27.28,2.19,2.19,0,0,0-.17.32,2.2,2.2,0,0,1-.17.32c-0.08.1-.18,0.18-0.27,0.28a0.31,0.31,0,0,0-.1.19,0.46,0.46,0,0,1-.17.4,1,1,0,0,0-.32.41,2.79,2.79,0,0,1-.39.46,1.24,1.24,0,0,1-.28.43,1.92,1.92,0,0,1-.22.38,1.18,1.18,0,0,1-.17.39,0.91,0.91,0,0,1-.26.36,4.3,4.3,0,0,1-.33.65,0.85,0.85,0,0,1-.17.32,3.23,3.23,0,0,0-.64,1,1.88,1.88,0,0,0-.16.4,0.24,0.24,0,0,1-.08.12,5.27,5.27,0,0,0-.39.54,0.94,0.94,0,0,0-.26.45,2.25,2.25,0,0,1-.28.59,3.82,3.82,0,0,1-.34.47,0.15,0.15,0,0,0-.05.05c0.15,0.38-.35.48-0.33,0.8-0.23.2-.21,0.55-0.44,0.75a0.5,0.5,0,0,1-.22.38,2.24,2.24,0,0,0-.17.32l-0.09.2a2.71,2.71,0,0,1-.85,1.2,7.8,7.8,0,0,1-.48.67,5.15,5.15,0,0,0-.61.6,0.93,0.93,0,0,0-.08.2,1.6,1.6,0,0,1-.25.44,5.92,5.92,0,0,1-.49.66c-0.33.24-.43,0.69-0.77,0.92a0.61,0.61,0,0,1-.43.28l-0.22.37c-0.08.14-.28,0.07-0.38,0.22s-0.23.21-.32,0.34a3.55,3.55,0,0,1-.37.22,5.78,5.78,0,0,1-.77.6l-0.66.66a0.18,0.18,0,0,1-.26,0,0.24,0.24,0,0,0-.43,0,1,1,0,0,1-.38.22,1.13,1.13,0,0,1-.36.27,1.32,1.32,0,0,0-.35.28,0.35,0.35,0,0,1-.15,0l-0.59.26a0.46,0.46,0,0,1-.53.21,2.42,2.42,0,0,0-.4.16,1.24,1.24,0,0,0-.38,0c-0.06,0-.11.12-0.18,0.13s-0.41,0-.61,0a0.52,0.52,0,0,1-.57.12,0.89,0.89,0,0,0-.56.16,0.54,0.54,0,0,0-.51.27,0.21,0.21,0,0,1-.27,0,4.09,4.09,0,0,1-.32-0.5,0.3,0.3,0,0,1,0-.29,3.41,3.41,0,0,0,.21-0.38c0.12-.1.08-0.28,0.21-0.39a1.81,1.81,0,0,1,.11-0.42c0.12-.1.07-0.33,0.32-0.33a1.43,1.43,0,0,0,.28-0.25c0.14-.08,0-0.33.24-0.34a0.59,0.59,0,0,0,.35-0.27,2.27,2.27,0,0,1,.37-0.23,3.09,3.09,0,0,1,.66-0.49,1.32,1.32,0,0,1,.36-0.26,1.15,1.15,0,0,1,.39-0.17,3.36,3.36,0,0,0,.54-0.38,0.46,0.46,0,0,1,.53-0.22l0.53-.22a0.63,0.63,0,0,1,.43-0.28,0.68,0.68,0,0,1,.4-0.14,1.83,1.83,0,0,0,.45-0.24,0.56,0.56,0,0,1,.46-0.22,0.68,0.68,0,0,0,.44-0.22c0.23-.29.63-0.28,0.87-0.54a0.69,0.69,0,0,0,.4-0.17,1,1,0,0,0,.3-0.22c0.06,0,.14,0,0.2-0.09a1.71,1.71,0,0,0,.66-0.47,1,1,0,0,0,.39-0.29,1,1,0,0,1,.43-0.35,1.89,1.89,0,0,1,.38-0.39l0.39-.39a1.27,1.27,0,0,0,.32-0.34,1.25,1.25,0,0,1,.28-0.43,0.55,0.55,0,0,0,.25-0.37,0.53,0.53,0,0,1,.25-0.28,2,2,0,0,0,.28-0.43,1.58,1.58,0,0,0,.28-0.43,2.18,2.18,0,0,1,.33-0.63,7.25,7.25,0,0,1,.42-0.61c0.23-.19.21-0.54,0.44-0.75a0.18,0.18,0,0,1,.2-0.24c0.08,0,.08-0.1.12-0.16a2.8,2.8,0,0,1,.72-1.1,0.11,0.11,0,0,0,.05-0.05,1.35,1.35,0,0,1,.3-0.49,1.21,1.21,0,0,1,.17-0.32,1.91,1.91,0,0,1,.4-0.69,2.31,2.31,0,0,0,.22-0.45,1.82,1.82,0,0,0,.29-0.42,1.64,1.64,0,0,1,.31-0.42,2,2,0,0,1,0-.3,4.32,4.32,0,0,0,.43-0.61,1.76,1.76,0,0,0,.55-0.71c0.25-.15.25-0.49,0.49-0.65a1,1,0,0,0,.09-0.19,2.81,2.81,0,0,0,.2-0.38,1.23,1.23,0,0,0,.29-0.43,0.93,0.93,0,0,1,.31-0.33,3.49,3.49,0,0,0,.38-0.39,1.34,1.34,0,0,0,.21-0.45,0.45,0.45,0,0,1,.18-0.24,2.48,2.48,0,0,0,.67-1,1.52,1.52,0,0,1,.11-0.26,3.42,3.42,0,0,1,.43-0.45,0.56,0.56,0,0,1,.52-0.27,0.37,0.37,0,0,0,.23-0.18,0.38,0.38,0,0,1,.42-0.12,0.46,0.46,0,0,1,.26.42v0.15" transform="translate(-231.8 -59.82)"/>
</svg>
