<svg width="1055" height="409" viewBox="0 0 1055 409" fill="none" xmlns="http://www.w3.org/2000/svg">
<path d="M19.7634 105.563C41.3466 69.1724 46.2348 44.7508 81.4358 23.5144C173.107 -31.7903 270.773 27.3882 376.145 30.5184C528.248 35.0368 739.118 23.5144 739.118 23.5144C739.118 23.5144 867.042 8.26903 935.905 45.5273C991.181 75.4342 1034.22 98.5719 1050.78 162.096C1062.88 208.526 1045.13 285.168 1045.13 285.168C1045.13 285.168 1050.78 401.236 965.093 401.236C879.411 401.236 322.476 412.743 292.346 407.74C262.216 402.737 28.7082 362.158 14.114 323.19C-0.480238 284.222 -10.6979 156.921 19.7634 105.563Z" fill="black"/>
</svg>
