<svg xmlns="http://www.w3.org/2000/svg" id="Layer_1" data-name="Layer 1" viewBox="0 0 500.28 500.45">
    <title>icon-vinyl</title>
    <style>
        .cls-1 {
        fill: #fff;
        }
    </style>
    <g id="Xp814r">
        <g>
            <path class="cls-1" d="M1030,434.92c0.5,135.71-109.21,248.09-246.7,249.79C640.27,686.48,528,569.66,529.77,431.09,531.46,298,640.5,182,784.67,184.32,921.07,186.54,1030.91,298.54,1030,434.92ZM780.22,540.24c58.9,0,105.73-47.32,105.75-106.82,0-57.21-47.76-104.23-105.41-104.78-57.1-.55-107.23,46.44-106.56,107.64C674.63,493.26,722.95,541.23,780.22,540.24Zm62.1-237.32a146.17,146.17,0,0,1,40.78,28.73,151.74,151.74,0,0,1,28.6,40.5L932,361c-17.66-35-43.48-61-78.49-78.4ZM648.42,496.44c-5.57,3.22-10.56,6.18-15.63,9-3.34,1.86-4.15,3.8-2.14,7.58a165.58,165.58,0,0,0,47,55.5c8.93,6.71,18.7,12.3,28.43,18.61l11.52-21a148,148,0,0,1-40.43-28.44A142.11,142.11,0,0,1,648.42,496.44Zm-56.9,31.66c21.5,42.08,52.93,73.45,94.88,94.9l9-16.38a201.13,201.13,0,0,1-51.1-36.82c-14.92-14.91-26.73-32-36.38-50.74ZM864.58,262.36a200.49,200.49,0,0,1,51.16,36.83c14.92,14.92,26.77,32,36.47,50.72,3-1.7,5.63-3.18,8.24-4.62s5.15-2.81,8-4.38c-21.51-42.1-52.9-73.43-94.86-94.89Z" transform="translate(-529.75 -184.29)"></path>
            <path class="cls-1" d="M780.34,477c-23.92,0-43-18.68-43.12-42.32A42.78,42.78,0,1,1,780.34,477Zm-0.19-26.79A15.74,15.74,0,1,0,764,434.78,15.7,15.7,0,0,0,780.15,450.24Z" transform="translate(-529.75 -184.29)"></path>
        </g>
    </g>
</svg>
